<?xml version="1.0" encoding="utf-8"?>
<!-- Generator: Adobe Illustrator 25.4.1, SVG Export Plug-In . SVG Version: 6.00 Build 0)  -->
<svg version="1.1" id="Capa_1" xmlns="http://www.w3.org/2000/svg" xmlns:xlink="http://www.w3.org/1999/xlink" x="0px" y="0px"
	 viewBox="0 0 1500 500" style="enable-background:new 0 0 1500 500;" xml:space="preserve">
<style type="text/css">
	.st0{fill-rule:evenodd;clip-rule:evenodd;fill:#E7E6E8;}
</style>
<path class="st0" d="M770.1,15.4l172.7,99.8c12.5,7.2,20.1,20.6,20.1,35v199.6c0,14.4-7.7,27.8-20.1,35l-172.7,99.8
	c-12.5,7.2-27.8,7.2-40.3,0l-172.7-99.8c-12.5-7.2-20.1-20.6-20.1-35V150.2c0-14.4,7.7-27.8,20.1-35l172.7-99.8
	C742.3,8.2,757.7,8.2,770.1,15.4z M859.9,150.2H684.3l-42.2,56.1h42.2v158.3l56.1-73.9h48.9l42.2-56.1h-91.2v-27.8h77.2L859.9,150.2
	z"/>
</svg>
