<?xml version="1.0" encoding="utf-8"?>
<!-- Generator: Adobe Illustrator 25.4.1, SVG Export Plug-In . SVG Version: 6.00 Build 0)  -->
<svg version="1.1" id="Capa_1" xmlns="http://www.w3.org/2000/svg" xmlns:xlink="http://www.w3.org/1999/xlink" x="0px" y="0px"
	 viewBox="0 0 1500 500" style="enable-background:new 0 0 1500 500;" xml:space="preserve">
<style type="text/css">
	.st0{fill:#E7E6E8;}
</style>
<g>
	<g>
		<path class="st0" d="M639.1,10.1c11.8,0,23.6,0.2,35.3-0.1c19-0.4,33.1,7.9,42.5,24c30,51.2,59.5,102.7,89.6,153.7
			c9.1,15.4,8.9,29.8,0.1,45.1c-14.4,25.2-27.7,51.1-42,76.3c-11.6,20.3-25.9,20.5-37.6-0.1c-50.2-87.6-100.2-175.3-150-263.2
			c-11.5-20.3-2-35.5,21.5-35.9C612.1,10,625.6,10.1,639.1,10.1z"/>
		<path class="st0" d="M363.3,333.8c-14.3,0-28.6,0.3-42.9-0.1c-21.8-0.5-29-12.5-18.4-31.4c30.4-53.9,61.1-107.5,91.8-161.2
			c19.4-34,38.6-68,58.3-101.8C465,17,478.8,17,491.8,39.3c13.8,23.6,27.1,47.5,40.9,71c8.5,14.5,8.3,28.3-0.1,42.8
			C502.2,206,471.9,259,441.9,312c-8.5,15-20.7,22.5-38.1,22c-13.4-0.4-26.9-0.1-40.4-0.1C363.3,333.8,363.3,333.8,363.3,333.8z"/>
		<path class="st0" d="M909.8,333.7c-15.1,0-30.3,0.4-45.4-0.1c-18.5-0.7-25.9-12.7-16.9-29c23.8-43,48.4-85.6,72.8-128.4
			c24.8-43.5,49.6-86.9,74.4-130.4c2.7-4.7,5.4-9.5,8.6-13.9c8.5-11.6,22-12.8,29.3-1c17.8,29,35,58.4,50.3,88.9
			c3.8,7.5,2.3,20.9-2,28.6c-31,56.3-63.2,112-95.4,167.8c-6.8,11.8-17.7,17.6-31.5,17.6C939.3,333.8,924.5,333.8,909.8,333.7
			C909.8,333.8,909.8,333.7,909.8,333.7z"/>
		<path class="st0" d="M861.4,10.1c15.1,0,30.2-0.2,45.4,0.1c23.3,0.4,32.4,15.8,20.9,36.1c-15.8,27.7-31.9,55.3-48.3,82.7
			c-11.6,19.3-25.6,19.4-37.1,0.1c-16.9-28.1-33.3-56.4-49.4-85c-9.9-17.6-0.8-33.2,19.4-33.8C828.6,9.7,845,10.1,861.4,10.1z"/>
		<path class="st0" d="M1132.1,333.7c-17.2,0-34.4,0.5-51.7-0.1c-17.8-0.6-25.4-13-16.8-28.3c17-30.4,34.6-60.5,52.7-90.2
			c9.2-15.2,23.6-15.1,32.9,0.1c17.9,29.4,35.3,59.1,52.2,89.1c9.3,16.5,1.7,28.6-17.6,29.4c-8.8,0.4-17.6,0.2-26.5,0.2
			c-8.4,0-16.8,0-25.2,0C1132.1,333.8,1132.1,333.7,1132.1,333.7z"/>
		<path class="st0" d="M586.4,333.7c-17.3,0-34.6,0.4-51.8-0.1c-18.7-0.6-26.2-12.9-17.1-29c16.7-29.7,33.8-59.2,51.6-88.3
			c10.3-16.9,24.2-16.9,34.4-0.2c17.5,28.8,34.5,57.8,51.1,87.2c9.9,17.5,2.5,29.8-17.6,30.4C620.1,334.1,603.3,333.7,586.4,333.7z"
			/>
		<path class="st0" d="M810.6,402.7c13.7-4.1,22,0.1,28.7,12c8.9,16.1,19.9,31,32,49.5c0-22.6,0-41.8,0-61.9c5.9,0,10.2,0,15.4,0
			c0,28.1,0,56,0,84c-12.4,3.9-20.6,1-27.2-10.7c-9.7-17.1-21.1-33.2-33.7-52.7c0,23.1,0,42.9,0,64c-5.6,0.3-10,0.5-15.3,0.8
			C810.6,459,810.6,431.1,810.6,402.7z"/>
		<path class="st0" d="M1038.8,402.1c5.3,0,9.4,0,14.8,0c0,8.9-0.6,17.3,0.3,25.5c0.3,2.9,4.1,7.6,6.7,7.7
			c10.3,0.9,20.8,0.4,32.5,0.4c0-11.8,0-22.1,0-33.3c5.6,0,10,0,15.2,0c0,28.1,0,56,0,84.6c-4.7,0-9.2,0-14.8,0
			c0-12.1,0-23.7,0-36.2c-13.5,0-25.9,0-39.5,0c0,11.8,0,23.4,0,36.2c-5.5,0.3-9.8,0.5-15.2,0.8
			C1038.8,458.9,1038.8,431,1038.8,402.1z"/>
		<path class="st0" d="M1153.3,402.1c18.7,0,36.7,0,55.4,0c0,4.5,0,8.5,0,13.8c-13.3,0-26.1,0-39.8,0c0,7.1,0,12.7,0,20.2
			c12.2,0,24.5,0,37.5,0c0.4,5.2,0.6,8.8,1,14.1c-13.1,0-25.4,0-38.6,0c0,8.2,0,14.7,0,23c14.3,0,28.7,0,43.9,0
			c0.4,5.3,0.6,8.9,0.9,13.6c-20.3,0-39.8,0-60.4,0C1153.3,458.9,1153.3,431.1,1153.3,402.1z"/>
		<path class="st0" d="M373.2,486.2c-11.1,3.2-19.1,2.6-21.8-9.7c-1.4-6.7-5.8-9.4-12.9-8.7c-6.2,0.6-12.8-0.9-18.8,0.5
			c-4.4,1-10.4,4.4-11.5,8c-3.4,12.1-10.8,13.1-21.9,10c11.6-26.8,22.9-53.3,34.8-79.6c3.5-7.7,14.2-7.9,17.6-0.2
			C350.5,432.8,361.6,459.4,373.2,486.2z M316.6,454.2c9.2,0,16.7,0,25.6,0c-4.1-10.9-7.9-21.1-12.8-33.9
			C324.6,433.3,320.9,443,316.6,454.2z"/>
		<path class="st0" d="M488.8,487.7c12.4-28.5,23.7-55.1,35.6-81.4c3.5-7.7,14.1-7.1,17.6,0.8c11.6,26,22.7,52.3,34.3,79.3
			c-10.9,2.8-19.2,2.8-21.8-9.6c-1.7-7.8-6.8-9.7-13.9-8.9c-4.2,0.4-8.5,0.5-12.6,0c-9.7-1.3-16.4,1.3-18.5,11.7
			C507.3,490.7,498.7,487.3,488.8,487.7z M532.7,420.2c-4.9,13-8.7,22.9-12.8,33.8c9,0,16.4,0,25.3,0
			C541.2,443.2,537.4,433.2,532.7,420.2z"/>
		<path class="st0" d="M775.5,486.2c-11.2,3.1-19.1,2.4-21.7-9.3c-1.7-7.7-6.5-9.8-13.9-9.1c-5.8,0.5-12-0.9-17.6,0.4
			c-4.4,1-10.6,4.2-11.6,7.7c-3.7,11.6-10.7,13.7-22.2,10.5c11.7-26.9,23-53.5,34.9-79.9c3.5-7.7,14.2-7.7,17.6,0
			C752.7,432.7,763.8,458.9,775.5,486.2z M744.6,454.2c-4.3-11.5-8-21.2-12.7-33.7c-5,12.8-8.8,22.9-13,33.7
			C727.7,454.2,735.3,454.2,744.6,454.2z"/>
		<path class="st0" d="M992.1,466c3.8,2.9,7.1,5.3,10.3,7.8c-11.8,18.5-41,21.6-60.2,6.8c-19.4-15.1-22-47.6-5.4-66.8
			c16.3-18.8,46.3-19.4,64.1-0.8c-3.1,2.6-6.2,5.2-9.1,7.6c-22.2-9.8-34.6-8.3-44,5.1c-8.5,12-6.7,31.6,3.7,41.8
			C962.4,478.2,975.2,477.9,992.1,466z"/>
		<path class="st0" d="M471.5,402.9c-10.9,26.8-21.6,53.6-32.9,80.2c-1,2.3-5.9,4.4-8.9,4.2c-2.9-0.2-7.1-2.9-8.2-5.5
			c-10.6-26-20.8-52.1-31.3-79c11.5-3.2,18.5-1.7,22.1,10.7c4.9,16.7,11.6,32.9,18.6,52.1c7.1-19,14-35,19.1-51.7
			C453.6,402.7,459.3,398.8,471.5,402.9z"/>
		<path class="st0" d="M625.3,473.9c13.8,0,25,0,36.8,0c0,4.8,0,8.5,0,13c-16.6,0-33.2,0-50.9,0c0-28,0-55.9,0-84.7
			c4.3-0.3,8.3-0.5,14.1-0.9C625.3,425.3,625.3,448.6,625.3,473.9z"/>
	</g>
</g>
</svg>
