<svg width="38" height="38" viewBox="0 0 38 38" fill="none" xmlns="http://www.w3.org/2000/svg">
<circle cx="19" cy="19" r="18.5" fill="#310B5C" stroke="white"/>
<g clip-path="url(#clip0_1509_2786)">
<path d="M8.00187 14.1876C8.07841 14.3565 8.17247 14.5177 8.28263 14.6687C8.45467 14.8567 8.69585 14.974 8.95599 14.9961C9.21614 15.0183 9.47518 14.9436 9.67924 14.7877C9.81594 14.6765 9.94646 14.5584 10.0702 14.4341L13.0092 11.6242C13.066 11.5715 13.1247 11.5205 13.2259 11.4304V28.8033C13.2008 29.0744 13.2735 29.3456 13.432 29.5716C13.5444 29.7305 13.7041 29.8533 13.8905 29.9239C14.0769 29.9946 14.2812 30.0099 14.4768 29.9677C14.6787 29.9376 14.8657 29.8481 15.0118 29.7116C15.158 29.5751 15.2561 29.3984 15.2924 29.2061C15.3183 29.0722 15.329 28.936 15.3244 28.7999C15.3244 23.1064 15.3244 17.414 15.3244 11.7228V11.4338C15.4133 11.5103 15.4737 11.5596 15.5288 11.6123C16.5949 12.6237 17.6432 13.6385 18.7058 14.6483C19.2158 15.1345 19.9284 15.1107 20.3317 14.6041C20.4688 14.4318 20.543 14.2213 20.543 14.0049C20.543 13.7884 20.4688 13.5779 20.3317 13.4057C20.2579 13.3161 20.1777 13.2314 20.0918 13.1524C18.4819 11.6123 16.8733 10.0722 15.2658 8.53207C15.0506 8.29367 14.7762 8.11074 14.468 8H14.0646C13.7534 8.1206 13.4768 8.3106 13.2579 8.55417C11.7014 10.0478 10.1412 11.5397 8.57758 13.03C8.32403 13.24 8.12613 13.5044 8.00009 13.8017L8.00187 14.1876Z" fill="white"/>
<path d="M24.5323 7.99996C23.8855 8.19885 23.6723 8.64082 23.6741 9.26808C23.6847 14.9344 23.6847 20.6047 23.6741 26.2789V26.5696C23.5799 26.4863 23.5195 26.437 23.4644 26.3826C22.4113 25.3763 21.3576 24.3694 20.3033 23.3619C19.9 22.976 19.4149 22.8961 18.9778 23.1341C18.8509 23.2034 18.7407 23.2976 18.6544 23.4104C18.5682 23.5232 18.5077 23.6521 18.477 23.7888C18.4463 23.9254 18.4461 24.0668 18.4764 24.2035C18.5066 24.3403 18.5666 24.4694 18.6526 24.5824C18.7248 24.6733 18.8044 24.7586 18.8907 24.8374L23.8517 29.5716C24.4434 30.1377 25.0121 30.1377 25.602 29.5716C27.2687 27.9771 28.936 26.382 30.6039 24.7864C31.0197 24.3886 31.1085 23.9501 30.8704 23.5251C30.8001 23.3961 30.7008 23.2836 30.5797 23.1957C30.4585 23.1078 30.3185 23.0466 30.1697 23.0165C30.021 22.9865 29.8671 22.9883 29.7191 23.0218C29.5711 23.0554 29.4327 23.1199 29.3139 23.2106C29.2331 23.2746 29.156 23.3427 29.0829 23.4146L26.0036 26.3605C25.9488 26.4194 25.8983 26.4819 25.8525 26.5475L25.7761 26.5186V26.2602C25.7761 20.5678 25.7761 14.876 25.7761 9.18479C25.7761 8.82781 25.7228 8.49123 25.4207 8.25494C25.2678 8.15546 25.1068 8.06791 24.9392 7.99316L24.5323 7.99996Z" fill="white"/>
</g>
<defs>
<clipPath id="clip0_1509_2786">
<rect width="23" height="22" fill="white" transform="matrix(-1 0 0 1 31 8)"/>
</clipPath>
</defs>
</svg>
