<?xml version="1.0" encoding="utf-8"?>
<!-- Generator: Adobe Illustrator 25.4.1, SVG Export Plug-In . SVG Version: 6.00 Build 0)  -->
<svg version="1.1" id="Capa_1" xmlns="http://www.w3.org/2000/svg" xmlns:xlink="http://www.w3.org/1999/xlink" x="0px" y="0px"
	 viewBox="0 0 1586.7 500" style="enable-background:new 0 0 1586.7 500;" xml:space="preserve">
<style type="text/css">
	.st0{fill:#E7E6E8;}
</style>
<g>
	<path class="st0" d="M528.4,247.1c-1.8-46.9,34.9-86.3,81.8-88.1h3.4c43.3,0,68.8,25.3,76.4,55l-27.1,9.1c-5-22.9-26-38.8-49.3-37
		c-27.9,0-56,20.3-56,61.5s27.4,60.7,56.3,60.7c23.5,0.5,44.3-14.9,50.6-37.3l26.3,8.6c-9.4,34.4-41.5,57.8-77.2,56
		c-46.4,0.8-84.7-35.9-85.5-82.3C528.1,251.3,528.1,249.2,528.4,247.1"/>
	<path class="st0" d="M743.4,331.8H715V158.6h28.4v68c8.1-9.7,20.3-15.1,33.1-14.6c28.7,0,42.7,20.6,42.7,46.1v73.7h-27.6v-69.1
		c1.8-12.2-6.8-23.7-19-25.6l0,0c-1.6-0.2-3.4-0.2-5,0c-13.3,0-24.2,10.9-24.2,24.2c0,0.8,0,1.3,0,2.1V331.8z"/>
	<path class="st0" d="M880.7,265.1l29.9-4.7c6.8-0.8,8.6-4.4,8.6-8.3c0-9.9-6.5-17.7-22.1-17.7c-12-1-22.7,7.8-24,19.8v1l-25.3-5.8
		c2.1-20,20.3-38,49-38c35.9,0,49.5,20.3,49.5,44v57.8c0,6.2,0.2,12.5,1.6,18.8h-25.8c-1-5-1.3-9.9-1-14.9
		c-7.8,12-21.6,19-35.9,18.5c-20,1.6-37.5-13-39.6-33.1v-1.8C845.3,279.2,860.6,268,880.7,265.1 M919,283.9v-5.2l-30.5,4.4
		c-8.6,0.2-15.4,7.3-15.7,15.9c0,8.6,7,15.4,15.7,15.1l0,0h1.3c14.6,1.8,27.9-8.9,29.5-23.5c0-0.2,0-0.2,0-0.5
		C919.8,288,919.5,285.9,919,283.9L919,283.9z"/>
	<path class="st0" d="M993.5,156.2c9.9,0,18.2,7.8,18.5,18c0,9.9-8.1,18-18,18.2c-9.9,0-18-8.1-18.2-18
		C975.6,164.3,983.6,156.2,993.5,156.2 M980,332.3v-117h27.9v116.5L980,332.3z"/>
	<path class="st0" d="M1070.9,331.8H1043V215.3h27.1V231c7.3-12,20.3-19.3,34.4-19c28.4,0,41.9,20.6,41.9,46.1v73.7h-27.6v-69.1
		c0-14.3-6.5-25.8-24-25.8c-13.6,0-24.5,11.2-24.5,24.8c0,1,0,1.8,0,2.9L1070.9,331.8z"/>
	<rect x="1180.7" y="158.6" class="st0" width="27.6" height="173.3"/>
	<path class="st0" d="M1258,156.2c9.9,0,18,8.1,18.2,18c0,9.9-8.1,18-18,18.2c-9.9,0-18-8.1-18.2-18v-0.2
		C1240.1,164.3,1247.9,156.2,1258,156.2 M1244.2,332.3v-117h27.6v116.5L1244.2,332.3z"/>
	<path class="st0" d="M1335.4,331.8h-27.6V215.3h27.1V231c7.3-12,20.3-19.3,34.4-19c28.4,0,42.2,20.6,42.2,46.1v73.7h-27.6v-69.1
		c1.8-12.2-6.8-23.7-19-25.6l0,0c-1.6-0.2-3.4-0.2-5,0c-13.6,0-24.5,10.9-24.2,24.5c0,1,0,2.1,0,2.9L1335.4,331.8z"/>
	<polygon class="st0" points="1506.1,264.3 1555.1,331.8 1521,331.8 1486.8,283.6 1472.5,298.7 1472.5,331.8 1444.8,331.8 
		1444.8,158.6 1472.5,158.6 1472.5,262.2 1517.3,215.3 1554,215.3 	"/>
	<path class="st0" d="M239.5,111.6l120.1,69.1v138.4L240,388.4l-120.1-68.3V181.2L239.5,111.6z M239.5,10l-44,25.6L75.6,105.1
		l-44,25.6v240l44,25.3l120.1,68.8l44,25.3l44-25.6l119.6-69.6l44-25.6V129.1l-44-25.3L283.3,34.8L239.5,10L239.5,10z"/>
</g>
</svg>
