<?xml version="1.0" encoding="utf-8"?>
<!-- Generator: Adobe Illustrator 25.4.1, SVG Export Plug-In . SVG Version: 6.00 Build 0)  -->
<svg version="1.1" id="Capa_1" xmlns="http://www.w3.org/2000/svg" xmlns:xlink="http://www.w3.org/1999/xlink" x="0px" y="0px"
	 viewBox="0 0 95 95" style="enable-background:new 0 0 95 95;" xml:space="preserve">
<style type="text/css">
	.st0{fill-rule:evenodd;clip-rule:evenodd;fill:none;stroke:#FFFFFF;stroke-miterlimit:10;}
	.st1{fill:#FFFFFF;}
</style>
<g>
	<polygon class="st0" points="-125.1,260.4 -101.6,249.7 -101.6,221.5 -125.1,260.4 	"/>
	<polygon class="st0" points="-101.6,249.7 -125.1,260.4 -101.6,274.3 -101.6,249.7 	"/>
	<polygon class="st0" points="-101.6,249.7 -101.6,274.3 -78.1,260.4 -101.6,249.7 	"/>
	<polygon class="st0" points="-101.6,249.7 -78.1,260.4 -101.6,221.5 -101.6,249.7 	"/>
	<polygon class="st0" points="-101.6,278.7 -125.1,264.9 -101.6,298 -101.6,278.7 	"/>
	<polygon class="st0" points="-101.6,278.7 -101.6,298 -78.1,264.9 -101.6,278.7 	"/>
</g>
<g id="Layer_2">
	<g id="Layer_1-2">
		<path class="st1" d="M47.5,2.5l-8.3,4.7l-22.5,13L8.5,25v45l8.3,4.7l22.7,13l8.3,4.7l8.3-4.7l22.3-13l8.3-4.7V25l-8.3-4.7
			l-22.5-13L47.5,2.5z M25,60.5v-26l22.5-13l22.5,13v26l-22.5,13L25,60.5z"/>
	</g>
</g>
</svg>
