<svg width="44" height="35" viewBox="0 0 44 35" fill="none" xmlns="http://www.w3.org/2000/svg">
<g clip-path="url(#clip0_27_8478)">
<path d="M43.484 13.0222C43.2171 13.3946 42.9943 13.811 42.6757 14.1324C39.2584 17.5813 35.8298 21.0187 32.3899 24.4444C32.1137 24.7183 31.7342 24.9728 31.3639 25.0491C30.3523 25.2577 29.5804 24.5216 29.5677 23.3928C29.5525 22.0646 29.5677 20.7357 29.5677 19.4067V18.8911H28.9899C23.6352 18.8911 18.2796 18.869 12.9241 18.9055C11.5922 18.9148 10.9254 18.121 11.0076 16.9599C11.0533 16.3154 11.016 15.6658 11.016 15.0882L4.11933 22.0121L11.0127 28.9249V26.998C11.0127 25.6665 11.582 25.0983 12.9215 25.0983C16.8105 25.0983 20.7 25.0983 24.59 25.0983C24.871 25.0914 25.1514 25.1248 25.4229 25.1975C25.7554 25.305 26.0406 25.524 26.2305 25.8175C26.4204 26.1111 26.5032 26.4613 26.465 26.8089C26.427 27.163 26.2686 27.4933 26.0165 27.7446C25.7643 27.9959 25.4337 28.153 25.0798 28.1896C24.9106 28.2025 24.7409 28.2065 24.5714 28.2015H14.1314C14.123 28.3711 14.1102 28.5212 14.1094 28.6696C14.1094 29.9842 14.1094 31.2987 14.1094 32.6133C14.1094 33.2375 13.9518 33.7862 13.3884 34.1441C13.124 34.3236 12.809 34.4133 12.4898 34.3999C12.1706 34.3865 11.8642 34.2706 11.6159 34.0694C11.4842 33.9633 11.3597 33.8485 11.2431 33.726C7.78402 30.2601 4.32549 26.7931 0.867532 23.3249C-0.0390387 22.4149 -0.0432748 21.5931 0.854824 20.6958C4.32182 17.2169 7.79221 13.7417 11.266 10.2702C11.543 9.99454 11.9158 9.73417 12.2827 9.65106C13.2884 9.42716 14.0857 10.1642 14.1009 11.282C14.1196 12.6245 14.106 13.9679 14.106 15.3104V15.8074H14.6991C20.0962 15.8074 25.4935 15.8074 30.8911 15.8074C32.0654 15.8074 32.6509 16.4011 32.6543 17.5884C32.6543 18.1674 32.6543 18.7469 32.6543 19.327V19.6552L39.5968 12.6949L32.6856 5.74558C32.6725 5.82412 32.6645 5.90345 32.6619 5.98305C32.6619 6.67594 32.6729 7.36884 32.6543 8.06088C32.6323 8.87675 32.0798 9.46703 31.2749 9.56965C31.1627 9.58567 31.0495 9.59445 30.936 9.59594C26.9336 9.59594 22.9311 9.59594 18.9286 9.59594C18.6897 9.59727 18.4519 9.5618 18.2237 9.49077C17.9017 9.37849 17.6266 9.16142 17.4423 8.87425C17.258 8.58708 17.1751 8.24636 17.207 7.90653C17.2414 7.55201 17.3962 7.22002 17.6455 6.96585C17.8948 6.71169 18.2235 6.5507 18.577 6.50971C18.7461 6.49535 18.9158 6.49082 19.0854 6.49614H29.5643V6.0034C29.5643 4.68885 29.5694 3.37431 29.5643 2.05976C29.5643 1.31598 29.8185 0.718069 30.5277 0.421236C31.2368 0.124402 31.8341 0.364413 32.3611 0.892777C35.8632 4.4152 39.368 7.93621 42.8757 11.4558C43.1248 11.7102 43.2849 12.0495 43.4865 12.348L43.484 13.0222Z" fill="#00D1FF"/>
</g>
<defs>
<clipPath id="clip0_27_8478">
<rect width="43.2994" height="34.1147" fill="white" transform="translate(0.184708 0.286621)"/>
</clipPath>
</defs>
</svg>
