<svg width="90" height="90" viewBox="0 0 90 90" fill="none" xmlns="http://www.w3.org/2000/svg">
<path fill-rule="evenodd" clip-rule="evenodd" d="M18.2 15.7L33.2 19.7H55.4L71 15.7L74.3 28.7L78.3 45.7L70.3 64.6999L57.2999 66.6999L59.2999 87.7C59.2999 87.7 38.3999 90.7 30.7999 87.7C23.1999 84.7 31.2 81.7 31.2 81.7L23.2 79.6999L16.2 72.6999L11.2 66.6999L9.19995 61.6999L15.2 58.7L24.7 66.1999L32.7 67.1999L21.7 62.1999L15.3 52.4L13.7 34.2L18.7 31.2L18.2 15.7Z" fill="#9A00E4"/>
<path fill-rule="evenodd" clip-rule="evenodd" d="M45 0C20.2 0 0 20.1 0 45C0 64.9 12.9 81.7 30.8 87.7C33.1 88.1 33.9 86.7 33.9 85.5C33.9 84.4 33.9 81.6 33.8 77.8C21.3 80.5 18.6 71.8 18.6 71.8C16.6 66.6 13.6 65.2 13.6 65.2C9.5 62.4 13.9 62.5 13.9 62.5C18.4 62.8 20.8 67.1 20.8 67.1C24.8 74 31.3 72 33.9 70.8C34.3 67.9 35.5 65.9 36.8 64.8C26.8 63.7 16.3 59.8 16.3 42.6C16.3 37.7 18.1 33.7 20.9 30.5C20.4 29.4 18.9 24.8 21.3 18.6C21.3 18.6 25.1 17.4 33.7 23.2C37.3 22.2 41.1 21.7 45 21.7C48.8 21.7 52.7 22.2 56.3 23.2C64.9 17.4 68.7 18.6 68.7 18.6C71.2 24.8 69.6 29.4 69.1 30.5C72 33.6 73.7 37.7 73.7 42.6C73.7 59.9 63.2 63.7 53.2 64.8C54.8 66.2 56.3 68.9 56.3 73.1C56.3 79.1 56.2 84 56.2 85.4C56.2 86.6 57 88 59.3 87.6C77.2 81.6 90 64.8 90 44.9C90 20.1 69.9 0 45 0Z" fill="white"/>
</svg>
