<svg width="881" height="496" viewBox="0 0 881 496" fill="none" xmlns="http://www.w3.org/2000/svg">
<path d="M695.6 298.6C704.7 275.1 709.7 249.6 709.7 222.9C709.7 105.8 613.3 10.8 494.4 10.8C409.8 10.8 336.7 58.8 301.5 128.7C232.9 138.1 180.1 196.1 180.1 266.3C180.1 343 243.2 405.2 321.1 405.2C338.5 405.2 355.2 402.1 370.6 396.4C405.6 420.7 448.4 435 494.5 435C552.3 435 604.7 412.6 643.4 376.1C651.5 382.8 661.9 386.7 673.2 386.7C699.1 386.7 720.2 365.7 720.2 339.7C720.1 322 710.2 306.5 695.6 298.6Z" fill="#F2F2F2"/>
<path d="M727.9 481.4C806.6 481.4 870.5 469.9 870.5 455.6C870.5 441.4 806.7 429.8 727.9 429.8C649.1 429.8 585.3 441.3 585.3 455.6C585.3 469.9 649.2 481.4 727.9 481.4Z" fill="#F2F2F2"/>
<path d="M705.5 284L712.8 269.4H732L738 284.5L739 289.3L705.5 284Z" fill="#8C505C"/>
<path d="M671.1 431.2L668.9 442.2L710.3 456L713.6 439.8L671.1 431.2Z" fill="#9F616A"/>
<path d="M675.3 429.1L670.9 450.8C669.4 458.4 661.9 463.4 654.3 461.8L653.9 461.7L661.1 426.2L675.3 429.1Z" fill="#2F2E41"/>
<path d="M721.9 281C737.419 281 750 268.419 750 252.9C750 237.381 737.419 224.8 721.9 224.8C706.381 224.8 693.8 237.381 693.8 252.9C693.8 268.419 706.381 281 721.9 281Z" fill="#9F616A"/>
<path d="M748.2 228.6C744 221.8 737.4 216.7 729.7 214.5L726.2 217V213.7C724.4 213.4 722.5 213.3 720.6 213.4L717.6 216.1V213.6C708.7 214.7 700.6 219.5 695.4 226.8C688.9 236.1 687.8 249.1 694.2 258.5C695.9 253.1 698.1 248.1 699.8 242.7C701.2 242.9 702.6 242.9 703.9 242.7L706 237.7L706.6 242.5C713.2 241.9 723 240.7 729.2 239.5L728.6 235.9L732.2 238.9C734.1 238.5 735.3 238.1 735.2 237.8C739.8 245.3 745.5 250.1 750.2 257.6C752.1 247 754.1 238.2 748.2 228.6Z" fill="#2F2E41"/>
<path d="M727.2 435.4C767.241 435.4 799.7 426.311 799.7 415.1C799.7 403.889 767.241 394.8 727.2 394.8C687.159 394.8 654.7 403.889 654.7 415.1C654.7 426.311 687.159 435.4 727.2 435.4Z" fill="#2F2E41"/>
<path d="M778.6 323.6C777.6 317.8 776.6 311.8 773.9 306.6C772.1 303.2 769.3 299.9 765.5 299.2C764.8 299.1 764 299 763.3 298.7C762.2 298.2 747.2 289.6 744.8 288.1C742.8 286.8 739.5 284.5 737.9 284.5C736.3 284.5 730 285.9 705.5 284C701.4 285.7 697.4 287.6 693.6 289.9C693.5 289.8 668.2 303.5 667.2 303.4C665.4 303.3 663.7 304.5 662.7 305.9C661.7 307.4 661.2 309.2 660.7 310.9C666.2 323.2 671.3 335.6 676.8 347.9C677.1 348.4 677.2 348.9 677.2 349.4C677.1 350 676.9 350.5 676.5 350.9C673.8 355.3 673.9 360.7 674.2 365.9C674.5 371 674.9 376.4 672.6 381C672 382.3 671.2 383.4 670.6 384.7C669.2 387.6 668.7 396.7 669.5 399.8L771.1 402.7C768.9 396.7 778.6 323.6 778.6 323.6Z" fill="#F5841F"/>
<path d="M657.9 333.1C657.7 335.1 657.7 337 657.8 339L659.3 366.9C659.4 369.5 659.6 372.2 659.8 374.8C660.1 379.9 660.7 384.9 661.3 390C661.3 391.5 662.3 392.7 663.4 392.6C669.8 394.4 676.4 394.3 683 393.8C693 393.1 718.5 391.6 720.1 388.9C721.7 386.2 720.8 381.8 718.7 379.6C716.6 377.4 683 372.1 683 372.1C683.3 368.6 684.3 365.3 685.3 362C687 356.1 688.6 350.1 688.6 343.8C688.6 337.5 686.9 330.9 683 327.3C679.8 324.3 675.7 323.8 671.9 323.9C669.1 324 664.2 323.1 661.7 324.6C659.4 326 658.2 330.5 657.9 333.1Z" fill="#9F616A"/>
<path d="M778.8 395.7C780.5 395.1 782.3 395.3 784.2 395.5C790 396.3 795.9 397.1 801.3 399.4C803.8 400.5 806.2 401.9 808 404.1C809.5 406 810.4 408.4 811.2 410.7L813.1 416C813.9 418 814.5 420.1 814.8 422.2C815.4 428.6 811 434.6 805.6 437.9C800.1 441.2 793.7 442.4 787.4 443.6C781.1 444.8 774.8 446.2 768.5 447.7C765.6 448.5 762.6 449 759.6 449.4C752.9 450.2 745.9 449 739.5 451.3C737 452.2 734.5 453.5 731.9 454.1C730.2 454.5 728.4 454.7 726.6 454.9L714.5 456.3C712 456.6 709.6 456.8 707.1 456.9C701.8 456.9 696.6 455.7 691.5 454.4C691 454.3 690.4 454.1 690 453.8C689.2 453.2 689 452 688.9 451C688.4 446.5 687.9 441.9 687.5 437.4C687.4 435.9 687.3 434.3 688.1 433.1C689.1 431.6 691.1 431.1 692.9 430.8C700.5 429.5 708.3 429 716 429.2C718.9 426.3 723.8 426.2 727.7 424.6C729.1 423.9 730.5 423.2 731.8 422.4C738.7 418.4 746.4 415.9 754.4 415.3C756 415.3 757.5 415 759 414.6C762 413.7 764.7 411.1 767.8 411.8C768.2 410.8 768.4 409.3 769.3 408.6C769.7 408.2 770.3 408 770.7 407.6C771.5 406.7 771.6 405.4 771.5 404.2C771.4 403 771.1 401.8 771.4 400.6C771.5 400.2 771.7 399.7 772 399.3C773.4 396.8 775.7 395.5 778.8 395.7Z" fill="#2F2E41"/>
<path d="M662.7 305.9C662.1 306.4 661.6 307 661.3 307.7C656.3 316.9 653.3 326.8 652.5 336.9C652.5 337.4 652.4 337.9 652.1 338.3C651.8 338.6 651.5 338.9 651.2 339.1C650 340.3 650.2 342 651.6 343C651.7 343 651.7 343.1 651.8 343.1C652.8 341.5 655.3 341 657.5 340.9C667.9 340.2 678.1 344.2 688.6 343.9C687.9 341.8 686.8 339.8 686.2 337.7C683.5 328.3 690.2 318.2 686.1 309.1C685.3 307.3 683.9 305.5 681.8 304.7C680.9 304.4 680 304.2 679 304.1C676.4 303.7 671.1 302 668.5 302.7C667.6 302.9 667.2 303.7 666.4 304.1C665.2 304.8 663.6 305.1 662.7 305.9Z" fill="#F5841F"/>
<path d="M778.7 342.2C776.1 341.1 771.3 341.8 768.5 341.7C764.6 341.6 760.6 342 757.4 344.2C753.5 346.9 751.8 351.8 751.8 356.6C751.8 361.4 753.4 365.8 755.1 370.2C756 372.7 757 375.1 757.4 377.7C757.4 377.7 723.7 381.7 721.7 383.3C719.7 384.9 718.8 388.2 720.3 390.2C721.8 392.2 770.5 394.3 776.9 392.9C778 392.9 778.9 392 779 390.9C779.6 387.1 780.2 383.3 780.5 379.5C780.7 377.5 780.8 375.6 781 373.6L782.5 352.7C782.7 351.2 782.6 349.7 782.4 348.3C781.9 346.5 780.7 343.1 778.7 342.2Z" fill="#9F616A"/>
<path d="M770.7 301.1C770.1 300.6 769.8 299.7 769 299.4C766.9 298.6 762.6 300.6 760.5 301.1C759.7 301.2 759 301.5 758.2 301.8C756.5 302.8 755.3 304.9 754.7 307.1C751.4 318 756.8 330.4 754.6 341.8C754.1 344.4 753.2 346.8 752.6 349.3C761.1 349.7 769.5 344.9 778 345.7C779.8 345.9 781.8 346.5 782.6 348.4L782.7 348.3C783.9 347.1 784 344.9 783 343.5C782.7 343.2 782.5 342.9 782.3 342.5C782.1 342 782 341.4 782 340.8C781.4 328.6 779 316.6 774.9 305.3C774.7 304.5 774.3 303.7 773.8 303.1C773 302.1 771.7 301.9 770.7 301.1Z" fill="#F5841F"/>
<path d="M785 446.9L783.5 458L739.8 457.6L742 441.2L785 446.9Z" fill="#9F616A"/>
<path d="M796.1 445.5L791.3 481.4L790.8 481.3C783.1 480.3 777.6 473.2 778.7 465.5L781.6 443.6L796.1 445.5Z" fill="#2F2E41"/>
<path d="M682.2 401.4C682.2 401.9 681.4 401.4 681.3 400.9C680.7 396.8 677.5 393.4 673.7 391.8C669.9 390.2 665.6 390.1 661.5 390.5C655.3 391.1 648.3 393.5 646.1 399.3C645.6 400.7 640.5 412.7 641 415.4C642.3 422.6 647.3 428.8 653.3 433.1C659.3 437.4 666.3 440 673.3 442.3C691.8 448.4 710.8 452.9 730 455.9C733.1 456.4 736.3 456.8 739.3 457.8C742 458.7 744.5 460 747.1 461.1C753.2 463.5 759.7 464.4 766.2 465.3C767.3 465.4 768.6 465.5 769.4 464.8C770.5 463.8 770.1 462.1 769.8 460.7C768.7 455.4 769.6 449.8 772.4 445.1C773.5 443.3 774.9 441.4 774.7 439.3C774.5 436.8 772 435.1 769.6 434.7C767.2 434.3 764.7 434.9 762.2 435.2C761.4 435.4 760.5 435.3 759.7 435C759.3 434.8 759 434.5 758.7 434.1C755.2 430.8 750 430 745.8 432.3C744.9 432.8 743.5 431.7 742.6 431.3L731.9 426.5C719.7 421 707.4 415.4 694.4 411.9C693.4 411.7 692.4 411.3 691.5 410.7C690.9 410.2 690.4 409.5 689.8 408.9C688.5 407.7 686.7 407.2 685.2 406.3C683.6 405.2 681.8 403.1 682.2 401.4Z" fill="#2F2E41"/>
<path d="M709.8 394.1C713.997 394.1 717.4 390.697 717.4 386.5C717.4 382.303 713.997 378.9 709.8 378.9C705.603 378.9 702.2 382.303 702.2 386.5C702.2 390.697 705.603 394.1 709.8 394.1Z" fill="#FBBEBE"/>
<path d="M726.6 394.1C730.797 394.1 734.2 390.697 734.2 386.5C734.2 382.303 730.797 378.9 726.6 378.9C722.403 378.9 719 382.303 719 386.5C719 390.697 722.403 394.1 726.6 394.1Z" fill="#FBBEBE"/>
<path d="M773.4 403.6H669.1C666.6 403.6 664.5 401.5 664.5 399V335.7C664.5 333.2 666.6 331.1 669.1 331.1H773.4C775.9 331.1 778 333.2 778 335.7V399C778 401.5 776 403.6 773.4 403.6Z" fill="white"/>
<path d="M744.5 389.3C744 389 743.4 388.7 742.9 388.5C742.5 388.3 742.2 388.1 741.9 387.9C741.4 387.5 741.5 386.7 742 386.4C742.8 385.9 744 386.2 744.1 387.2H745.2C745.1 386.5 744.9 385.9 744.4 385.6C743.9 385.3 743.4 385.1 742.8 385.1C739.8 385.1 739.5 388.2 741.1 389.1C741.3 389.2 742.9 390 743.5 390.3C744.1 390.6 744.2 391.2 744 391.7C743.8 392.1 743.2 392.4 742.6 392.4C742 392.4 741.5 392 741.3 391.5C741.3 391.4 741.3 391.3 741.3 391.2H740.1C740.1 392.1 740.3 392.5 740.9 393C741.4 393.4 742.1 393.6 742.7 393.6C744.4 393.6 745.3 392.7 745.5 391.7C745.6 390.7 745.4 389.9 744.5 389.3Z" fill="#161616"/>
<path d="M690.5 385.2H689.4L688.4 388.4L687.4 385.2H685.5V393.4H686.7V387.1L687.7 390.3L687.8 390.5H688.8L688.9 390.3L689.9 387.1V393.4H691.1V385.2H690.5Z" fill="#161616"/>
<path d="M725.4 385.2L724.3 388.5L723.3 385.3H721.4V393.5H722.6V387.3L723.6 390.5L723.7 390.7H724.7L724.8 390.5L725.8 387.3V393.5H727V385.3H725.4V385.2Z" fill="#161616"/>
<path d="M709.4 385.2H703.5V386.2H705.8V393.4H707V386.2H709.3L709.4 385.2Z" fill="#161616"/>
<path d="M716.7 393.5H717.8L715.5 385.2H713.9L711.6 393.5H712.7L713.4 391.1H715.9L716.7 393.5C716.7 393.5 716.7 393.4 716.7 393.5ZM713.8 389.8L714.7 386.6L715.6 389.8H713.8C713.8 389.9 713.8 389.9 713.8 389.8C713.8 389.9 713.8 389.9 713.8 389.8C713.8 389.9 713.8 389.9 713.8 389.8Z" fill="#161616"/>
<path d="M736 393.5H737.1L734.8 385.2H733.2L730.9 393.5H732L732.7 391.1H735.2L736 393.5C736 393.5 736 393.4 736 393.5ZM733.1 389.8L734 386.6L734.9 389.8H733.1C733.1 389.9 733.1 389.9 733.1 389.8C733.1 389.9 733.1 389.9 733.1 389.8C733.1 389.9 733.1 389.9 733.1 389.8Z" fill="#161616"/>
<path d="M696.3 392.3V389.7H699.6V388.7H696.3V386.5H700.1V385.5H695V393.7H700.3V392.6L696.3 392.3Z" fill="#161616"/>
<path d="M755.8 393.4L751.5 389.1L755.4 385.3H753.8L750.5 388.6V385.4H749.3V393.6H750.5V390L754.2 393.7L755.8 393.4C755.8 393.5 755.8 393.5 755.8 393.4C755.9 393.4 755.8 393.5 755.8 393.4C755.9 393.4 755.9 393.4 755.8 393.4C755.9 393.4 755.9 393.4 755.8 393.4Z" fill="#161616"/>
<path d="M733.9 347.1C734.9 346.7 735.5 345.7 735.1 344.8C734.7 343.9 733.5 343.5 732.5 343.9C731.5 344.3 730.9 345.3 731.3 346.2C731.7 347.1 732.9 347.5 733.9 347.1Z" fill="#6C63FF"/>
<path d="M739 338.1L723 349.5L726 342.8L739 338.1Z" fill="#E17726" stroke="#E17726" stroke-linecap="round" stroke-linejoin="round"/>
<path d="M702 338.1L717.9 349.6L715.1 342.8L702 338.1Z" fill="#E27625" stroke="#E27625" stroke-linecap="round" stroke-linejoin="round"/>
<path d="M733.2 364.5L728.9 370.8L738 373.2L740.6 364.7L733.2 364.5Z" fill="#E27625" stroke="#E27625" stroke-linecap="round" stroke-linejoin="round"/>
<path d="M700.3 364.6L702.9 373.1L712 370.7L707.8 364.4L700.3 364.6Z" fill="#E27625" stroke="#E27625" stroke-linecap="round" stroke-linejoin="round"/>
<path d="M711.6 353.9L709.1 357.6L718.1 358L717.8 348.7L711.6 353.9Z" fill="#E27625" stroke="#E27625" stroke-linecap="round" stroke-linejoin="round"/>
<path d="M729.5 353.9L723.2 348.5L723 358L732 357.6L729.5 353.9Z" fill="#E27625" stroke="#E27625" stroke-linecap="round" stroke-linejoin="round"/>
<path d="M712.1 370.8L717.6 368.3L712.9 364.8L712.1 370.8Z" fill="#E27625" stroke="#E27625" stroke-linecap="round" stroke-linejoin="round"/>
<path d="M723.5 368.2L729 370.7L728.2 364.6L723.5 368.2Z" fill="#E27625" stroke="#E27625" stroke-linecap="round" stroke-linejoin="round"/>
<path d="M729 370.8L723.5 368.3L723.9 371.7V373.1L729 370.8Z" fill="#D5BFB2" stroke="#D5BFB2" stroke-linecap="round" stroke-linejoin="round"/>
<path d="M712.1 370.8L717.2 373.1V371.7L717.6 368.3L712.1 370.8Z" fill="#D5BFB2" stroke="#D5BFB2" stroke-linecap="round" stroke-linejoin="round"/>
<path d="M717.2 362.5L712.7 361.2L715.9 359.8L717.2 362.5Z" fill="#233447" stroke="#233447" stroke-linecap="round" stroke-linejoin="round"/>
<path d="M723.8 362.5L725.1 359.8L728.3 361.2L723.8 362.5Z" fill="#233447" stroke="#233447" stroke-linecap="round" stroke-linejoin="round"/>
<path d="M712.1 370.8L712.9 364.5L707.9 364.6L712.1 370.8Z" fill="#CC6228" stroke="#CC6228" stroke-linecap="round" stroke-linejoin="round"/>
<path d="M728.2 364.5L729 370.8L733.3 364.7L728.2 364.5Z" fill="#CC6228" stroke="#CC6228" stroke-linecap="round" stroke-linejoin="round"/>
<path d="M732 357.6L723 358L723.8 362.5L725.1 359.8L728.3 361.2L732 357.6Z" fill="#CC6228" stroke="#CC6228" stroke-linecap="round" stroke-linejoin="round"/>
<path d="M712.7 361.2L715.9 359.8L717.2 362.5L718 358L709 357.6L712.7 361.2Z" fill="#CC6228" stroke="#CC6228" stroke-linecap="round" stroke-linejoin="round"/>
<path d="M709 357.6L712.8 364.7L712.7 361.2L709 357.6Z" fill="#E27525" stroke="#E27525" stroke-linecap="round" stroke-linejoin="round"/>
<path d="M728.4 361.2L728.3 364.7L732.1 357.6L728.4 361.2Z" fill="#E27525" stroke="#E27525" stroke-linecap="round" stroke-linejoin="round"/>
<path d="M718.1 358L717.3 362.5L718.4 367.8L718.6 360.9L718.1 358Z" fill="#E27525" stroke="#E27525" stroke-linecap="round" stroke-linejoin="round"/>
<path d="M723 358L722.6 360.8L722.8 367.7L723.9 362.4L723 358Z" fill="#E27525" stroke="#E27525" stroke-linecap="round" stroke-linejoin="round"/>
<path d="M723.8 362.5L722.7 367.8L723.5 368.3L728.2 364.8L728.3 361.3L723.8 362.5Z" fill="#F5841F" stroke="#F5841F" stroke-linecap="round" stroke-linejoin="round"/>
<path d="M712.7 361.2L712.8 364.7L717.5 368.2L718.3 367.7L717.2 362.4L712.7 361.2Z" fill="#F5841F" stroke="#F5841F" stroke-linecap="round" stroke-linejoin="round"/>
<path d="M723.9 373.1V371.7L723.5 371.4H717.4L717 371.7V373.1L711.9 370.8L713.7 372.2L717.3 374.6H723.5L727.1 372.2L728.9 370.8L723.9 373.1Z" fill="#C0AC9D" stroke="#C0AC9D" stroke-linecap="round" stroke-linejoin="round"/>
<path d="M723.5 368.2L722.7 367.7H718.2L717.4 368.2L717 371.6L717.4 371.3H723.5L723.9 371.6L723.5 368.2Z" fill="#161616" stroke="#161616" stroke-linecap="round" stroke-linejoin="round"/>
<path d="M739.7 350.2L741.1 343.9L739.1 338.1L723.6 349.1L729.6 353.9L738 356.3L739.9 354.2L739.1 353.6L740.4 352.5L739.4 351.8L740.7 350.9L739.7 350.2Z" fill="#763E1A" stroke="#763E1A" stroke-linecap="round" stroke-linejoin="round"/>
<path d="M700 343.9L701.4 350.2L700.5 350.8L701.8 351.7L700.8 352.4L702.1 353.5L701.3 354.1L703.2 356.2L711.6 353.8L717.6 349L702.1 338L700 343.9Z" fill="#763E1A" stroke="#763E1A" stroke-linecap="round" stroke-linejoin="round"/>
<path d="M737.9 356.3L729.5 353.9L732 357.6L728.2 364.7L733.2 364.6H740.7L737.9 356.3Z" fill="#F5841F" stroke="#F5841F" stroke-linecap="round" stroke-linejoin="round"/>
<path d="M711.6 353.9L703.2 356.3L700.4 364.7H707.9L712.9 364.8L709.1 357.7L711.6 353.9Z" fill="#F5841F" stroke="#F5841F" stroke-linecap="round" stroke-linejoin="round"/>
<path d="M723 358L723.5 349.1L725.9 342.8H715L717.4 349.1L717.9 358L718.1 360.8V367.7H722.6V360.8L723 358Z" fill="#F5841F" stroke="#F5841F" stroke-linecap="round" stroke-linejoin="round"/>
<path d="M857.7 417C852 417 847.5 421.6 847.5 427.2C847.5 432.8 852.1 437.4 857.7 437.4C863.4 437.4 867.9 432.8 867.9 427.2C867.9 421.6 863.4 417 857.7 417ZM857.7 433.5C854.2 433.5 851.4 430.7 851.4 427.2C851.4 423.7 854.2 420.9 857.7 420.9C861.2 420.9 864 423.7 864 427.2C864 430.7 861.2 433.5 857.7 433.5Z" fill="#969595"/>
<path d="M818.3 409.1H857.7V448.1C857.7 450.9 855.4 453.2 852.6 453.2H823.5C820.7 453.2 818.4 450.9 818.4 448.1L818.3 409.1Z" fill="#969595"/>
<path d="M364.7 189.6C364.7 189.6 251 209.1 168.5 330.8" stroke="#3F3D56" stroke-width="2" stroke-miterlimit="10"/>
<path d="M362.2 194.4L361.3 193.5L364.7 189.6L360.2 185.3L360.8 184.4L366.3 189.6L362.2 194.4Z" fill="#3F3D56"/>
<path d="M379.2 114.7V128.6H377V119L372.8 128.5H371.2L366.9 119V128.5H364.6V114.6H367.1L372 125.5L376.9 114.6H379.2V114.7ZM381.5 123C381.5 121.9 381.7 120.9 382.2 120.1C382.7 119.2 383.3 118.6 384.1 118.1C384.9 117.6 385.8 117.4 386.7 117.4C387.6 117.4 388.3 117.6 389 117.9C389.7 118.2 390.2 118.7 390.6 119.2V117.6H392.9V128.6H390.6V127C390.2 127.5 389.7 128 389 128.3C388.3 128.6 387.6 128.8 386.7 128.8C385.8 128.8 384.9 128.6 384.1 128.1C383.3 127.6 382.7 126.9 382.2 126.1C381.7 125.1 381.5 124.1 381.5 123ZM390.5 123C390.5 122.2 390.3 121.6 390 121C389.7 120.4 389.3 120 388.8 119.7C388.3 119.4 387.7 119.3 387.2 119.3C386.6 119.3 386.1 119.4 385.6 119.7C385.1 120 384.7 120.4 384.4 121C384.1 121.5 383.9 122.2 383.9 123C383.9 123.8 384.1 124.4 384.4 125C384.7 125.6 385.1 126 385.6 126.3C386.1 126.6 386.7 126.7 387.2 126.7C387.8 126.7 388.3 126.6 388.8 126.3C389.3 126 389.7 125.6 390 125C390.3 124.5 390.5 123.8 390.5 123ZM398.5 119.4V125.5C398.5 125.9 398.6 126.2 398.8 126.4C399 126.6 399.3 126.7 399.8 126.7H401.2V128.6H399.4C398.4 128.6 397.6 128.4 397 127.9C396.5 127.4 396.2 126.6 396.2 125.6V119.5H394.9V117.6H396.2V114.9H398.5V117.6H401.2V119.5H398.5V119.4ZM404.4 116.1C404 116.1 403.6 116 403.4 115.7C403.2 115.4 403 115.1 403 114.7C403 114.3 403.1 113.9 403.4 113.7C403.7 113.4 404 113.3 404.4 113.3C404.8 113.3 405.1 113.4 405.4 113.7C405.7 114 405.8 114.3 405.8 114.7C405.8 115.1 405.7 115.5 405.4 115.7C405.1 115.9 404.8 116.1 404.4 116.1ZM405.5 117.5V128.5H403.2V117.5H405.5ZM407.7 123C407.7 121.9 407.9 120.9 408.4 120C408.9 119.1 409.5 118.5 410.3 118C411.1 117.5 412 117.3 413.1 117.3C414.4 117.3 415.5 117.6 416.4 118.3C417.3 118.9 417.9 119.8 418.2 121H415.7C415.5 120.5 415.2 120 414.7 119.7C414.2 119.4 413.7 119.2 413 119.2C412.1 119.2 411.3 119.5 410.8 120.2C410.3 120.9 410 121.8 410 123C410 124.2 410.3 125.1 410.8 125.8C411.4 126.5 412.1 126.8 413 126.8C414.3 126.8 415.2 126.2 415.6 125.1H418.1C417.8 126.2 417.2 127.1 416.3 127.8C415.4 128.5 414.3 128.8 413 128.8C411.9 128.8 411 128.6 410.2 128.1C409.4 127.6 408.7 127 408.3 126.1C408 125.2 407.7 124.2 407.7 123ZM431.3 117.4C432.2 117.4 432.9 117.6 433.6 117.9C434.3 118.3 434.8 118.8 435.2 119.5C435.6 120.2 435.8 121.1 435.8 122.1V128.6H433.5V122.4C433.5 121.4 433.3 120.7 432.8 120.1C432.3 119.6 431.6 119.3 430.8 119.3C429.9 119.3 429.3 119.6 428.8 120.1C428.3 120.6 428.1 121.4 428.1 122.4V128.6H425.8V117.6H428.1V118.9C428.5 118.4 428.9 118.1 429.5 117.8C430 117.5 430.6 117.4 431.3 117.4ZM448.8 122.8C448.8 123.2 448.8 123.6 448.7 123.9H440.3C440.4 124.8 440.7 125.5 441.3 126C441.9 126.5 442.6 126.8 443.5 126.8C444.7 126.8 445.6 126.3 446.1 125.3H448.6C448.3 126.3 447.7 127.1 446.8 127.8C445.9 128.4 444.9 128.8 443.6 128.8C442.5 128.8 441.6 128.6 440.8 128.1C440 127.6 439.3 127 438.8 126.1C438.3 125.2 438.1 124.2 438.1 123.1C438.1 122 438.3 121 438.8 120.1C439.3 119.2 439.9 118.6 440.7 118.1C441.5 117.6 442.5 117.4 443.6 117.4C444.6 117.4 445.6 117.6 446.4 118.1C447.2 118.6 447.8 119.2 448.3 120C448.6 120.8 448.8 121.7 448.8 122.8ZM446.4 122.1C446.4 121.3 446.1 120.6 445.5 120.1C444.9 119.6 444.2 119.3 443.3 119.3C442.5 119.3 441.8 119.6 441.3 120.1C440.7 120.6 440.4 121.3 440.3 122.1H446.4ZM453.7 119.4V125.5C453.7 125.9 453.8 126.2 454 126.4C454.2 126.6 454.5 126.7 455 126.7H456.4V128.6H454.6C453.6 128.6 452.8 128.4 452.2 127.9C451.7 127.4 451.4 126.6 451.4 125.6V119.5H450.1V117.6H451.4V114.9H453.7V117.6H456.4V119.5H453.7V119.4ZM473.3 117.5L469.9 128.5H467.5L465.3 120.4L463.1 128.5H460.7L457.3 117.5H459.6L461.9 126.4L464.2 117.5H466.6L468.8 126.3L471.1 117.5H473.3ZM479.8 128.7C478.8 128.7 477.8 128.5 477 128C476.2 127.5 475.5 126.9 475 126C474.5 125.1 474.3 124.1 474.3 123C474.3 121.9 474.5 120.9 475 120C475.5 119.1 476.2 118.5 477 118C477.9 117.5 478.8 117.3 479.9 117.3C481 117.3 481.9 117.5 482.8 118C483.7 118.5 484.3 119.1 484.8 120C485.3 120.9 485.5 121.9 485.5 123C485.5 124.1 485.2 125.1 484.7 126C484.2 126.9 483.5 127.5 482.6 128C481.8 128.5 480.8 128.7 479.8 128.7ZM479.8 126.8C480.4 126.8 480.9 126.7 481.4 126.4C481.9 126.1 482.3 125.7 482.7 125.1C483 124.5 483.2 123.9 483.2 123.1C483.2 122.3 483 121.6 482.7 121.1C482.4 120.5 482 120.1 481.5 119.8C481 119.5 480.4 119.4 479.9 119.4C479.3 119.4 478.8 119.5 478.3 119.8C477.8 120.1 477.4 120.5 477.1 121.1C476.8 121.6 476.7 122.3 476.7 123.1C476.7 124.3 477 125.2 477.6 125.9C478.1 126.4 478.8 126.8 479.8 126.8ZM490 119.1C490.3 118.5 490.8 118.1 491.3 117.8C491.9 117.5 492.5 117.3 493.3 117.3V119.7H492.7C491.8 119.7 491.1 119.9 490.7 120.4C490.2 120.9 490 121.6 490 122.8V128.6H487.7V117.6H490V119.1ZM499.8 123.1L504.9 128.6H501.8L497.7 123.9V128.6H495.4V113.8H497.7V122.4L501.7 117.6H504.9L499.8 123.1Z" fill="black"/>
<path d="M434.7 245.7C463.253 245.7 486.4 222.553 486.4 194C486.4 165.447 463.253 142.3 434.7 142.3C406.147 142.3 383 165.447 383 194C383 222.553 406.147 245.7 434.7 245.7Z" fill="#8247E5"/>
<path d="M451.4 182.9C450.2 182.2 448.7 182.2 447.3 182.9L437.8 188.5L431.4 192.1L422.1 197.7C420.9 198.4 419.4 198.4 418 197.7L410.7 193.3C409.5 192.6 408.7 191.3 408.7 189.7V181.2C408.7 179.8 409.4 178.5 410.7 177.6L418 173.4C419.2 172.7 420.7 172.7 422.1 173.4L429.4 177.8C430.6 178.5 431.4 179.8 431.4 181.4V187L437.8 183.3V177.5C437.8 176.1 437.1 174.8 435.8 173.9L422.2 165.9C421 165.2 419.5 165.2 418.1 165.9L404.2 174C402.8 174.7 402.2 176 402.2 177.4V193.3C402.2 194.7 402.9 196 404.2 196.9L417.9 204.9C419.1 205.6 420.6 205.6 422 204.9L431.3 199.5L437.7 195.8L447 190.4C448.2 189.7 449.7 189.7 451.1 190.4L458.4 194.6C459.6 195.3 460.4 196.6 460.4 198.2V206.7C460.4 208.1 459.7 209.4 458.4 210.3L451.3 214.5C450.1 215.2 448.6 215.2 447.2 214.5L439.9 210.3C438.7 209.6 437.9 208.3 437.9 206.7V201.3L431.5 205V210.6C431.5 212 432.2 213.3 433.5 214.2L447.2 222.2C448.4 222.9 449.9 222.9 451.3 222.2L465 214.2C466.2 213.5 467 212.2 467 210.6V194.5C467 193.1 466.3 191.8 465 190.9L451.4 182.9Z" fill="white"/>
<path d="M506.5 190.2C506.5 190.2 620.2 209.7 702.7 331.4" stroke="#3F3D56" stroke-width="2" stroke-miterlimit="10"/>
<path d="M705.2 326.6L703.9 326.4L702.6 331.4L696.5 330.1L696.1 331.1L703.5 332.7L705.2 326.6Z" fill="#3F3D56"/>
<path d="M200.2 301L207 298.9C207 298.9 231.8 323.1 223.9 329.4C216 335.7 211.5 337.8 209.3 339.9C207 342 195.8 343.1 195.8 343.1L200.2 301Z" fill="#6C63FF"/>
<path d="M157.2 481.4C72.6998 481.4 4.2998 471.2 4.2998 458.5C4.2998 445.9 72.7998 435.6 157.2 435.6C241.6 435.6 310.1 445.8 310.1 458.5C310.1 471.2 241.7 481.4 157.2 481.4Z" fill="#F2F2F2"/>
<path d="M191.2 238.7C191.2 238.7 189.9 242.8 197.3 246.4C204.7 250.1 206.8 263.8 198.2 267.9C189.5 272 186.9 277.2 191.3 280.9C195.6 284.6 203.5 294.3 193 296.7C182.6 299.1 181.3 304 184.3 306C187.3 308 177.4 302.3 177.4 302.3C177.4 302.3 175.7 312 166.5 309.6C157.4 307.2 131.8 260.9 144.8 254.4C157.8 248 191.2 238.7 191.2 238.7Z" fill="#2F2E41"/>
<path d="M175.5 277.8C175.5 277.8 171 292.5 178.9 293.6C183.8 294.3 188.4 296.1 192.4 298.9L177.8 316.8H150.8L133.8 301C133.8 301 156.3 285.2 151.8 275.7C147.3 266.3 175.5 277.8 175.5 277.8Z" fill="#FFB9B9"/>
<path opacity="0.1" d="M175.5 277.8C175.5 277.8 171 292.5 178.9 293.6C183.8 294.3 188.4 296.1 192.4 298.9L177.8 316.8H150.8L133.8 301C133.8 301 156.3 285.2 151.8 275.7C147.3 266.3 175.5 277.8 175.5 277.8Z" fill="black"/>
<path d="M168.7 460.9L142.8 469.3L124.8 470.4L125.9 455.7L163 445.4L168.7 460.9Z" fill="#FFB9B9"/>
<path d="M135.5 457.8C135.5 457.8 135.5 472.5 133.2 472.5C130.9 472.5 100.6 469.3 91.5996 472.5C82.5996 475.7 69.0996 464.1 75.7996 457.8C82.5996 451.5 93.5996 442 100.4 444.1C107.3 446.2 135.4 451.5 135.4 451.5V457.8H135.5Z" fill="#575A89"/>
<path d="M218.2 444.1C218.2 444.1 231.7 469.4 222.7 471.5C213.7 473.6 203.6 470.4 202.4 469.4C201.3 468.3 185.5 464.1 183.3 466.2C181 468.3 181 457.8 181 457.8L218.2 444.1Z" fill="#575A89"/>
<path d="M206.999 409.4C206.999 409.4 228.399 436.8 212.599 444.1C196.799 451.5 121.399 451.5 115.799 444.1C110.199 436.7 107.899 413.6 115.799 411.5C123.699 409.4 206.999 409.4 206.999 409.4Z" fill="#2F2E41"/>
<path opacity="0.2" d="M206.999 409.4C206.999 409.4 228.399 436.8 212.599 444.1C196.799 451.5 121.399 451.5 115.799 444.1C110.199 436.7 107.899 413.6 115.799 411.5C123.699 409.4 206.999 409.4 206.999 409.4Z" fill="black"/>
<path d="M166.5 285.2C152.2 285.2 140.6 274.4 140.6 261C140.6 247.6 152.2 236.8 166.5 236.8C180.8 236.8 192.4 247.6 192.4 261C192.3 274.4 180.7 285.2 166.5 285.2Z" fill="#FFB9B9"/>
<path d="M207 298.9L184.5 294.7C184.5 294.7 178.9 311.5 160.9 308.4C142.9 305.2 138.4 294.7 138.4 294.7C138.4 294.7 124.9 300 123.8 300C122.7 300 108 305.3 108 308.4C108 311.6 124.9 343.1 124.9 343.1L122.6 399.9L205.9 397.8L200.3 342L207 298.9Z" fill="#6C63FF"/>
<path d="M219.4 326.2C219.4 326.2 226.2 382 221.7 386.2C217.2 390.4 199.2 402 199.2 402V389.4L208.2 373.6L199.2 336.8L219.4 326.2Z" fill="#FFB9B9"/>
<path d="M102.899 324.7C102.899 324.7 106.799 382 106.799 384.1C106.799 386.2 116.899 393.6 120.299 393.6C123.699 393.6 125.899 388.3 125.899 388.3L117.999 379.9L123.599 336.8L102.899 324.7Z" fill="#FFB9B9"/>
<path d="M113.5 405.2C113.5 405.2 62.7996 378.9 61.6996 405.2C60.5996 431.5 87.6996 442 87.6996 442C87.6996 442 157.5 461.6 160.3 454.4C163.1 447.3 168.7 435.7 164.2 434.6C159.7 433.5 154.1 431.4 151.8 433.5C149.5 435.6 121.4 417.7 121.4 417.7L113.5 405.2Z" fill="#2F2E41"/>
<path opacity="0.2" d="M89.8994 402C89.8994 402 99.9994 406.2 103.399 409.4C106.799 412.6 121.399 417.8 121.399 417.8" stroke="black" stroke-width="2" stroke-miterlimit="10"/>
<path d="M118.099 306.3L107.999 308.4C107.999 308.4 100.099 324.2 97.8995 326.3C95.5995 328.4 101.299 327.4 104.699 331.6C108.099 335.8 111.499 343.2 118.199 343.2C124.999 343.2 133.999 332.7 133.999 332.7L118.099 306.3Z" fill="#6C63FF"/>
<path d="M204.7 414.6C204.7 414.6 247.5 386.2 262.1 407.2C276.7 428.2 199.1 456.7 187.8 460.9C176.5 465.1 166.4 469.3 166.4 469.3C166.4 469.3 156.3 446.2 156.3 441.9C156.3 437.7 164.2 437.7 166.4 437.7C168.6 437.7 178.8 435.6 181 432.4C183.3 429.4 204.7 414.6 204.7 414.6Z" fill="#2F2E41"/>
<path d="M212.5 367.7L211.6 412.2C211.6 413.7 210.9 415.1 209.8 416.1C208.7 417.1 207.2 417.7 205.6 417.7L116.9 416.8C115.4 416.8 113.9 416.2 112.8 415.3C111.7 414.3 111.1 413 111 411.6L108.3 368C108.3 367.2 108.4 366.5 108.7 365.8C109 365.1 109.4 364.4 110 363.9C110.6 363.3 111.2 362.9 112 362.6C112.7 362.3 113.5 362.1 114.4 362.1H206.7C207.5 362.1 208.3 362.2 209 362.5C209.7 362.8 210.4 363.2 210.9 363.7C211.5 364.2 211.9 364.9 212.2 365.5C212.4 366.2 212.5 367 212.5 367.7Z" fill="white"/>
<path d="M155.1 230.6C155.1 230.6 153.7 235.1 161.8 239.1C170 243.1 172.4 258.4 162.8 262.9C153.2 267.4 150.3 273.2 155.1 277.3C159.9 281.3 168.6 292.1 157 294.8C145.5 297.5 144 302.9 147.4 305.1C150.8 307.3 139.7 301.1 139.7 301.1C139.7 301.1 137.8 311.9 127.7 309.2C117.6 306.5 107.5 257.5 118.8 244.9C129.2 233.2 155.1 230.6 155.1 230.6Z" fill="#2F2E41"/>
<path d="M168.099 226C168.099 219.4 146.999 224.1 137.999 233.3C131.699 239.7 122.199 249.2 130.199 256C138.199 262.8 116.499 271.6 110.799 274.3C104.999 277 93.5995 285.2 103.899 290.7C114.199 296.2 114.099 301.8 110.199 303.1C106.299 304.4 118.799 301.1 118.799 301.1C118.799 301.1 117.499 312 127.999 311.9C138.499 311.8 168.599 257.9 161.399 242.9C154.699 229 168.099 226 168.099 226Z" fill="#2F2E41"/>
<path d="M163.599 224.5C191.799 222.9 194.599 242.7 194.599 242.7C194.399 254.2 174.899 248.6 169.499 250.3C162.999 245.9 150.399 237.6 141.399 231.7C147.899 227.4 155.599 224.9 163.599 224.5Z" fill="#2F2E41"/>
<path d="M172.3 379.7C171.4 379.2 170.4 379.2 169.4 379.7L162.6 384L158 386.7L151.3 391C150.4 391.5 149.4 391.5 148.4 391L143.2 387.6C142.3 387.1 141.7 386 141.7 384.9V378.4C141.7 377.4 142.2 376.3 143.2 375.7L148.4 372.4C149.3 371.9 150.3 371.9 151.3 372.4L156.5 375.8C157.4 376.3 158 377.4 158 378.5V382.8L162.6 379.9V375.5C162.6 374.5 162.1 373.4 161.1 372.8L151.4 366.7C150.5 366.2 149.5 366.2 148.5 366.7L138.5 373C137.5 373.5 137 374.6 137 375.6V387.9C137 388.9 137.5 390 138.5 390.6L148.4 396.7C149.3 397.2 150.3 397.2 151.3 396.7L158 392.5L162.6 389.6L169.3 385.4C170.2 384.9 171.2 384.9 172.2 385.4L177.4 388.7C178.3 389.2 178.9 390.3 178.9 391.4V397.9C178.9 398.9 178.4 400 177.4 400.6L172.3 403.9C171.4 404.4 170.4 404.4 169.4 403.9L164.2 400.6C163.3 400.1 162.7 399 162.7 397.9V393.7L158.1 396.6V400.9C158.1 401.9 158.6 403 159.6 403.6L169.5 409.7C170.4 410.2 171.4 410.2 172.4 409.7L182.3 403.6C183.2 403.1 183.8 402 183.8 400.9V388.5C183.8 387.5 183.3 386.4 182.3 385.8L172.3 379.7Z" fill="#8247E5"/>
</svg>
