<svg width="308" height="308" viewBox="0 0 308 308" fill="none" xmlns="http://www.w3.org/2000/svg">
<path d="M45.6726 295.036L51.6479 297.014L60.9356 270.661L52.1168 267.741L45.6726 295.036Z" fill="#FFB8B8"/>
<path d="M61.6211 307.401L42.8409 301.183L44.8696 292.59L57.12 296.646C58.8518 297.219 60.3203 298.584 61.2025 300.439C62.0847 302.295 62.3083 304.49 61.8241 306.541L61.6211 307.401Z" fill="#2F2E41"/>
<path d="M116.951 300.577L123.156 300.577L126.107 272.235L116.949 272.235L116.951 300.577Z" fill="#FFB8B8"/>
<path d="M135.123 307.398L115.622 307.401L115.622 298.478L128.342 298.477C129.232 298.477 130.114 298.684 130.937 299.088C131.759 299.491 132.507 300.082 133.136 300.828C133.766 301.574 134.266 302.459 134.606 303.433C134.947 304.407 135.123 305.451 135.123 306.505L135.123 307.398Z" fill="#2F2E41"/>
<path d="M70.844 182.913L56.5627 224.344L114.878 239.859L115.622 216.679L89.142 183.278L70.844 182.913Z" fill="#B3B3B3"/>
<path d="M102.484 118.37C108.944 114.188 111.318 104.597 107.786 96.9467C104.255 89.2966 96.1557 86.4851 89.6958 90.667C83.236 94.8489 80.8619 104.441 84.3932 112.091C87.9245 119.741 96.0239 122.552 102.484 118.37Z" fill="#FFB8B8"/>
<path d="M105.615 180.62L79.2188 167.824L76.8686 149.473C76.1766 144.109 77.2573 138.635 79.8861 134.191C82.5148 129.746 86.4893 126.673 90.9826 125.61L94.474 124.78C97.3421 124.1 100.307 124.259 103.111 125.244C105.916 126.229 108.475 128.01 110.566 130.432C112.614 132.75 114.146 135.632 115.025 138.822C115.903 142.012 116.101 145.41 115.6 148.712C115.206 151.542 114.237 154.216 112.776 156.503C104.484 169.345 105.548 180.02 105.56 180.126L105.615 180.62Z" fill="#6C63FF"/>
<path d="M116.363 228.478L103.134 203.564L107.3 158.243L101.545 124.348L101.851 124.357C105.199 124.455 108.386 126.074 110.754 128.879C113.121 131.684 114.487 135.459 114.568 139.424L120.167 172.638L116.363 228.478Z" fill="#2F2E41"/>
<path d="M116.665 295.219C116.107 295.219 115.567 294.99 115.136 294.571C114.704 294.153 114.409 293.57 114.299 292.923L108.503 258.794C107.445 252.542 105.451 246.563 102.617 241.141L86.2642 209.813C86.1828 209.658 86.0667 209.531 85.9286 209.449C85.7906 209.366 85.6359 209.33 85.4817 209.344C85.3274 209.359 85.1796 209.424 85.0544 209.531C84.9292 209.639 84.8315 209.785 84.772 209.955L57.8862 286.441C57.6701 287.053 57.2817 287.556 56.7872 287.867C56.2927 288.177 55.7226 288.275 55.174 288.144L47.9918 286.41C47.3765 286.265 46.8335 285.84 46.4788 285.227C46.1241 284.614 45.9857 283.862 46.0931 283.13L51.9522 242.238C53.1474 233.903 55.1839 225.768 58.0179 218.009L77.8607 163.7L107.144 175.089L109.076 199.372L122.606 238.171C123.541 240.85 124.1 243.693 124.261 246.586L126.76 291.426C126.799 292.175 126.59 292.911 126.176 293.479C125.763 294.047 125.178 294.401 124.547 294.465L116.864 295.21C116.797 295.216 116.73 295.219 116.665 295.219Z" fill="#2F2E41"/>
<path d="M63.2454 239.589L53.9619 229.154L71.5065 149.035C72.6196 143.997 74.7066 139.336 77.6026 135.418C80.4985 131.5 84.1242 128.433 88.1931 126.459L88.5375 126.293L87.6 175.055L63.2454 239.589Z" fill="#2F2E41"/>
<path d="M92.9833 120.248C89.6901 116.873 88.6885 110.575 90.7064 105.933C92.7243 101.29 97.5493 98.7909 101.675 100.251C105.561 101.627 109.978 97.0389 109.505 92.1195C109.031 87.2002 103.864 83.9958 100.346 86.4397C97.6815 85.1733 94.7649 84.8454 91.9468 85.4954C89.1287 86.1454 86.5292 87.7456 84.4608 90.1036C80.3273 94.899 78.7592 102.738 80.6149 109.33C82.4705 115.923 87.6503 120.913 92.9833 120.248Z" fill="#2F2E41"/>
<path d="M81.3225 248.548C81.1598 248.622 80.9905 248.674 80.8178 248.702L59.6231 252.206C59.1103 252.293 58.5879 252.17 58.1417 251.859C57.6955 251.547 57.352 251.065 57.1679 250.492L38.9243 194.274C38.8061 193.91 38.7556 193.52 38.7762 193.131C38.7968 192.742 38.888 192.363 39.0436 192.019C39.1991 191.675 39.4154 191.375 39.6777 191.14C39.94 190.904 40.2422 190.738 40.5635 190.653L40.5636 190.653L60.4951 185.386C60.6489 185.345 60.7976 185.28 60.9375 185.194L80.3236 173.191C80.4734 173.098 80.6315 173.025 80.7949 172.974L102.13 166.238C102.676 166.064 103.257 166.137 103.761 166.441C104.265 166.746 104.656 167.26 104.858 167.886L120.765 216.905C120.905 217.332 120.951 217.794 120.898 218.248C120.845 218.701 120.696 219.132 120.464 219.498L114.963 228.247C114.704 228.659 114.352 228.975 113.947 229.159L101.924 234.631C101.838 234.67 101.755 234.717 101.675 234.771L81.6404 248.369C81.5384 248.438 81.4322 248.498 81.3225 248.548Z" fill="white"/>
<path d="M91.1832 173.732L88.4739 174.588L81.2945 176.856L81.2817 176.859L71.4525 182.946L67.8048 185.205L67.8031 185.206L62.3246 188.597L62.1743 188.637L56.4831 190.14L53.7325 190.869L42.5139 193.833L60.1257 248.104L71.6864 246.194L74.521 245.724L80.5627 244.724L80.6328 244.714L100.047 231.537L111.859 226.161L117.252 217.585L101.921 170.343L91.1832 173.732Z" fill="#E6E6E6"/>
<path d="M104.447 178.126L46.0427 204.707L47.0429 207.789L105.448 181.208L104.447 178.126Z" fill="white"/>
<path d="M107.781 188.399L49.3765 214.98L50.3766 218.062L108.781 191.481L107.781 188.399Z" fill="white"/>
<path d="M114.516 209.152L56.1111 235.733L57.1113 238.815L115.516 212.234L114.516 209.152Z" fill="white"/>
<path d="M91.1831 173.732L108.668 227.613L106.066 228.797L88.4739 174.588L91.1831 173.732Z" fill="white"/>
<path d="M71.4527 182.946L67.8624 194.776L66.6174 198.88L63.7133 208.455L63.091 210.502L62.4683 212.559L61.6483 215.26L55.7624 234.658L54.2322 229.943L59.0313 214.124L60.1171 210.542L60.2763 210.019L61.5604 205.785L63.1804 200.445L64.4254 196.34L67.8033 185.205L67.8047 185.205L71.4527 182.946Z" fill="white"/>
<path opacity="0.1" d="M100.47 231.344L100.047 231.537L80.633 244.714L80.5627 244.724L62.1743 188.637L62.3248 188.597L67.8033 185.206L67.8048 185.205L71.4527 182.946L81.2821 176.859L81.2948 176.856L100.47 231.344Z" fill="black"/>
<path d="M81.4098 248.818C81.2297 248.9 81.0424 248.957 80.8514 248.989L59.6566 252.492C59.0892 252.588 58.5111 252.453 58.0173 252.108C57.5235 251.764 57.1435 251.23 56.9397 250.596L38.6961 194.378C38.5654 193.975 38.5095 193.544 38.5323 193.113C38.5551 192.682 38.656 192.263 38.8282 191.882C39.0003 191.502 39.2397 191.17 39.53 190.909C39.8202 190.648 40.1545 190.465 40.5101 190.371L60.4416 185.103C60.5746 185.068 60.7032 185.012 60.8241 184.938L80.2103 172.934C80.376 172.832 80.5508 172.751 80.7315 172.694L102.066 165.959C102.671 165.766 103.314 165.846 103.872 166.183C104.43 166.52 104.862 167.09 105.086 167.782L120.993 216.801C121.148 217.274 121.198 217.785 121.14 218.287C121.082 218.789 120.917 219.265 120.66 219.671L115.159 228.42C114.872 228.875 114.483 229.225 114.035 229.429L102.012 234.901C101.937 234.935 101.865 234.975 101.796 235.022L81.7616 248.62C81.6488 248.697 81.5311 248.763 81.4098 248.818ZM40.503 191.579C40.1174 191.754 39.8065 192.104 39.6386 192.551C39.4708 192.998 39.4597 193.506 39.6079 193.963L57.8515 250.181C57.9768 250.571 58.2104 250.899 58.5139 251.111C58.8174 251.322 59.1728 251.406 59.5216 251.347L80.7164 247.843C80.9134 247.81 81.1033 247.733 81.276 247.616L101.31 234.019C101.423 233.942 101.54 233.876 101.661 233.821L113.684 228.349C113.96 228.224 114.199 228.009 114.375 227.729L119.877 218.98C120.034 218.731 120.136 218.438 120.172 218.129C120.207 217.821 120.176 217.507 120.081 217.216L104.174 168.197C104.037 167.772 103.771 167.422 103.428 167.214C103.085 167.007 102.69 166.958 102.318 167.076L80.9834 173.812C80.8725 173.847 80.7651 173.897 80.6631 173.959L61.2767 185.963C61.08 186.084 60.8709 186.175 60.6546 186.233L40.723 191.5C40.6481 191.52 40.5746 191.546 40.503 191.579Z" fill="#E6E6E6"/>
<path d="M56.4832 190.14L74.5208 245.724L71.6865 246.193L53.7324 190.869L56.4832 190.14Z" fill="white"/>
<path d="M61.671 212.576C62.3896 212.576 62.9721 211.886 62.9721 211.035C62.9721 210.184 62.3896 209.495 61.671 209.495C60.9524 209.495 60.3699 210.184 60.3699 211.035C60.3699 211.886 60.9524 212.576 61.671 212.576Z" fill="#3F3D56"/>
<path d="M107.804 214.219C108.523 214.219 109.105 213.529 109.105 212.678C109.105 211.827 108.523 211.137 107.804 211.137C107.086 211.137 106.503 211.827 106.503 212.678C106.503 213.529 107.086 214.219 107.804 214.219Z" fill="#6C63FF"/>
<path d="M108.331 184.848C109.808 189.398 108.031 204.478 107.406 209.319C107.386 209.473 107.332 209.617 107.25 209.738C107.168 209.859 107.06 209.952 106.938 210.008C106.816 210.064 106.683 210.08 106.553 210.055C106.424 210.031 106.302 209.966 106.201 209.867C102.999 206.768 93.1516 196.979 91.6749 192.428C91.2546 191.133 91.0538 189.753 91.084 188.366C91.1142 186.979 91.3748 185.612 91.851 184.344C92.3271 183.077 93.0095 181.932 93.859 180.977C94.7086 180.021 95.7088 179.273 96.8025 178.776C97.8961 178.278 99.0619 178.04 100.233 178.076C101.404 178.112 102.558 178.42 103.629 178.984C104.699 179.548 105.666 180.356 106.472 181.362C107.279 182.368 107.911 183.553 108.331 184.848V184.848Z" fill="#6C63FF"/>
<path d="M100.003 194.361C102.672 194.361 104.836 191.799 104.836 188.638C104.836 185.477 102.672 182.915 100.003 182.915C97.3339 182.915 95.1702 185.477 95.1702 188.638C95.1702 191.799 97.3339 194.361 100.003 194.361Z" fill="white"/>
<path d="M93.7952 176.289C93.9908 175.439 94.3414 174.65 94.8223 173.978C95.3033 173.305 95.9028 172.766 96.5787 172.398C97.2547 172.03 97.9905 171.842 98.7345 171.847C99.4785 171.852 100.213 172.05 100.885 172.427L109.512 163.192L115.53 168.032L103.192 180.871C102.582 182.167 101.592 183.152 100.409 183.641C99.2263 184.13 97.9333 184.088 96.775 183.523C95.6167 182.958 94.6736 181.91 94.1244 180.577C93.5753 179.243 93.4581 177.718 93.7952 176.289Z" fill="#FFB8B8"/>
<path d="M107.696 179.303L100.934 168.435L116.351 156.749L105.301 138.076C104.398 136.55 104.002 134.684 104.189 132.834C104.376 130.984 105.133 129.281 106.314 128.051C107.496 126.821 109.019 126.15 110.592 126.167C112.165 126.184 113.678 126.888 114.84 128.144L128.676 143.093C129.994 144.517 131.016 146.282 131.664 148.251C132.312 150.22 132.567 152.339 132.409 154.443C132.252 156.548 131.686 158.581 130.757 160.384C129.827 162.188 128.558 163.712 127.05 164.84L107.696 179.303Z" fill="#2F2E41"/>
<path d="M54.7127 207.821C55.324 207.319 55.8349 206.664 56.2094 205.903C56.584 205.141 56.813 204.292 56.8803 203.415C56.9477 202.537 56.8518 201.653 56.5994 200.824C56.3469 199.995 55.9441 199.242 55.4193 198.617L59.8897 185.903L54.028 180.802L47.9278 198.862C47.1003 199.975 46.6465 201.41 46.6524 202.893C46.6583 204.377 47.1235 205.806 47.9598 206.91C48.7961 208.015 49.9455 208.717 51.1901 208.885C52.4347 209.053 53.688 208.674 54.7127 207.821V207.821Z" fill="#FFB8B8"/>
<path d="M57.733 194.911L47.1606 191.996L55.0392 165.091C56.3969 160.449 58.3998 156.108 60.9654 152.247L73.8186 132.891C74.9941 131.121 76.7142 129.974 78.6021 129.703C80.4901 129.431 82.392 130.057 83.8911 131.443C85.3903 132.829 86.3646 134.862 86.6005 137.096C86.8365 139.331 86.3148 141.586 85.1499 143.366L70.8876 165.165L57.733 194.911Z" fill="#2F2E41"/>
<path d="M186.574 308H0.488415C0.358879 308 0.234641 307.939 0.143046 307.831C0.05145 307.722 0 307.575 0 307.422C0 307.268 0.05145 307.121 0.143046 307.013C0.234641 306.904 0.358879 306.843 0.488415 306.843H186.574C186.704 306.843 186.828 306.904 186.92 307.013C187.011 307.121 187.063 307.268 187.063 307.422C187.063 307.575 187.011 307.722 186.92 307.831C186.828 307.939 186.704 308 186.574 308Z" fill="#CCCCCC"/>
<path d="M258.756 307.711H254.36V2.60282C254.36 1.91251 254.592 1.25047 255.004 0.76235C255.416 0.274227 255.975 0 256.558 0C257.141 0 257.7 0.274227 258.112 0.76235C258.525 1.25047 258.756 1.91251 258.756 2.60282V307.711Z" fill="#E6E6E6"/>
<path d="M290.607 308H222.229C222.099 308 221.975 307.939 221.883 307.831C221.792 307.722 221.74 307.575 221.74 307.422C221.74 307.268 221.792 307.121 221.883 307.013C221.975 306.904 222.099 306.843 222.229 306.843H290.607C290.736 306.843 290.861 306.904 290.952 307.013C291.044 307.121 291.095 307.268 291.095 307.422C291.095 307.575 291.044 307.722 290.952 307.831C290.861 307.939 290.736 308 290.607 308Z" fill="#CCCCCC"/>
<path d="M289.258 39.9098H225.3C224.717 39.9091 224.158 39.6346 223.746 39.1466C223.334 38.6587 223.102 37.9971 223.102 37.307V15.3277C223.102 14.6376 223.334 13.976 223.746 13.4881C224.158 13.0001 224.717 12.7256 225.3 12.7249H289.262C289.637 12.7252 290.006 12.8388 290.333 13.055L306.873 23.9862C307.214 24.2115 307.498 24.5403 307.696 24.9387C307.894 25.3372 307.999 25.7909 308 26.2533C308.001 26.7156 307.898 27.1699 307.701 27.5694C307.505 27.9688 307.222 28.2991 306.882 28.5262L290.337 39.5743C290.007 39.794 289.636 39.9095 289.258 39.9098Z" fill="#8E27D8"/>
<path d="M283.421 87.339H219.463C219.085 87.3387 218.713 87.2232 218.384 87.0035L201.839 75.9554C201.499 75.7283 201.216 75.398 201.019 74.9986C200.823 74.5991 200.72 74.1448 200.72 73.6825C200.721 73.2201 200.826 72.7664 201.024 72.3679C201.222 71.9695 201.506 71.6407 201.847 71.4154L218.387 60.4842C218.715 60.268 219.083 60.1544 219.458 60.1541H283.421C284.004 60.1548 284.562 60.4293 284.974 60.9173C285.386 61.4052 285.618 62.0668 285.619 62.7569V84.7362C285.618 85.4263 285.386 86.0879 284.974 86.5758C284.562 87.0638 284.004 87.3382 283.421 87.339Z" fill="#E6E6E6"/>
<path d="M283.665 133.901H219.707C219.329 133.9 218.957 133.785 218.628 133.565L202.083 122.517C201.743 122.29 201.46 121.96 201.263 121.56C201.067 121.161 200.964 120.706 200.965 120.244C200.965 119.782 201.07 119.328 201.268 118.929C201.466 118.531 201.751 118.202 202.091 117.977L218.631 107.046C218.959 106.83 219.328 106.716 219.703 106.716H283.665C284.248 106.716 284.806 106.991 285.219 107.479C285.631 107.967 285.862 108.628 285.863 109.318V131.298C285.862 131.988 285.631 132.649 285.219 133.137C284.806 133.625 284.248 133.9 283.665 133.901Z" fill="#E6E6E6"/>
</svg>
