<svg width="553" height="566" viewBox="0 0 553 566" fill="none" xmlns="http://www.w3.org/2000/svg">
<g filter="url(#filter0_f_493_3057)">
<circle cx="271.571" cy="294.302" r="173.571" fill="url(#paint0_linear_493_3057)" fill-opacity="0.5"/>
</g>
<g filter="url(#filter1_f_493_3057)">
<path d="M328.316 74L479.597 336.026H177.035L328.316 74Z" fill="url(#paint1_linear_493_3057)" fill-opacity="0.5"/>
</g>
<g clip-path="url(#clip0_493_3057)">
<path opacity="0.3" d="M267.466 467.606C387.017 467.606 483.932 459.14 483.932 448.696C483.932 438.252 387.017 429.785 267.466 429.785C147.915 429.785 51 438.252 51 448.696C51 459.14 147.915 467.606 267.466 467.606Z" fill="#F5F5F5"/>
<path d="M452.619 435.359H452.519V435.459V435.69V435.79H452.619H483.418H483.518V435.69V435.459V435.359H483.418H452.619Z" fill="#00D1FF" stroke="#00D1FF" stroke-width="0.2"/>
<path d="M373.074 437.985H364.99V438.216H373.074V437.985Z" fill="#ECECEC"/>
<path d="M451.691 426.83H433.85V427.06H451.691V426.83Z" fill="#ECECEC"/>
<path d="M113.895 428.288H113.795V428.388V428.618V428.718H113.895H154.051H154.151V428.618V428.388V428.288H154.051H113.895Z" fill="#00D1FF" stroke="#00D1FF" stroke-width="0.2"/>
<path d="M168.215 428.388H162.327V428.618H168.215V428.388Z" fill="#ECECEC"/>
<path d="M274.452 432.311H187.353V432.542H274.452V432.311Z" fill="#ECECEC"/>
<path d="M101.685 121.306V373.714C101.685 376.777 104.176 379.27 107.239 379.27H286.773C289.836 379.27 292.328 376.777 292.328 373.714V121.305C292.328 118.242 289.836 115.75 286.773 115.75H107.239C104.177 115.75 101.677 118.241 101.685 121.306ZM101.685 121.306V121.305H101.915M101.685 121.306L101.915 121.305M101.915 121.305H101.935H101.915ZM102.415 121.305C102.415 118.648 104.576 116.48 107.239 116.48V116.25C107.239 116.48 107.24 116.48 107.241 116.48H107.247H107.258H107.272H107.29H107.313H107.339H107.369H107.404H107.442H107.484H107.53H107.581H107.635H107.692H107.754H107.82H107.889H107.963H108.04H108.12H108.205H108.294H108.386H108.482H108.581H108.684H108.791H108.902H109.016H109.134H109.255H109.381H109.509H109.641H109.777H109.916H110.059H110.206H110.355H110.509H110.665H110.825H110.989H111.156H111.326H111.5H111.677H111.858H112.041H112.228H112.419H112.612H112.809H113.009H113.213H113.419H113.629H113.842H114.058H114.277H114.499H114.725H114.954H115.185H115.42H115.658H115.898H116.142H116.389H116.639H116.892H117.147H117.406H117.668H117.932H118.2H118.47H118.743H119.019H119.298H119.579H119.864H120.151H120.441H120.733H121.029H121.327H121.628H121.931H122.237H122.546H122.858H123.172H123.488H123.807H124.129H124.454H124.781H125.11H125.442H125.776H126.113H126.452H126.794H127.138H127.485H127.834H128.185H128.539H128.895H129.254H129.614H129.977H130.343H130.71H131.08H131.452H131.826H132.203H132.581H132.962H133.345H133.73H134.117H134.507H134.898H135.291H135.687H136.084H136.484H136.886H137.289H137.695H138.102H138.512H138.923H139.336H139.751H140.168H140.587H141.008H141.431H141.855H142.281H142.709H143.139H143.571H144.004H144.439H144.875H145.314H145.754H146.195H146.639H147.084H147.53H147.978H148.428H148.879H149.332H149.786H150.242H150.699H151.158H151.618H152.08H152.543H153.008H153.474H153.941H154.41H154.88H155.351H155.824H156.298H156.773H157.249H157.727H158.206H158.686H159.168H159.65H160.134H160.619H161.105H161.592H162.081H162.57H163.061H163.552H164.045H164.538H165.033H165.529H166.025H166.523H167.021H167.521H168.021H168.522H169.025H169.528H170.031H170.536H171.042H171.548H172.055H172.563H173.072H173.581H174.091H174.602H175.113H175.625H176.138H176.652H177.166H177.68H178.196H178.712H179.228H179.745H180.262H180.78H181.299H181.818H182.337H182.857H183.378H183.898H184.42H184.941H185.463H185.985H186.508H187.031H187.554H188.078H188.601H189.125H189.65H190.174H190.699H191.224H191.749H192.274H192.8H193.325H193.851H194.377H194.902H195.428H195.954H196.48H197.006H197.532H198.058H198.584H199.11H199.636H200.161H200.687H201.213H201.738H202.263H202.788H203.313H203.838H204.362H204.887H205.411H205.935H206.458H206.981H207.504H208.027H208.549H209.071H209.593H210.114H210.635H211.155H211.675H212.194H212.713H213.232H213.75H214.267H214.784H215.301H215.817H216.332H216.846H217.361H217.874H218.387H218.899H219.41H219.921H220.431H220.941H221.449H221.957H222.464H222.971H223.476H223.981H224.485H224.988H225.49H225.991H226.491H226.991H227.489H227.987H228.484H228.979H229.474H229.967H230.46H230.952H231.442H231.931H232.42H232.907H233.393H233.878H234.362H234.844H235.326H235.806H236.285H236.763H237.239H237.715H238.189H238.661H239.133H239.603H240.071H240.539H241.005H241.469H241.932H242.394H242.854H243.313H243.77H244.226H244.68H245.133H245.584H246.034H246.482H246.929H247.374H247.817H248.259H248.699H249.137H249.574H250.008H250.442H250.873H251.303H251.731H252.157H252.582H253.004H253.425H253.844H254.261H254.676H255.089H255.501H255.91H256.318H256.723H257.127H257.528H257.928H258.325H258.721H259.114H259.506H259.895H260.282H260.667H261.05H261.431H261.81H262.186H262.56H262.932H263.302H263.67H264.035H264.398H264.759H265.117H265.473H265.827H266.178H266.527H266.874H267.218H267.56H267.899H268.236H268.57H268.902H269.232H269.559H269.883H270.205H270.524H270.841H271.155H271.466H271.775H272.081H272.385H272.685H272.983H273.279H273.571H273.861H274.149H274.433H274.715H274.993H275.269H275.542H275.813H276.08H276.345H276.606H276.865H277.121H277.373H277.623H277.87H278.114H278.355H278.592H278.827H279.059H279.287H279.513H279.735H279.954H280.17H280.383H280.593H280.8H281.003H281.203H281.4H281.594H281.784H281.971H282.155H282.335H282.512H282.686H282.856H283.023H283.187H283.347H283.504H283.657H283.807H283.953H284.096H284.235H284.371H284.503H284.632H284.757H284.878H284.996H285.11H285.221H285.328H285.431H285.531H285.627H285.719H285.807H285.892H285.973H286.05H286.123H286.192H286.258H286.32H286.378H286.432H286.482H286.528H286.57H286.609H286.643H286.673H286.7H286.722H286.74H286.755H286.765H286.771C286.772 116.48 286.773 116.48 286.773 116.25V116.48C289.429 116.48 291.597 118.649 291.597 121.305V373.714C291.597 376.371 289.429 378.539 286.773 378.539H107.239C104.583 378.539 102.415 376.378 102.415 373.714V121.305Z" fill="#00D1FF" stroke="#00D1FF" stroke-width="0.5"/>
<path d="M308.345 379.27H487.878C490.941 379.27 493.433 376.777 493.433 373.714V121.305C493.433 118.242 490.941 115.75 487.878 115.75H308.345C305.282 115.75 302.79 118.242 302.79 121.305V373.714C302.79 376.777 305.282 379.27 308.345 379.27ZM303.52 121.305C303.52 118.649 305.688 116.48 308.345 116.48V116.25C308.345 116.48 308.345 116.48 308.347 116.48H308.353H308.363H308.377H308.396H308.418H308.444H308.475H308.509H308.547H308.59H308.636H308.686H308.74H308.798H308.86H308.925H308.995H309.068H309.145H309.226H309.31H309.399H309.491H309.587H309.686H309.79H309.897H310.007H310.121H310.239H310.361H310.486H310.615H310.747H310.882H311.022H311.165H311.311H311.461H311.614H311.771H311.931H312.094H312.261H312.432H312.605H312.782H312.963H313.147H313.334H313.524H313.718H313.915H314.115H314.318H314.525H314.734H314.947H315.163H315.382H315.605H315.83H316.059H316.291H316.525H316.763H317.004H317.248H317.494H317.744H317.997H318.253H318.511H318.773H319.038H319.305H319.575H319.848H320.124H320.403H320.685H320.969H321.256H321.546H321.839H322.134H322.432H322.733H323.037H323.343H323.651H323.963H324.277H324.594H324.913H325.235H325.559H325.886H326.215H326.547H326.882H327.218H327.558H327.9H328.244H328.59H328.939H329.291H329.644H330.001H330.359H330.72H331.083H331.448H331.815H332.185H332.557H332.932H333.308H333.687H334.067H334.45H334.835H335.223H335.612H336.003H336.397H336.792H337.19H337.589H337.991H338.394H338.8H339.207H339.617H340.028H340.442H340.857H341.274H341.693H342.113H342.536H342.96H343.387H343.815H344.244H344.676H345.109H345.544H345.981H346.419H346.859H347.301H347.744H348.189H348.635H349.084H349.533H349.984H350.437H350.892H351.347H351.805H352.263H352.724H353.185H353.648H354.113H354.579H355.046H355.515H355.985H356.456H356.929H357.403H357.878H358.355H358.832H359.311H359.792H360.273H360.756H361.24H361.725H362.211H362.698H363.186H363.676H364.166H364.658H365.15H365.644H366.138H366.634H367.131H367.628H368.127H368.626H369.126H369.628H370.13H370.633H371.137H371.641H372.147H372.653H373.16H373.668H374.177H374.686H375.196H375.707H376.219H376.731H377.244H377.757H378.271H378.786H379.301H379.817H380.333H380.85H381.368H381.886H382.404H382.923H383.443H383.963H384.483H385.004H385.525H386.046H386.568H387.091H387.613H388.136H388.659H389.183H389.707H390.231H390.755H391.28H391.804H392.329H392.854H393.38H393.905H394.43H394.956H395.482H396.008H396.534H397.059H397.585H398.111H398.637H399.163H399.689H400.215H400.741H401.267H401.792H402.318H402.843H403.369H403.894H404.419H404.943H405.468H405.992H406.516H407.04H407.563H408.087H408.61H409.132H409.654H410.176H410.698H411.219H411.74H412.26H412.78H413.3H413.819H414.337H414.855H415.373H415.89H416.406H416.922H417.437H417.952H418.466H418.979H419.492H420.004H420.516H421.027H421.537H422.046H422.555H423.062H423.57H424.076H424.581H425.086H425.59H426.093H426.595H427.096H427.597H428.096H428.595H429.092H429.589H430.084H430.579H431.073H431.565H432.057H432.547H433.037H433.525H434.012H434.498H434.983H435.467H435.95H436.431H436.911H437.39H437.868H438.345H438.82H439.294H439.767H440.238H440.708H441.177H441.644H442.11H442.574H443.037H443.499H443.959H444.418H444.875H445.331H445.786H446.238H446.69H447.139H447.587H448.034H448.479H448.922H449.364H449.804H450.242H450.679H451.114H451.547H451.978H452.408H452.836H453.262H453.687H454.109H454.53H454.949H455.366H455.781H456.195H456.606H457.015H457.423H457.828H458.232H458.634H459.033H459.431H459.826H460.22H460.611H461H461.387H461.773H462.155H462.536H462.915H463.291H463.666H464.038H464.407H464.775H465.14H465.503H465.864H466.222H466.578H466.932H467.283H467.632H467.979H468.323H468.665H469.004H469.341H469.676H470.008H470.337H470.664H470.988H471.31H471.629H471.946H472.26H472.571H472.88H473.186H473.49H473.791H474.089H474.384H474.677H474.967H475.254H475.538H475.82H476.099H476.375H476.648H476.918H477.185H477.45H477.711H477.97H478.226H478.479H478.728H478.975H479.219H479.46H479.698H479.932H480.164H480.393H480.618H480.84H481.06H481.276H481.489H481.698H481.905H482.108H482.308H482.505H482.699H482.889H483.076H483.26H483.44H483.617H483.791H483.962H484.128H484.292H484.452H484.609H484.762H484.912H485.058H485.201H485.34H485.476H485.608H485.737H485.862H485.984H486.101H486.216H486.326H486.433H486.536H486.636H486.732H486.824H486.912H486.997H487.078H487.155H487.228H487.298H487.363H487.425H487.483H487.537H487.587H487.633H487.676H487.714H487.748H487.779H487.805H487.827H487.846H487.86H487.87H487.876C487.878 116.48 487.878 116.48 487.878 116.25V116.48C490.534 116.48 492.703 118.649 492.703 121.305V373.714C492.703 376.371 490.542 378.539 487.878 378.539H308.345C305.688 378.539 303.52 376.378 303.52 373.714V121.305Z" fill="#00D1FF" stroke="#00D1FF" stroke-width="0.5"/>
<path d="M65.1174 420.395H65.0174V420.495V420.726V420.826H65.1174H530H530.1V420.726V420.495V420.395H530H65.1174Z" fill="#00D1FF" stroke="#00D1FF" stroke-width="0.2"/>
<path d="M303.831 347.525L308.076 343.571L262.622 287.968H237.75L203.251 246.846H160.185L119.176 199.374H149.184L181.365 239.751H214.029L246.125 280.874H275.742L318.531 335.962L322.777 332.001L326.339 353.975L303.831 347.525Z" fill="#ECECEC"/>
<path d="M387.207 432.634H357.467V447.506H387.207V432.634Z" fill="#007CFF"/>
<path d="M387.207 432.634H357.467V447.506H387.207V432.634Z" fill="#F6F5F5"/>
<path opacity="0.2" d="M364.898 432.642H357.467V447.514H364.898V432.642Z" fill="black"/>
<path d="M327.728 378.444H297.996V447.514H327.728V378.444Z" fill="#007CFF"/>
<path d="M327.728 378.444H297.996V447.514H327.728V378.444Z" fill="#F6F5F5"/>
<path opacity="0.2" d="M305.436 378.436H298.005V447.506H305.436V378.436Z" fill="black"/>
<path d="M268.265 330.158H238.525V447.506H268.265V330.158Z" fill="white"/>
<path opacity="0.3" d="M268.265 330.158H238.525V447.506H268.265V330.158Z" fill="#F6F5F5"/>
<path opacity="0.2" d="M245.964 330.158H238.533V447.506H245.964V330.158Z" fill="black"/>
<path d="M208.786 270.74H179.054V447.514H208.786V270.74Z" fill="#007CFF"/>
<path d="M208.786 270.74H179.054V447.514H208.786V270.74Z" fill="#F6F5F5"/>
<path opacity="0.2" d="M186.493 270.731H179.062V447.506H186.493V270.731Z" fill="black"/>
<path d="M149.323 199.005H119.583V447.514H149.323V199.005Z" fill="#F6F5F5"/>
<path opacity="0.2" d="M127.022 199.005H119.591V447.514H127.022V199.005Z" fill="black"/>
<path d="M412.524 362.067C413.883 365.245 412.079 368.885 408.732 369.729C403.036 371.979 396.956 365.652 396.956 365.652L386.324 353.782C383.791 353.122 382.493 348.339 383.146 345.805C383.791 343.264 386.385 341.744 388.919 342.396L402.268 358.021L397.639 339.271L402.238 338.074L412.524 362.067Z" fill="#007CFF"/>
<path d="M412.524 362.067C413.883 365.245 412.079 368.885 408.732 369.729C403.036 371.979 396.956 365.652 396.956 365.652L386.324 353.782C383.791 353.122 382.493 348.339 383.146 345.805C383.791 343.264 386.385 341.744 388.919 342.396L402.268 358.021L397.639 339.271L402.238 338.074L412.524 362.067Z" fill="#ECECEC"/>
<path d="M397.639 339.256C397.524 336.116 398.43 333.022 400.234 330.45L402.291 327.501L405.285 331.601L402.061 338.097L397.639 339.256Z" fill="#FFC3BD"/>
<path d="M401.531 329.183L400.756 326.027L403.297 323.946C403.297 323.946 406.552 329.789 405.285 331.609C402.706 335.31 401.531 329.183 401.531 329.183Z" fill="#FFC3BD"/>
<path opacity="0.2" d="M389.686 352.247C389.717 351.84 394.592 363.042 394.592 363.042L385.763 353.184L389.686 352.247Z" fill="black"/>
<path d="M386.992 341.644C386.992 341.644 395.95 337.705 384.835 381.231C383.867 385.031 386.853 389.231 386.14 393.899C384.159 406.652 364.2 417.009 355.349 416.864C350.604 416.787 354.42 412.218 352.431 412.188C352.286 407.005 345.054 384.463 350.973 350.573C352.147 343.863 355.134 337.705 361.935 337.475C361.997 337.475 362.066 337.467 362.127 337.467C367.102 337.306 371.485 338.98 375.845 339.448C381.587 340.062 386.992 341.644 386.992 341.644Z" fill="white"/>
<path opacity="0.6" d="M386.992 341.644C386.992 341.644 395.95 337.705 384.835 381.231C383.867 385.031 386.853 389.231 386.14 393.899C384.159 406.652 364.2 417.009 355.349 416.864C350.604 416.787 354.42 412.218 352.431 412.188C352.286 407.005 345.054 384.463 350.973 350.573C352.147 343.863 355.134 337.705 361.935 337.475C361.997 337.475 362.066 337.467 362.127 337.467C367.102 337.306 371.485 338.98 375.845 339.448C381.587 340.062 386.992 341.644 386.992 341.644Z" fill="white"/>
<path d="M447.676 426.952L436.36 428.457L419.625 390.843C413.392 401.354 405.73 409.301 396.933 420.05C382.447 437.74 370.241 433.87 363.24 427.175C359.302 423.405 359.379 404.195 359.379 404.195L382.954 392.479C382.954 392.479 414.758 365.775 424.2 366.205C424.216 366.198 424.231 366.19 424.246 366.182C434.119 361.668 447.676 426.952 447.676 426.952Z" fill="#1A2E35"/>
<g opacity="0.2">
<path opacity="0.2" d="M447.676 426.952L436.36 428.457L419.625 390.843C413.392 401.354 405.73 409.301 396.933 420.05C382.447 437.74 370.241 433.87 363.24 427.175C359.302 423.405 359.379 404.195 359.379 404.195L382.954 392.479C382.954 392.479 414.758 365.775 424.2 366.205C424.216 366.198 424.231 366.19 424.246 366.182C434.119 361.668 447.676 426.952 447.676 426.952Z" fill="black"/>
</g>
<path d="M445.043 425.793L445.058 425.831L448.06 437.84L441.419 439.936L439.185 433.125L437.558 428.166L445.043 425.793Z" fill="#FFC3BD"/>
<path d="M449.15 436.427L440.237 436.265C439.907 436.258 439.615 436.488 439.554 436.811L438.065 444.043C437.911 444.796 438.494 445.517 439.262 445.517C442.479 445.525 447.123 445.417 451.161 445.494C455.89 445.579 455.905 445.84 461.448 445.94C464.802 446.001 465.67 442.623 464.265 442.293C457.855 440.78 456.703 440.603 451.13 437.102C450.516 436.718 449.856 436.442 449.15 436.427Z" fill="#1A2E35"/>
<path d="M452.504 437.855C453.548 437.87 454.562 437.747 454.892 437.287C455.007 437.125 455.099 436.841 454.861 436.442C454.73 436.212 454.523 436.058 454.239 435.981C452.873 435.59 450.048 437.164 449.933 437.233C449.863 437.271 449.825 437.348 449.84 437.433C449.856 437.509 449.917 437.578 449.994 437.594C450.516 437.694 451.529 437.832 452.504 437.855ZM453.771 436.289C453.909 436.289 454.032 436.304 454.147 436.342C454.324 436.396 454.454 436.488 454.531 436.619C454.669 436.864 454.623 436.98 454.577 437.049C454.208 437.571 452.143 437.548 450.623 437.302C451.368 436.926 452.819 436.273 453.771 436.289Z" fill="#007CFF"/>
<path d="M450.032 437.578C450.055 437.578 450.086 437.571 450.109 437.563C451.084 437.141 453.011 435.406 452.842 434.484C452.804 434.269 452.642 433.993 452.113 433.931C451.721 433.885 451.36 433.993 451.046 434.246C450.025 435.083 449.84 437.279 449.833 437.371C449.825 437.44 449.856 437.509 449.917 437.548C449.956 437.571 449.994 437.578 450.032 437.578ZM451.967 434.308C452.005 434.308 452.044 434.308 452.082 434.315C452.427 434.354 452.458 434.492 452.466 434.538C452.566 435.091 451.261 436.457 450.27 437.041C450.362 436.404 450.631 435.091 451.307 434.538C451.506 434.377 451.721 434.3 451.967 434.308Z" fill="#007CFF"/>
<path opacity="0.2" d="M445.043 425.801L445.058 425.831L446.455 431.237L439.185 433.125L437.558 428.165L445.043 425.801Z" fill="black"/>
<path d="M448.643 421.923C448.835 424.396 448.981 428.081 448.981 428.081L435.193 431.298L433.228 425.517L448.643 421.923Z" fill="#1A2E35"/>
<path opacity="0.2" d="M448.643 421.923C448.835 424.396 448.981 428.081 448.981 428.081L435.193 431.298L433.228 425.517L448.643 421.923Z" fill="white"/>
<path d="M440.268 427.029L439.27 427.804L442.793 439.882L435.792 441.701L431.317 429.355L440.268 427.029Z" fill="#FFC3BD"/>
<path d="M443.684 438.139L434.764 438.116C434.433 438.116 434.149 438.346 434.088 438.669L432.714 445.924C432.568 446.677 433.167 447.391 433.935 447.383C437.151 447.337 441.788 447.16 445.833 447.168C450.562 447.183 450.585 447.437 456.128 447.452C459.482 447.46 460.296 444.074 458.884 443.759C452.451 442.346 451.299 442.193 445.664 438.776C445.058 438.415 444.39 438.146 443.684 438.139Z" fill="#1A2E35"/>
<path d="M447.062 439.513C448.106 439.513 449.119 439.375 449.441 438.907C449.556 438.745 449.641 438.461 449.395 438.062C449.257 437.839 449.05 437.686 448.766 437.609C447.399 437.233 444.597 438.853 444.474 438.922C444.405 438.96 444.375 439.045 444.39 439.122C444.405 439.198 444.467 439.268 444.551 439.283C445.073 439.383 446.087 439.513 447.062 439.513ZM448.305 437.932C448.443 437.932 448.566 437.947 448.681 437.978C448.858 438.024 448.988 438.116 449.065 438.246C449.211 438.484 449.165 438.607 449.119 438.676C448.758 439.206 446.693 439.206 445.165 438.991C445.918 438.607 447.353 437.932 448.305 437.932Z" fill="#007CFF"/>
<path d="M444.59 439.283C444.62 439.283 444.643 439.275 444.666 439.267C445.634 438.83 447.53 437.064 447.353 436.143C447.315 435.928 447.146 435.659 446.616 435.597C446.217 435.559 445.864 435.666 445.557 435.928C444.543 436.78 444.398 438.976 444.39 439.068C444.382 439.137 444.421 439.206 444.474 439.244C444.513 439.267 444.551 439.283 444.59 439.283ZM446.47 435.981C446.509 435.981 446.547 435.981 446.586 435.989C446.931 436.027 446.962 436.166 446.969 436.204C447.077 436.757 445.795 438.146 444.812 438.745C444.897 438.1 445.142 436.787 445.81 436.227C446.01 436.058 446.225 435.974 446.47 435.981Z" fill="#007CFF"/>
<path opacity="0.2" d="M439.254 427.298L440.674 432.618L433.205 434.553L431.317 429.355L439.254 427.298Z" fill="black"/>
<path d="M443.123 423.666C443.377 426.131 443.615 429.816 443.615 429.816L429.904 433.379L427.801 427.651L443.123 423.666Z" fill="#1A2E35"/>
<path opacity="0.3" d="M443.123 423.666C443.377 426.131 443.615 429.816 443.615 429.816L429.904 433.379L427.801 427.651L443.123 423.666Z" fill="white"/>
<path d="M379.545 357.859C379.392 364.201 379.284 377.046 376.459 384.931C375.976 386.275 377.503 392.202 377.503 392.202C378.271 391.427 380.797 387.488 381.188 386.467C382.938 381.822 382.424 378.075 382.654 375.165C383.161 368.777 382.24 365.268 381.211 357.199C381.019 357.69 379.952 358.197 379.545 357.859Z" fill="#1A2E35"/>
<path d="M441.88 425.647L429.743 428.549L412.279 389.6C406.644 397.423 397.424 410.199 389.786 420.864C376.49 439.459 356.861 435.567 353.537 422.776C350.773 412.142 350.52 403.013 350.52 403.013L374.287 396.287C374.287 396.287 402.437 365.629 417.737 365.998C428.307 362.044 441.88 425.647 441.88 425.647Z" fill="#1A2E35"/>
<path opacity="0.2" d="M374.295 396.279C374.295 396.279 361.459 410.322 361.19 405.877C360.922 401.431 374.295 396.279 374.295 396.279Z" fill="black"/>
<path d="M380.966 357.936C381.088 357.545 381.365 357.207 381.419 356.8C381.495 356.255 382.094 349.982 382.094 349.982C381.848 349.69 381.541 349.644 381.303 349.352C381.134 349.775 380.751 355.356 380.482 355.717C380.244 355.717 380.037 355.694 379.799 355.694C379.177 354.22 376.06 348.7 376.076 348.339C375.661 348.308 375.431 349.053 375.246 349.422C375.661 349.997 378.547 356.6 379.538 357.967C379.991 358.113 380.482 358.021 380.966 357.936Z" fill="#1A2E35"/>
<path d="M367.478 339.863C366.672 341.083 366.533 342.65 366.779 344.093C367.025 345.537 368.652 348.493 369.251 349.828C370.011 351.525 371.915 355.595 375.239 357.061C376.812 357.752 379.269 355.456 379.768 352.585C381.035 354.85 382.647 356.355 382.647 356.355C384.059 356.846 383.722 344.907 381.894 342.527C377.887 337.329 369.182 337.283 367.478 339.863Z" fill="#007CFF"/>
<path d="M367.478 339.863C366.672 341.083 366.533 342.65 366.779 344.093C367.025 345.537 368.652 348.493 369.251 349.828C370.011 351.525 371.915 355.595 375.239 357.061C376.812 357.752 379.269 355.456 379.768 352.585C381.035 354.85 382.647 356.355 382.647 356.355C384.059 356.846 383.722 344.907 381.894 342.527C377.887 337.329 369.182 337.283 367.478 339.863Z" fill="#F5F5F5"/>
<path d="M379.676 329.605L381.349 334.957L383.622 342.235C382.954 342.611 382.363 343.11 381.871 343.702C380.743 344.984 380.244 346.519 381.372 348.308C381.933 348.938 380.697 352.738 376.267 350.358C373.212 348.823 371.708 346.873 370.702 344.178C370.349 342.68 370.395 341.974 371.8 341.122C375.807 338.719 378.202 333.743 379.676 329.605Z" fill="#FFC3BD"/>
<path opacity="0.2" d="M383.092 340.446L381.871 335.371C381.787 335.471 381.695 335.578 381.595 335.686C381.227 336.162 380.889 336.669 380.597 337.198C379.599 339.018 380.321 342.22 381.603 344.009L381.902 343.686C382.378 343.141 382.931 342.665 383.537 342.266C383.576 342.243 383.614 342.227 383.66 342.22L383.092 340.446Z" fill="black"/>
<path d="M391.321 333.728C396.595 329.689 397.44 326.388 401.432 324.791C403.143 324.837 404.387 328.622 400.625 332.285C396.864 335.947 391.321 333.728 391.321 333.728Z" fill="#1A2E35"/>
<path d="M394.461 340.531C393.816 341.176 393.11 341.713 392.358 342.128C387.299 345.022 380.336 342.98 378.831 336.753C378.716 336.27 378.64 335.786 378.578 335.317C378.148 331.279 380.19 328 383.107 322.58C383.752 321.336 384.65 320.254 385.763 319.401C389.932 316.2 395.904 316.983 399.105 321.152C403.458 326.887 398.952 336.039 394.461 340.531Z" fill="#FFC3BD"/>
<path opacity="0.2" d="M394.215 340.761C388.074 346.082 380.336 342.987 378.824 336.753C378.709 336.269 378.632 335.786 378.571 335.317C378.586 335.156 378.601 335.01 378.609 334.849C378.785 332.599 379.085 330.258 380.351 328.377C380.436 328.392 381.027 328.331 381.158 328.292C381.303 328.238 382.654 328.338 382.639 328.499C382.317 331.985 385.234 333.244 387.951 335.095C388.796 335.67 390.078 336.008 391.367 336.983C391.367 336.991 394.215 339.256 394.215 340.761Z" fill="black"/>
<path d="M379.768 327.739L382.148 329.536L385.418 326.572L387.314 324.799L394.4 322.403C394.4 322.403 388.143 316.837 386.117 315.516C385.403 315.056 381.772 315.862 380.966 316.537C378.686 318.465 377.918 321.597 378.624 324.492C378.893 325.605 379.277 326.695 379.768 327.739Z" fill="#1A2E35"/>
<path d="M377.956 325.597C377.48 327.056 377.549 328.638 378.156 330.043C378.97 331.847 381.18 331.225 382.148 329.528C383 328.008 383.215 325.336 381.825 324.1C380.443 322.864 378.563 323.785 377.956 325.597Z" fill="#FFC3BD"/>
<path d="M390.876 330.442C390.561 330.91 390.538 331.478 390.845 331.693C391.153 331.908 391.613 331.693 391.966 331.24C392.319 330.787 392.304 330.204 391.997 329.981C391.69 329.759 391.191 329.958 390.876 330.442Z" fill="#1A2E35"/>
<path d="M396.104 334.227C395.774 334.703 395.766 335.271 396.073 335.486C396.38 335.701 396.879 335.502 397.194 335.033C397.509 334.573 397.524 333.997 397.225 333.782C396.918 333.567 396.419 333.759 396.104 334.227Z" fill="#1A2E35"/>
<path d="M394.185 333.367C393.717 334.918 393.463 336.523 393.417 338.143C392.266 338.227 391.367 336.999 391.367 336.999L394.185 333.367Z" fill="#FF847F"/>
<path d="M390.868 338.841C390.047 337.782 388.826 337.106 387.498 336.968C387.406 336.96 387.322 337.029 387.322 337.129C387.322 337.221 387.391 337.298 387.483 337.306C388.934 337.475 390.224 338.304 390.968 339.563C391.014 339.648 391.114 339.678 391.199 339.64C391.283 339.594 391.314 339.494 391.275 339.41C391.275 339.402 391.268 339.394 391.26 339.387C391.137 339.195 391.007 339.01 390.868 338.841Z" fill="#1A2E35"/>
<path d="M390.984 328.023C390.938 327.985 390.907 327.939 390.892 327.885C390.838 327.709 390.938 327.517 391.122 327.463C392.143 327.125 393.256 327.325 394.1 327.985C394.239 328.1 394.262 328.315 394.139 328.453L394.131 328.461C394.008 328.599 393.793 328.607 393.655 328.484C392.987 327.977 392.112 327.831 391.314 328.1C391.199 328.146 391.068 328.115 390.984 328.023Z" fill="#1A2E35"/>
<path d="M398.215 331.187C398.215 331.133 398.23 331.071 398.261 331.025C398.376 330.879 398.591 330.856 398.737 330.979C399.597 331.624 400.073 332.661 400.004 333.728C399.981 333.912 399.819 334.043 399.635 334.02C399.451 333.997 399.32 333.835 399.343 333.651C399.382 332.807 398.998 332.008 398.322 331.501C398.23 331.417 398.192 331.302 398.215 331.187Z" fill="#1A2E35"/>
<path d="M382.094 317.436C383.875 319.8 390.308 321.666 392.695 323.424C394.2 324.53 395.344 326.043 396.465 327.532C396.756 325.92 396.326 325.075 395.674 323.57C397.255 325.543 398.315 327.739 398.814 330.212C399.681 328.653 400.05 326.68 399.697 324.929C401.332 327.202 402.184 330.404 402.053 333.198C404.057 328.983 404.295 324.123 402.422 319.847C400.549 315.57 393.832 310.188 389.302 311.316C380.236 313.574 382.094 317.436 382.094 317.436Z" fill="#1A2E35"/>
<path d="M380.175 377.661C367.861 380.87 352.431 348.554 352.431 348.554C350.589 346.419 352.37 341.39 354.504 339.548C356.638 337.705 359.855 337.935 361.705 340.07C361.705 340.07 374.241 366.221 380.136 365.76L404.756 362.766C411.872 361.483 408.824 367.05 406.283 368.278L383.499 376.378C382.386 376.885 381.28 377.315 380.175 377.661Z" fill="#ECECEC"/>
<path d="M422.957 370.344C422.957 370.344 417.844 370.413 416.846 370.651L414.021 367.303L407.911 367.403C407.035 367.418 406.252 367.027 405.846 366.374C405.6 365.23 406.721 363.61 408.425 363.034C408.793 362.911 419.134 364.025 419.134 364.025C422.412 365.476 422.957 370.344 422.957 370.344Z" fill="#FFC3BD"/>
</g>
<g filter="url(#filter2_f_493_3057)">
<circle cx="271.571" cy="294.302" r="173.571" fill="url(#paint2_linear_493_3057)" fill-opacity="0.5"/>
</g>
<defs>
<filter id="filter0_f_493_3057" x="0.387695" y="23.1187" width="542.368" height="542.368" filterUnits="userSpaceOnUse" color-interpolation-filters="sRGB">
<feFlood flood-opacity="0" result="BackgroundImageFix"/>
<feBlend mode="normal" in="SourceGraphic" in2="BackgroundImageFix" result="shape"/>
<feGaussianBlur stdDeviation="48.8062" result="effect1_foregroundBlur_493_3057"/>
</filter>
<filter id="filter1_f_493_3057" x="103.826" y="0.790771" width="448.98" height="408.445" filterUnits="userSpaceOnUse" color-interpolation-filters="sRGB">
<feFlood flood-opacity="0" result="BackgroundImageFix"/>
<feBlend mode="normal" in="SourceGraphic" in2="BackgroundImageFix" result="shape"/>
<feGaussianBlur stdDeviation="36.6046" result="effect1_foregroundBlur_493_3057"/>
</filter>
<filter id="filter2_f_493_3057" x="0.387695" y="23.1187" width="542.368" height="542.368" filterUnits="userSpaceOnUse" color-interpolation-filters="sRGB">
<feFlood flood-opacity="0" result="BackgroundImageFix"/>
<feBlend mode="normal" in="SourceGraphic" in2="BackgroundImageFix" result="shape"/>
<feGaussianBlur stdDeviation="48.8062" result="effect1_foregroundBlur_493_3057"/>
</filter>
<linearGradient id="paint0_linear_493_3057" x1="133.883" y1="144.653" x2="376.159" y2="467.874" gradientUnits="userSpaceOnUse">
<stop stop-color="#6100FF"/>
<stop offset="1" stop-color="#6100FF" stop-opacity="0"/>
</linearGradient>
<linearGradient id="paint1_linear_493_3057" x1="328.316" y1="74" x2="328.316" y2="423.368" gradientUnits="userSpaceOnUse">
<stop stop-color="#8E27D8"/>
<stop offset="1" stop-color="#8E27D8" stop-opacity="0"/>
</linearGradient>
<linearGradient id="paint2_linear_493_3057" x1="133.883" y1="144.653" x2="376.159" y2="467.874" gradientUnits="userSpaceOnUse">
<stop stop-color="#6100FF"/>
<stop offset="1" stop-color="#6100FF" stop-opacity="0"/>
</linearGradient>
<clipPath id="clip0_493_3057">
<rect width="479" height="351.606" fill="white" transform="translate(51 116)"/>
</clipPath>
</defs>
</svg>
