<svg width="90" height="90" viewBox="0 0 90 90" fill="none" xmlns="http://www.w3.org/2000/svg">
<path d="M45 90C69.8528 90 90 69.8528 90 45C90 20.1472 69.8528 0 45 0C20.1472 0 0 20.1472 0 45C0 69.8528 20.1472 90 45 90Z" fill="white"/>
<path d="M26.0999 36.5999H34.7999V64.5999H26.0999V36.5999V36.5999ZM30.4999 22.7C33.2999 22.7 35.4999 25 35.4999 27.7C35.4999 30.5 33.1999 32.7 30.4999 32.7C27.6999 32.7 25.3999 30.4 25.3999 27.7C25.3999 25 27.6999 22.7 30.4999 22.7Z" fill="#9A00E4"/>
<path d="M40.2999 36.6H48.5999V40.4H48.7C49.9 38.2 52.7 35.9 56.9 35.9C65.7 35.9 67.3 41.7 67.3 49.2V64.6H58.5999V51C58.5999 47.8 58.4999 43.6 54.0999 43.6C49.5999 43.6 48.9 47.1 48.9 50.8V64.6H40.2V36.6H40.2999Z" fill="#9A00E4"/>
</svg>
