<?xml version="1.0" encoding="utf-8"?>
<!-- Generator: Adobe Illustrator 25.4.1, SVG Export Plug-In . SVG Version: 6.00 Build 0)  -->
<svg version="1.1" id="Capa_1" xmlns="http://www.w3.org/2000/svg" xmlns:xlink="http://www.w3.org/1999/xlink" x="0px" y="0px"
	 viewBox="0 0 1586.7 500" style="enable-background:new 0 0 1586.7 500;" xml:space="preserve">
<style type="text/css">
	.st0{fill-rule:evenodd;clip-rule:evenodd;fill:#E7E6E8;}
</style>
<g>
	<path class="st0" d="M797.9,319.6h24.3V215.4h-24.3V319.6z M797.9,199.6h24.3v-25.9h-24.3V199.6z"/>
	<path class="st0" d="M688.5,173.7h26.2v122.1h58.9v23.7h-85.1L688.5,173.7L688.5,173.7z"/>
	<path class="st0" d="M941.9,230.8c6.6,8.4,9.8,19.8,9.8,34.1v57h-25.3V267c0-9.5-1.6-16.6-4.8-21.2c-3.2-4.5-8.3-6.8-15.4-6.8
		c-7.8,0-14.2,2.9-19.2,8.8v74.1h-25.3V219.8h23.7l0.4,7.1c8.6-5.9,17.7-8.8,27.4-8.8C925.8,218.2,935.4,222.4,941.9,230.8z"/>
	<path class="st0" d="M984.3,179h25.3v82.7l31.6-41.9h28.6l-37.2,49l38,53.1H1042l-32.5-45.3v45.3h-25.3L984.3,179L984.3,179z"/>
	<path class="st0" d="M1144.3,250.4c9,0,15.7-2,20.1-6.1c4.4-4.1,6.6-10.3,6.6-18.8c0-8.4-2.2-14.7-6.8-18.7c-4.5-4-11.4-6-20.6-6
		h-21.7v49.7L1144.3,250.4L1144.3,250.4z M1095.8,179h50.9c33.9,0,50.9,15.4,50.9,46.1c0,15.9-4.3,27.8-12.9,35.5
		c-8.6,7.8-21.1,11.6-37.4,11.6H1122v49.7h-26.1L1095.8,179L1095.8,179z"/>
	<path class="st0" d="M1282.3,294.3c4.7-5.9,7-13.6,7-23.3c0-9.8-2.3-17.7-7-23.6c-4.7-5.9-11.2-8.9-19.5-8.9
		c-8.3,0-14.8,3-19.5,8.9c-4.7,5.9-7,13.8-7,23.6c0,9.7,2.3,17.4,7,23.3s11.2,8.8,19.5,8.8C1271.1,303.1,1277.5,300.2,1282.3,294.3z
		 M1234.8,316.8c-7.9-4.7-14-11.1-18.2-19.2c-4.2-8.1-6.3-16.9-6.3-26.6c0-9.7,2.1-18.6,6.3-26.8c4.2-8.2,10.3-14.7,18.2-19.4
		c7.9-4.8,17.2-7.1,28-7.1c10.7,0,20.1,2.4,27.9,7.1c7.9,4.7,14,11.2,18.2,19.4c4.2,8.2,6.3,17.1,6.3,26.8c0,9.7-2.1,18.5-6.3,26.6
		c-4.2,8-10.3,14.5-18.2,19.2s-17.2,7.1-27.9,7.1C1252,324,1242.7,321.6,1234.8,316.8z"/>
	<path class="st0" d="M1403.7,294.3c4.7-5.9,7-13.6,7-23.3c0-9.8-2.3-17.7-7-23.6c-4.7-5.9-11.2-8.9-19.5-8.9
		c-8.3,0-14.8,3-19.5,8.9c-4.7,5.9-7,13.8-7,23.6c0,9.7,2.3,17.4,7,23.3s11.2,8.8,19.5,8.8C1392.5,303.1,1398.9,300.2,1403.7,294.3z
		 M1356.2,316.8c-7.9-4.7-14-11.1-18.2-19.2c-4.2-8.1-6.3-16.9-6.3-26.6c0-9.7,2.1-18.6,6.3-26.8c4.2-8.2,10.3-14.7,18.2-19.4
		c7.9-4.8,17.2-7.1,28-7.1c10.7,0,20.1,2.4,27.9,7.1c7.9,4.7,14,11.2,18.2,19.4c4.2,8.2,6.3,17.1,6.3,26.8c0,9.7-2.1,18.5-6.3,26.6
		c-4.2,8-10.2,14.5-18.2,19.2c-7.9,4.7-17.2,7.1-27.9,7.1C1373.4,324,1364,321.6,1356.2,316.8z"/>
	<path class="st0" d="M1459,322h25.3V179H1459L1459,322L1459,322z"/>
	<path class="st0" d="M443.9,86.5l-27.6,16v21.2l27.6-16l57.3,33v65.9L368.3,283v31.3l18.3,10.6v-31.3L519.5,217v-87L443.9,86.5z"/>
	<path class="st0" d="M368.3,435.9l-57.3,33l-57.3-33V299.2c0-10-5.4-19.4-14.2-24.4l-13.4-7.6l-18.6,10.7l22.9,12.8
		c3,1.8,4.9,5,4.9,8.5v147.3L311,490l75.7-43.5v-32.1l-18.4-10.6V435.9z"/>
	<path class="st0" d="M120.7,359.4v-65.9l57.2-33h0.1l75.6-43.6v-31.5L235.3,175v31.5L102.4,283v87l75.6,43.5l27.8-16.3v-21.1
		L178,392.4L120.7,359.4z"/>
	<path class="st0" d="M253.7,64.1l57.3-33l57.3,33v153l27.8,15.6l18.5-10.6l-27.9-15.5v-153L311,10l-75.7,43.5v31.6l18.3,10.6
		L253.7,64.1L253.7,64.1z"/>
	<path class="st0" d="M148.2,222l-27.4-15.5v-65.9l57.3-33l132.9,76.5l27.6-16.4v-21.2l-27.6,16.4L178,86.5L102.4,130v87l27.3,15.6
		L148.2,222z"/>
	<path class="st0" d="M519.5,315.5v-32.4l-27.1-15.9l-18.6,10.7l27.3,15.8v21.8v43.9l-57.2,33L311,315.9l-27.4,16v21.2l27.4-16
		l132.9,76.5l75.1-43.3l0.5-0.2V370C519.5,370,519.5,315.5,519.5,315.5z"/>
</g>
</svg>
