<svg width="40" height="40" viewBox="0 0 40 40" fill="none" xmlns="http://www.w3.org/2000/svg">
<g filter="url(#filter0_di_213_2076)">
<circle cx="20" cy="16" r="16" fill="white"/>
</g>
<path fill-rule="evenodd" clip-rule="evenodd" d="M13.3068 8.0913C12.3752 8.4207 11.8193 9.41895 12.0535 10.3419C12.2224 11.0075 12.6738 11.51 13.3026 11.7324C13.6528 11.8561 14.1907 11.8561 14.5409 11.7324C15.4529 11.4099 15.9843 10.4884 15.8086 9.534C15.7891 9.42836 15.7097 9.21352 15.6322 9.0566C15.4056 8.59799 15.0288 8.26527 14.5409 8.09273C14.1927 7.96965 13.6526 7.96901 13.3068 8.0913ZM23.4992 13.0706C22.5154 13.1943 21.5371 13.7673 21.0766 14.4896C20.9885 14.6278 20.9047 14.7418 20.8904 14.743C20.8762 14.7441 20.8601 14.4201 20.8548 14.0229L20.8452 13.3007H19.2612H17.6771V18.6503V24H19.3324H20.9876L21.0065 20.8437C21.0252 17.7293 21.0265 17.6837 21.1038 17.4077C21.2795 16.7802 21.5526 16.3998 21.9786 16.1888C22.8118 15.7762 23.8913 15.9546 24.2994 16.5724C24.4256 16.7635 24.5469 17.0958 24.6229 17.4588C24.6792 17.7276 24.6877 18.0831 24.7054 20.8794L24.7252 24H26.3626H28V20.5584C28 17.9559 27.9887 17.0211 27.9537 16.7245C27.6923 14.5125 26.8507 13.4639 25.0633 13.1229C24.6964 13.0529 23.862 13.025 23.4992 13.0706ZM12.2653 13.3271C12.2559 13.3518 12.2524 15.7633 12.2574 18.686L12.2665 24H13.9217H15.577V18.6503V13.3007L13.9296 13.2914C12.6308 13.2841 12.2788 13.2916 12.2653 13.3271Z" fill="#8E27D8"/>
<defs>
<filter id="filter0_di_213_2076" x="0" y="0" width="40" height="40" filterUnits="userSpaceOnUse" color-interpolation-filters="sRGB">
<feFlood flood-opacity="0" result="BackgroundImageFix"/>
<feColorMatrix in="SourceAlpha" type="matrix" values="0 0 0 0 0 0 0 0 0 0 0 0 0 0 0 0 0 0 127 0" result="hardAlpha"/>
<feOffset dy="4"/>
<feGaussianBlur stdDeviation="2"/>
<feComposite in2="hardAlpha" operator="out"/>
<feColorMatrix type="matrix" values="0 0 0 0 0 0 0 0 0 0 0 0 0 0 0 0 0 0 0.1 0"/>
<feBlend mode="normal" in2="BackgroundImageFix" result="effect1_dropShadow_213_2076"/>
<feBlend mode="normal" in="SourceGraphic" in2="effect1_dropShadow_213_2076" result="shape"/>
<feColorMatrix in="SourceAlpha" type="matrix" values="0 0 0 0 0 0 0 0 0 0 0 0 0 0 0 0 0 0 127 0" result="hardAlpha"/>
<feOffset dx="2" dy="4"/>
<feGaussianBlur stdDeviation="2"/>
<feComposite in2="hardAlpha" operator="arithmetic" k2="-1" k3="1"/>
<feColorMatrix type="matrix" values="0 0 0 0 0 0 0 0 0 0 0 0 0 0 0 0 0 0 0.03 0"/>
<feBlend mode="normal" in2="shape" result="effect2_innerShadow_213_2076"/>
</filter>
</defs>
</svg>
