<svg width="90" height="90" viewBox="0 0 90 90" fill="none" xmlns="http://www.w3.org/2000/svg">
<path d="M45 90C69.8528 90 90 69.8528 90 45C90 20.1472 69.8528 0 45 0C20.1472 0 0 20.1472 0 45C0 69.8528 20.1472 90 45 90Z" fill="white"/>
<path d="M71.4001 25L67.2001 29C66.8001 29.3 66.7001 29.7 66.7001 30.2V59.9C66.6001 60.4 66.8001 60.8 67.2001 61.1L71.3001 65.1V66H50.6001V65.1L54.9001 61C55.3001 60.6 55.3001 60.5 55.3001 59.8V35.8L43.4001 65.8H41.8001L28.0001 35.8V56C27.9001 56.8 28.2001 57.7 28.8001 58.3L34.3001 65V65.9H18.6001V65L24.1001 58.3C24.7001 57.7 25.0001 56.8 24.8001 56V32.6C24.9001 31.9 24.6001 31.3 24.1001 30.9L19.2001 25V24.1H34.5001L46.3001 50L56.7001 24.1H71.3001L71.4001 25Z" fill="#9A00E4"/>
</svg>
