<svg width="270" height="219" viewBox="0 0 270 219" fill="none" xmlns="http://www.w3.org/2000/svg">
<path d="M0 213C0 216.314 2.68629 219 6 219H262C265.314 219 268 216.314 268 213V6C268 2.68629 265.314 0 262 0H6C2.68629 0 0 2.68629 0 6V213Z" fill="#E6E6E6"/>
<path d="M5 208C5 211.314 7.68629 214 11 214H257C260.314 214 263 211.314 263 208V11C263 7.6863 260.314 5 257 5H11C7.68629 5 5 7.68629 5 11V208Z" fill="white"/>
<path d="M30.918 83.85H24.222L22.836 87H20.982L26.688 74.4H28.47L34.194 87H32.304L30.918 83.85ZM30.288 82.41L27.57 76.236L24.852 82.41H30.288ZM45.1837 73.644V87H43.5277V85.488C43.1437 86.016 42.6577 86.418 42.0697 86.694C41.4817 86.97 40.8337 87.108 40.1257 87.108C39.2017 87.108 38.3737 86.904 37.6417 86.496C36.9097 86.088 36.3337 85.518 35.9137 84.786C35.5057 84.042 35.3017 83.19 35.3017 82.23C35.3017 81.27 35.5057 80.424 35.9137 79.692C36.3337 78.96 36.9097 78.39 37.6417 77.982C38.3737 77.574 39.2017 77.37 40.1257 77.37C40.8097 77.37 41.4397 77.502 42.0157 77.766C42.5917 78.018 43.0717 78.396 43.4557 78.9V73.644H45.1837ZM40.2697 85.596C40.8697 85.596 41.4157 85.458 41.9077 85.182C42.3997 84.894 42.7837 84.498 43.0597 83.994C43.3357 83.478 43.4737 82.89 43.4737 82.23C43.4737 81.57 43.3357 80.988 43.0597 80.484C42.7837 79.968 42.3997 79.572 41.9077 79.296C41.4157 79.02 40.8697 78.882 40.2697 78.882C39.6577 78.882 39.1057 79.02 38.6137 79.296C38.1337 79.572 37.7497 79.968 37.4617 80.484C37.1857 80.988 37.0477 81.57 37.0477 82.23C37.0477 82.89 37.1857 83.478 37.4617 83.994C37.7497 84.498 38.1337 84.894 38.6137 85.182C39.1057 85.458 39.6577 85.596 40.2697 85.596ZM57.9032 73.644V87H56.2472V85.488C55.8632 86.016 55.3772 86.418 54.7892 86.694C54.2012 86.97 53.5532 87.108 52.8452 87.108C51.9212 87.108 51.0932 86.904 50.3612 86.496C49.6292 86.088 49.0532 85.518 48.6332 84.786C48.2252 84.042 48.0212 83.19 48.0212 82.23C48.0212 81.27 48.2252 80.424 48.6332 79.692C49.0532 78.96 49.6292 78.39 50.3612 77.982C51.0932 77.574 51.9212 77.37 52.8452 77.37C53.5292 77.37 54.1592 77.502 54.7352 77.766C55.3112 78.018 55.7912 78.396 56.1752 78.9V73.644H57.9032ZM52.9892 85.596C53.5892 85.596 54.1352 85.458 54.6272 85.182C55.1192 84.894 55.5032 84.498 55.7792 83.994C56.0552 83.478 56.1932 82.89 56.1932 82.23C56.1932 81.57 56.0552 80.988 55.7792 80.484C55.5032 79.968 55.1192 79.572 54.6272 79.296C54.1352 79.02 53.5892 78.882 52.9892 78.882C52.3772 78.882 51.8252 79.02 51.3332 79.296C50.8532 79.572 50.4692 79.968 50.1812 80.484C49.9052 80.988 49.7672 81.57 49.7672 82.23C49.7672 82.89 49.9052 83.478 50.1812 83.994C50.4692 84.498 50.8532 84.894 51.3332 85.182C51.8252 85.458 52.3772 85.596 52.9892 85.596ZM69.6607 75.966H65.3407V74.4H75.7627V75.966H71.4427V87H69.6607V75.966ZM81.0228 87.108C80.0748 87.108 79.2228 86.898 78.4668 86.478C77.7108 86.058 77.1168 85.482 76.6848 84.75C76.2648 84.006 76.0548 83.166 76.0548 82.23C76.0548 81.294 76.2648 80.46 76.6848 79.728C77.1168 78.984 77.7108 78.408 78.4668 78C79.2228 77.58 80.0748 77.37 81.0228 77.37C81.9708 77.37 82.8168 77.58 83.5608 78C84.3168 78.408 84.9048 78.984 85.3248 79.728C85.7568 80.46 85.9728 81.294 85.9728 82.23C85.9728 83.166 85.7568 84.006 85.3248 84.75C84.9048 85.482 84.3168 86.058 83.5608 86.478C82.8168 86.898 81.9708 87.108 81.0228 87.108ZM81.0228 85.596C81.6348 85.596 82.1808 85.458 82.6608 85.182C83.1528 84.894 83.5368 84.498 83.8128 83.994C84.0888 83.478 84.2268 82.89 84.2268 82.23C84.2268 81.57 84.0888 80.988 83.8128 80.484C83.5368 79.968 83.1528 79.572 82.6608 79.296C82.1808 79.02 81.6348 78.882 81.0228 78.882C80.4108 78.882 79.8588 79.02 79.3668 79.296C78.8868 79.572 78.5028 79.968 78.2148 80.484C77.9388 80.988 77.8008 81.57 77.8008 82.23C77.8008 82.89 77.9388 83.478 78.2148 83.994C78.5028 84.498 78.8868 84.894 79.3668 85.182C79.8588 85.458 80.4108 85.596 81.0228 85.596ZM92.5206 82.554L90.5406 84.39V87H88.8126V73.644H90.5406V82.212L95.7426 77.46H97.8306L93.8166 81.402L98.2266 87H96.1026L92.5206 82.554ZM108.572 82.284C108.572 82.416 108.56 82.59 108.536 82.806H100.796C100.904 83.646 101.27 84.324 101.894 84.84C102.53 85.344 103.316 85.596 104.252 85.596C105.392 85.596 106.31 85.212 107.006 84.444L107.96 85.56C107.528 86.064 106.988 86.448 106.34 86.712C105.704 86.976 104.99 87.108 104.198 87.108C103.19 87.108 102.296 86.904 101.516 86.496C100.736 86.076 100.13 85.494 99.6981 84.75C99.2781 84.006 99.0681 83.166 99.0681 82.23C99.0681 81.306 99.2721 80.472 99.6801 79.728C100.1 78.984 100.67 78.408 101.39 78C102.122 77.58 102.944 77.37 103.856 77.37C104.768 77.37 105.578 77.58 106.286 78C107.006 78.408 107.564 78.984 107.96 79.728C108.368 80.472 108.572 81.324 108.572 82.284ZM103.856 78.828C103.028 78.828 102.332 79.08 101.768 79.584C101.216 80.088 100.892 80.748 100.796 81.564H106.916C106.82 80.76 106.49 80.106 105.926 79.602C105.374 79.086 104.684 78.828 103.856 78.828ZM116.516 77.37C117.728 77.37 118.688 77.724 119.396 78.432C120.116 79.128 120.476 80.154 120.476 81.51V87H118.748V81.708C118.748 80.784 118.526 80.088 118.082 79.62C117.638 79.152 117.002 78.918 116.174 78.918C115.238 78.918 114.5 79.194 113.96 79.746C113.42 80.286 113.15 81.066 113.15 82.086V87H111.422V77.46H113.078V78.9C113.426 78.408 113.894 78.03 114.482 77.766C115.082 77.502 115.76 77.37 116.516 77.37ZM126.86 87.108C126.08 87.108 125.33 87.006 124.61 86.802C123.89 86.586 123.326 86.316 122.918 85.992L123.638 84.624C124.058 84.924 124.568 85.164 125.168 85.344C125.768 85.524 126.374 85.614 126.986 85.614C128.498 85.614 129.254 85.182 129.254 84.318C129.254 84.03 129.152 83.802 128.948 83.634C128.744 83.466 128.486 83.346 128.174 83.274C127.874 83.19 127.442 83.1 126.878 83.004C126.11 82.884 125.48 82.746 124.988 82.59C124.508 82.434 124.094 82.17 123.746 81.798C123.398 81.426 123.224 80.904 123.224 80.232C123.224 79.368 123.584 78.678 124.304 78.162C125.024 77.634 125.99 77.37 127.202 77.37C127.838 77.37 128.474 77.448 129.11 77.604C129.746 77.76 130.268 77.97 130.676 78.234L129.938 79.602C129.158 79.098 128.24 78.846 127.184 78.846C126.452 78.846 125.894 78.966 125.51 79.206C125.126 79.446 124.934 79.764 124.934 80.16C124.934 80.472 125.042 80.718 125.258 80.898C125.474 81.078 125.738 81.21 126.05 81.294C126.374 81.378 126.824 81.474 127.4 81.582C128.168 81.714 128.786 81.858 129.254 82.014C129.734 82.158 130.142 82.41 130.478 82.77C130.814 83.13 130.982 83.634 130.982 84.282C130.982 85.146 130.61 85.836 129.866 86.352C129.134 86.856 128.132 87.108 126.86 87.108Z" fill="#40444F"/>
<path d="M24.732 123.12C24.084 123.12 23.456 123.028 22.848 122.844C22.248 122.66 21.772 122.416 21.42 122.112L21.96 120.9C22.304 121.172 22.724 121.396 23.22 121.572C23.724 121.74 24.228 121.824 24.732 121.824C25.356 121.824 25.82 121.724 26.124 121.524C26.436 121.324 26.592 121.06 26.592 120.732C26.592 120.492 26.504 120.296 26.328 120.144C26.16 119.984 25.944 119.86 25.68 119.772C25.416 119.684 25.056 119.584 24.6 119.472C23.96 119.32 23.44 119.168 23.04 119.016C22.648 118.864 22.308 118.628 22.02 118.308C21.74 117.98 21.6 117.54 21.6 116.988C21.6 116.524 21.724 116.104 21.972 115.728C22.228 115.344 22.608 115.04 23.112 114.816C23.624 114.592 24.248 114.48 24.984 114.48C25.496 114.48 26 114.544 26.496 114.672C26.992 114.8 27.42 114.984 27.78 115.224L27.288 116.436C26.92 116.22 26.536 116.056 26.136 115.944C25.736 115.832 25.348 115.776 24.972 115.776C24.356 115.776 23.896 115.88 23.592 116.088C23.296 116.296 23.148 116.572 23.148 116.916C23.148 117.156 23.232 117.352 23.4 117.504C23.576 117.656 23.796 117.776 24.06 117.864C24.324 117.952 24.684 118.052 25.14 118.164C25.764 118.308 26.276 118.46 26.676 118.62C27.076 118.772 27.416 119.008 27.696 119.328C27.984 119.648 28.128 120.08 28.128 120.624C28.128 121.088 28 121.508 27.744 121.884C27.496 122.26 27.116 122.56 26.604 122.784C26.092 123.008 25.468 123.12 24.732 123.12ZM35.8549 119.832C35.8549 119.936 35.8469 120.084 35.8309 120.276H30.8029C30.8909 120.748 31.1189 121.124 31.4869 121.404C31.8629 121.676 32.3269 121.812 32.8789 121.812C33.5829 121.812 34.1629 121.58 34.6189 121.116L35.4229 122.04C35.1349 122.384 34.7709 122.644 34.3309 122.82C33.8909 122.996 33.3949 123.084 32.8429 123.084C32.1389 123.084 31.5189 122.944 30.9829 122.664C30.4469 122.384 30.0309 121.996 29.7349 121.5C29.4469 120.996 29.3029 120.428 29.3029 119.796C29.3029 119.172 29.4429 118.612 29.7229 118.116C30.0109 117.612 30.4069 117.22 30.9109 116.94C31.4149 116.66 31.9829 116.52 32.6149 116.52C33.2389 116.52 33.7949 116.66 34.2829 116.94C34.7789 117.212 35.1629 117.6 35.4349 118.104C35.7149 118.6 35.8549 119.176 35.8549 119.832ZM32.6149 117.72C32.1349 117.72 31.7269 117.864 31.3909 118.152C31.0629 118.432 30.8629 118.808 30.7909 119.28H34.4269C34.3629 118.816 34.1669 118.44 33.8389 118.152C33.5109 117.864 33.1029 117.72 32.6149 117.72ZM39.8679 116.52C40.8119 116.52 41.5319 116.748 42.0279 117.204C42.5319 117.652 42.7839 118.332 42.7839 119.244V123H41.3679V122.22C41.1839 122.5 40.9199 122.716 40.5759 122.868C40.2399 123.012 39.8319 123.084 39.3519 123.084C38.8719 123.084 38.4519 123.004 38.0919 122.844C37.7319 122.676 37.4519 122.448 37.2519 122.16C37.0599 121.864 36.9639 121.532 36.9639 121.164C36.9639 120.588 37.1759 120.128 37.5999 119.784C38.0319 119.432 38.7079 119.256 39.6279 119.256H41.2839V119.16C41.2839 118.712 41.1479 118.368 40.8759 118.128C40.6119 117.888 40.2159 117.768 39.6879 117.768C39.3279 117.768 38.9719 117.824 38.6199 117.936C38.2759 118.048 37.9839 118.204 37.7439 118.404L37.1559 117.312C37.4919 117.056 37.8959 116.86 38.3679 116.724C38.8399 116.588 39.3399 116.52 39.8679 116.52ZM39.6639 121.992C40.0399 121.992 40.3719 121.908 40.6599 121.74C40.9559 121.564 41.1639 121.316 41.2839 120.996V120.252H39.7359C38.8719 120.252 38.4399 120.536 38.4399 121.104C38.4399 121.376 38.5479 121.592 38.7639 121.752C38.9799 121.912 39.2799 121.992 39.6639 121.992ZM46.437 117.528C46.869 116.856 47.629 116.52 48.717 116.52V117.948C48.589 117.924 48.473 117.912 48.369 117.912C47.785 117.912 47.329 118.084 47.001 118.428C46.673 118.764 46.509 119.252 46.509 119.892V123H45.009V116.592H46.437V117.528ZM53.1709 123.084C52.5069 123.084 51.9109 122.944 51.3829 122.664C50.8549 122.384 50.4429 121.996 50.1469 121.5C49.8509 120.996 49.7029 120.428 49.7029 119.796C49.7029 119.164 49.8509 118.6 50.1469 118.104C50.4429 117.608 50.8509 117.22 51.3709 116.94C51.8989 116.66 52.4989 116.52 53.1709 116.52C53.8029 116.52 54.3549 116.648 54.8269 116.904C55.3069 117.16 55.6669 117.528 55.9069 118.008L54.7549 118.68C54.5709 118.384 54.3389 118.164 54.0589 118.02C53.7869 117.868 53.4869 117.792 53.1589 117.792C52.5989 117.792 52.1349 117.976 51.7669 118.344C51.3989 118.704 51.2149 119.188 51.2149 119.796C51.2149 120.404 51.3949 120.892 51.7549 121.26C52.1229 121.62 52.5909 121.8 53.1589 121.8C53.4869 121.8 53.7869 121.728 54.0589 121.584C54.3389 121.432 54.5709 121.208 54.7549 120.912L55.9069 121.584C55.6589 122.064 55.2949 122.436 54.8149 122.7C54.3429 122.956 53.7949 123.084 53.1709 123.084ZM61.0809 116.52C61.8889 116.52 62.5369 116.756 63.0249 117.228C63.5129 117.7 63.7569 118.4 63.7569 119.328V123H62.2569V119.52C62.2569 118.96 62.1249 118.54 61.8609 118.26C61.5969 117.972 61.2209 117.828 60.7329 117.828C60.1809 117.828 59.7449 117.996 59.4249 118.332C59.1049 118.66 58.9449 119.136 58.9449 119.76V123H57.4449V114.096H58.9449V117.336C59.1929 117.072 59.4969 116.872 59.8569 116.736C60.2249 116.592 60.6329 116.52 61.0809 116.52Z" fill="#9A9A9A"/>
<path d="M97.016 123.12C96.168 123.12 95.4 122.936 94.712 122.568C94.032 122.192 93.496 121.676 93.104 121.02C92.72 120.364 92.528 119.624 92.528 118.8C92.528 117.976 92.724 117.236 93.116 116.58C93.508 115.924 94.044 115.412 94.724 115.044C95.412 114.668 96.18 114.48 97.028 114.48C97.716 114.48 98.344 114.6 98.912 114.84C99.48 115.08 99.96 115.428 100.352 115.884L99.344 116.832C98.736 116.176 97.988 115.848 97.1 115.848C96.524 115.848 96.008 115.976 95.552 116.232C95.096 116.48 94.74 116.828 94.484 117.276C94.228 117.724 94.1 118.232 94.1 118.8C94.1 119.368 94.228 119.876 94.484 120.324C94.74 120.772 95.096 121.124 95.552 121.38C96.008 121.628 96.524 121.752 97.1 121.752C97.988 121.752 98.736 121.42 99.344 120.756L100.352 121.716C99.96 122.172 99.476 122.52 98.9 122.76C98.332 123 97.704 123.12 97.016 123.12ZM108.031 116.592V123H106.603V122.184C106.363 122.472 106.063 122.696 105.703 122.856C105.343 123.008 104.955 123.084 104.539 123.084C103.683 123.084 103.007 122.848 102.511 122.376C102.023 121.896 101.779 121.188 101.779 120.252V116.592H103.279V120.048C103.279 120.624 103.407 121.056 103.663 121.344C103.927 121.624 104.299 121.764 104.779 121.764C105.315 121.764 105.739 121.6 106.051 121.272C106.371 120.936 106.531 120.456 106.531 119.832V116.592H108.031ZM112.275 123.084C111.755 123.084 111.247 123.016 110.751 122.88C110.255 122.744 109.859 122.572 109.563 122.364L110.139 121.224C110.427 121.416 110.771 121.572 111.171 121.692C111.579 121.804 111.979 121.86 112.371 121.86C113.267 121.86 113.715 121.624 113.715 121.152C113.715 120.928 113.599 120.772 113.367 120.684C113.143 120.596 112.779 120.512 112.275 120.432C111.747 120.352 111.315 120.26 110.979 120.156C110.651 120.052 110.363 119.872 110.115 119.616C109.875 119.352 109.755 118.988 109.755 118.524C109.755 117.916 110.007 117.432 110.511 117.072C111.023 116.704 111.711 116.52 112.575 116.52C113.015 116.52 113.455 116.572 113.895 116.676C114.335 116.772 114.695 116.904 114.975 117.072L114.399 118.212C113.855 117.892 113.243 117.732 112.563 117.732C112.123 117.732 111.787 117.8 111.555 117.936C111.331 118.064 111.219 118.236 111.219 118.452C111.219 118.692 111.339 118.864 111.579 118.968C111.827 119.064 112.207 119.156 112.719 119.244C113.231 119.324 113.651 119.416 113.979 119.52C114.307 119.624 114.587 119.8 114.819 120.048C115.059 120.296 115.179 120.648 115.179 121.104C115.179 121.704 114.919 122.184 114.399 122.544C113.879 122.904 113.171 123.084 112.275 123.084ZM120.623 122.652C120.447 122.796 120.231 122.904 119.975 122.976C119.727 123.048 119.463 123.084 119.183 123.084C118.479 123.084 117.935 122.9 117.551 122.532C117.167 122.164 116.975 121.628 116.975 120.924V117.84H115.919V116.64H116.975V115.176H118.475V116.64H120.191V117.84H118.475V120.888C118.475 121.2 118.551 121.44 118.703 121.608C118.855 121.768 119.075 121.848 119.363 121.848C119.699 121.848 119.979 121.76 120.203 121.584L120.623 122.652ZM124.826 123.084C124.178 123.084 123.594 122.944 123.074 122.664C122.554 122.384 122.146 121.996 121.85 121.5C121.562 120.996 121.418 120.428 121.418 119.796C121.418 119.164 121.562 118.6 121.85 118.104C122.146 117.608 122.554 117.22 123.074 116.94C123.594 116.66 124.178 116.52 124.826 116.52C125.482 116.52 126.07 116.66 126.59 116.94C127.11 117.22 127.514 117.608 127.802 118.104C128.098 118.6 128.246 119.164 128.246 119.796C128.246 120.428 128.098 120.996 127.802 121.5C127.514 121.996 127.11 122.384 126.59 122.664C126.07 122.944 125.482 123.084 124.826 123.084ZM124.826 121.8C125.378 121.8 125.834 121.616 126.194 121.248C126.554 120.88 126.734 120.396 126.734 119.796C126.734 119.196 126.554 118.712 126.194 118.344C125.834 117.976 125.378 117.792 124.826 117.792C124.274 117.792 123.818 117.976 123.458 118.344C123.106 118.712 122.93 119.196 122.93 119.796C122.93 120.396 123.106 120.88 123.458 121.248C123.818 121.616 124.274 121.8 124.826 121.8ZM138.068 116.52C138.876 116.52 139.516 116.756 139.988 117.228C140.46 117.692 140.696 118.392 140.696 119.328V123H139.196V119.52C139.196 118.96 139.072 118.54 138.824 118.26C138.576 117.972 138.22 117.828 137.756 117.828C137.252 117.828 136.848 117.996 136.544 118.332C136.24 118.66 136.088 119.132 136.088 119.748V123H134.588V119.52C134.588 118.96 134.464 118.54 134.216 118.26C133.968 117.972 133.612 117.828 133.148 117.828C132.636 117.828 132.228 117.992 131.924 118.32C131.628 118.648 131.48 119.124 131.48 119.748V123H129.98V116.592H131.408V117.408C131.648 117.12 131.948 116.9 132.308 116.748C132.668 116.596 133.068 116.52 133.508 116.52C133.988 116.52 134.412 116.612 134.78 116.796C135.156 116.972 135.452 117.236 135.668 117.588C135.932 117.252 136.272 116.992 136.688 116.808C137.104 116.616 137.564 116.52 138.068 116.52ZM148.377 115.92H145.593V114.6H152.721V115.92H149.937V123H148.377V115.92ZM156.272 123.084C155.624 123.084 155.04 122.944 154.52 122.664C154 122.384 153.592 121.996 153.296 121.5C153.008 120.996 152.864 120.428 152.864 119.796C152.864 119.164 153.008 118.6 153.296 118.104C153.592 117.608 154 117.22 154.52 116.94C155.04 116.66 155.624 116.52 156.272 116.52C156.928 116.52 157.516 116.66 158.036 116.94C158.556 117.22 158.96 117.608 159.248 118.104C159.544 118.6 159.692 119.164 159.692 119.796C159.692 120.428 159.544 120.996 159.248 121.5C158.96 121.996 158.556 122.384 158.036 122.664C157.516 122.944 156.928 123.084 156.272 123.084ZM156.272 121.8C156.824 121.8 157.28 121.616 157.64 121.248C158 120.88 158.18 120.396 158.18 119.796C158.18 119.196 158 118.712 157.64 118.344C157.28 117.976 156.824 117.792 156.272 117.792C155.72 117.792 155.264 117.976 154.904 118.344C154.552 118.712 154.376 119.196 154.376 119.796C154.376 120.396 154.552 120.88 154.904 121.248C155.264 121.616 155.72 121.8 156.272 121.8ZM164.042 120.252L162.926 121.308V123H161.426V114.096H162.926V119.472L166.034 116.592H167.834L165.158 119.28L168.086 123H166.262L164.042 120.252ZM175.11 119.832C175.11 119.936 175.102 120.084 175.086 120.276H170.058C170.146 120.748 170.374 121.124 170.742 121.404C171.118 121.676 171.582 121.812 172.134 121.812C172.838 121.812 173.418 121.58 173.874 121.116L174.678 122.04C174.39 122.384 174.026 122.644 173.586 122.82C173.146 122.996 172.65 123.084 172.098 123.084C171.394 123.084 170.774 122.944 170.238 122.664C169.702 122.384 169.286 121.996 168.99 121.5C168.702 120.996 168.558 120.428 168.558 119.796C168.558 119.172 168.698 118.612 168.978 118.116C169.266 117.612 169.662 117.22 170.166 116.94C170.67 116.66 171.238 116.52 171.87 116.52C172.494 116.52 173.05 116.66 173.538 116.94C174.034 117.212 174.418 117.6 174.69 118.104C174.97 118.6 175.11 119.176 175.11 119.832ZM171.87 117.72C171.39 117.72 170.982 117.864 170.646 118.152C170.318 118.432 170.118 118.808 170.046 119.28H173.682C173.618 118.816 173.422 118.44 173.094 118.152C172.766 117.864 172.358 117.72 171.87 117.72ZM180.486 116.52C181.294 116.52 181.942 116.756 182.43 117.228C182.918 117.7 183.162 118.4 183.162 119.328V123H181.662V119.52C181.662 118.96 181.53 118.54 181.266 118.26C181.002 117.972 180.626 117.828 180.138 117.828C179.586 117.828 179.15 117.996 178.83 118.332C178.51 118.66 178.35 119.136 178.35 119.76V123H176.85V116.592H178.278V117.42C178.526 117.124 178.838 116.9 179.214 116.748C179.59 116.596 180.014 116.52 180.486 116.52Z" fill="#40444F"/>
<path d="M23.366 175.962H22.244V181H20.979V175.962H20.264V174.939H20.979V174.51C20.979 173.813 21.1623 173.307 21.529 172.992C21.903 172.669 22.486 172.508 23.278 172.508V173.553C22.8967 173.553 22.629 173.626 22.475 173.773C22.321 173.912 22.244 174.158 22.244 174.51V174.939H23.366V175.962ZM30.3073 177.821C30.3073 178.048 30.2927 178.254 30.2633 178.437H25.6323C25.669 178.921 25.8487 179.31 26.1713 179.603C26.494 179.896 26.89 180.043 27.3593 180.043C28.034 180.043 28.5107 179.761 28.7893 179.196H30.1423C29.959 179.753 29.6253 180.212 29.1413 180.571C28.6647 180.923 28.0707 181.099 27.3593 181.099C26.78 181.099 26.2593 180.971 25.7973 180.714C25.3427 180.45 24.9833 180.083 24.7193 179.614C24.4627 179.137 24.3343 178.587 24.3343 177.964C24.3343 177.341 24.459 176.794 24.7083 176.325C24.965 175.848 25.3207 175.482 25.7753 175.225C26.2373 174.968 26.7653 174.84 27.3593 174.84C27.9313 174.84 28.441 174.965 28.8883 175.214C29.3357 175.463 29.684 175.815 29.9333 176.27C30.1827 176.717 30.3073 177.234 30.3073 177.821ZM28.9983 177.425C28.991 176.963 28.826 176.593 28.5033 176.314C28.1807 176.035 27.781 175.896 27.3043 175.896C26.8717 175.896 26.5013 176.035 26.1933 176.314C25.8853 176.585 25.702 176.956 25.6433 177.425H28.9983ZM36.7334 173.949L33.6754 181H32.4104L35.5014 174.081H31.4314V173.014H36.7334V173.949ZM42.3937 174.84C42.313 174.503 42.1663 174.25 41.9537 174.081C41.741 173.912 41.444 173.828 41.0627 173.828C40.4833 173.828 40.0507 174.052 39.7647 174.499C39.4787 174.939 39.3283 175.672 39.3137 176.699C39.5043 176.376 39.783 176.127 40.1497 175.951C40.5163 175.775 40.9123 175.687 41.3377 175.687C41.8217 175.687 42.247 175.793 42.6137 176.006C42.9877 176.211 43.2773 176.512 43.4827 176.908C43.6953 177.304 43.8017 177.777 43.8017 178.327C43.8017 178.84 43.699 179.299 43.4937 179.702C43.2957 180.105 42.9987 180.424 42.6027 180.659C42.2067 180.886 41.73 181 41.1727 181C40.4173 181 39.8233 180.835 39.3907 180.505C38.9653 180.168 38.6647 179.695 38.4887 179.086C38.32 178.477 38.2357 177.718 38.2357 176.809C38.2357 174.125 39.1817 172.783 41.0737 172.783C41.807 172.783 42.3827 172.981 42.8007 173.377C43.226 173.773 43.4753 174.261 43.5487 174.84H42.3937ZM41.0627 176.743C40.6153 176.743 40.234 176.879 39.9187 177.15C39.6107 177.414 39.4567 177.799 39.4567 178.305C39.4567 178.811 39.5997 179.214 39.8857 179.515C40.179 179.808 40.586 179.955 41.1067 179.955C41.5687 179.955 41.9317 179.812 42.1957 179.526C42.467 179.24 42.6027 178.859 42.6027 178.382C42.6027 177.883 42.4707 177.487 42.2067 177.194C41.95 176.893 41.5687 176.743 41.0627 176.743ZM46.7673 176.809C46.0046 176.428 45.6233 175.826 45.6233 175.005C45.6233 174.609 45.7223 174.246 45.9203 173.916C46.1183 173.586 46.4153 173.326 46.8113 173.135C47.2073 172.937 47.6913 172.838 48.2633 172.838C48.828 172.838 49.3083 172.937 49.7043 173.135C50.1076 173.326 50.4083 173.586 50.6063 173.916C50.8043 174.246 50.9033 174.609 50.9033 175.005C50.9033 175.416 50.797 175.779 50.5843 176.094C50.379 176.402 50.104 176.64 49.7593 176.809C50.1773 176.963 50.5073 177.216 50.7493 177.568C50.9913 177.913 51.1123 178.32 51.1123 178.789C51.1123 179.266 50.9913 179.687 50.7493 180.054C50.5073 180.421 50.17 180.703 49.7373 180.901C49.3046 181.099 48.8133 181.198 48.2633 181.198C47.7133 181.198 47.222 181.099 46.7893 180.901C46.364 180.703 46.0303 180.421 45.7883 180.054C45.5463 179.687 45.4253 179.266 45.4253 178.789C45.4253 178.312 45.5463 177.902 45.7883 177.557C46.0303 177.212 46.3566 176.963 46.7673 176.809ZM49.7043 175.159C49.7043 174.748 49.576 174.433 49.3193 174.213C49.0626 173.993 48.7106 173.883 48.2633 173.883C47.8233 173.883 47.475 173.993 47.2183 174.213C46.9616 174.433 46.8333 174.752 46.8333 175.17C46.8333 175.537 46.9653 175.837 47.2293 176.072C47.5006 176.299 47.8453 176.413 48.2633 176.413C48.6813 176.413 49.026 176.296 49.2973 176.061C49.5686 175.826 49.7043 175.526 49.7043 175.159ZM48.2633 177.359C47.7793 177.359 47.3833 177.48 47.0753 177.722C46.7746 177.957 46.6243 178.298 46.6243 178.745C46.6243 179.163 46.771 179.504 47.0643 179.768C47.3576 180.025 47.7573 180.153 48.2633 180.153C48.762 180.153 49.1543 180.021 49.4403 179.757C49.7336 179.493 49.8803 179.156 49.8803 178.745C49.8803 178.305 49.73 177.964 49.4293 177.722C49.136 177.48 48.7473 177.359 48.2633 177.359ZM54.0569 176.809C53.2943 176.428 52.9129 175.826 52.9129 175.005C52.9129 174.609 53.0119 174.246 53.2099 173.916C53.4079 173.586 53.7049 173.326 54.1009 173.135C54.4969 172.937 54.9809 172.838 55.5529 172.838C56.1176 172.838 56.5979 172.937 56.9939 173.135C57.3973 173.326 57.6979 173.586 57.8959 173.916C58.0939 174.246 58.1929 174.609 58.1929 175.005C58.1929 175.416 58.0866 175.779 57.8739 176.094C57.6686 176.402 57.3936 176.64 57.0489 176.809C57.4669 176.963 57.7969 177.216 58.0389 177.568C58.2809 177.913 58.4019 178.32 58.4019 178.789C58.4019 179.266 58.2809 179.687 58.0389 180.054C57.7969 180.421 57.4596 180.703 57.0269 180.901C56.5943 181.099 56.1029 181.198 55.5529 181.198C55.0029 181.198 54.5116 181.099 54.0789 180.901C53.6536 180.703 53.3199 180.421 53.0779 180.054C52.8359 179.687 52.7149 179.266 52.7149 178.789C52.7149 178.312 52.8359 177.902 53.0779 177.557C53.3199 177.212 53.6463 176.963 54.0569 176.809ZM56.9939 175.159C56.9939 174.748 56.8656 174.433 56.6089 174.213C56.3523 173.993 56.0003 173.883 55.5529 173.883C55.1129 173.883 54.7646 173.993 54.5079 174.213C54.2513 174.433 54.1229 174.752 54.1229 175.17C54.1229 175.537 54.2549 175.837 54.5189 176.072C54.7903 176.299 55.1349 176.413 55.5529 176.413C55.9709 176.413 56.3156 176.296 56.5869 176.061C56.8583 175.826 56.9939 175.526 56.9939 175.159ZM55.5529 177.359C55.0689 177.359 54.6729 177.48 54.3649 177.722C54.0643 177.957 53.9139 178.298 53.9139 178.745C53.9139 179.163 54.0606 179.504 54.3539 179.768C54.6473 180.025 55.0469 180.153 55.5529 180.153C56.0516 180.153 56.4439 180.021 56.7299 179.757C57.0233 179.493 57.1699 179.156 57.1699 178.745C57.1699 178.305 57.0196 177.964 56.7189 177.722C56.4256 177.48 56.0369 177.359 55.5529 177.359ZM59.8396 179.328V178.382L63.5356 173.08H65.0536V178.239H66.0766V179.328H65.0536V181H63.8216V179.328H59.8396ZM63.8766 174.356L61.2806 178.239H63.8766V174.356ZM67.2257 174.125V172.981H69.5137V181H68.2487V174.125H67.2257ZM76.5934 173.949L73.5354 181H72.2704L75.3614 174.081H71.2914V173.014H76.5934V173.949ZM79.2946 176.809C78.532 176.428 78.1506 175.826 78.1506 175.005C78.1506 174.609 78.2496 174.246 78.4476 173.916C78.6456 173.586 78.9426 173.326 79.3386 173.135C79.7346 172.937 80.2186 172.838 80.7906 172.838C81.3553 172.838 81.8356 172.937 82.2316 173.135C82.635 173.326 82.9356 173.586 83.1336 173.916C83.3316 174.246 83.4306 174.609 83.4306 175.005C83.4306 175.416 83.3243 175.779 83.1116 176.094C82.9063 176.402 82.6313 176.64 82.2866 176.809C82.7046 176.963 83.0346 177.216 83.2766 177.568C83.5186 177.913 83.6396 178.32 83.6396 178.789C83.6396 179.266 83.5186 179.687 83.2766 180.054C83.0346 180.421 82.6973 180.703 82.2646 180.901C81.832 181.099 81.3406 181.198 80.7906 181.198C80.2406 181.198 79.7493 181.099 79.3166 180.901C78.8913 180.703 78.5576 180.421 78.3156 180.054C78.0736 179.687 77.9526 179.266 77.9526 178.789C77.9526 178.312 78.0736 177.902 78.3156 177.557C78.5576 177.212 78.884 176.963 79.2946 176.809ZM82.2316 175.159C82.2316 174.748 82.1033 174.433 81.8466 174.213C81.59 173.993 81.238 173.883 80.7906 173.883C80.3506 173.883 80.0023 173.993 79.7456 174.213C79.489 174.433 79.3606 174.752 79.3606 175.17C79.3606 175.537 79.4926 175.837 79.7566 176.072C80.028 176.299 80.3726 176.413 80.7906 176.413C81.2086 176.413 81.5533 176.296 81.8246 176.061C82.096 175.826 82.2316 175.526 82.2316 175.159ZM80.7906 177.359C80.3066 177.359 79.9106 177.48 79.6026 177.722C79.302 177.957 79.1516 178.298 79.1516 178.745C79.1516 179.163 79.2983 179.504 79.5916 179.768C79.885 180.025 80.2846 180.153 80.7906 180.153C81.2893 180.153 81.6816 180.021 81.9676 179.757C82.261 179.493 82.4076 179.156 82.4076 178.745C82.4076 178.305 82.2573 177.964 81.9566 177.722C81.6633 177.48 81.2746 177.359 80.7906 177.359ZM86.5843 176.809C85.8216 176.428 85.4403 175.826 85.4403 175.005C85.4403 174.609 85.5393 174.246 85.7373 173.916C85.9353 173.586 86.2323 173.326 86.6283 173.135C87.0243 172.937 87.5083 172.838 88.0803 172.838C88.645 172.838 89.1253 172.937 89.5213 173.135C89.9246 173.326 90.2253 173.586 90.4233 173.916C90.6213 174.246 90.7203 174.609 90.7203 175.005C90.7203 175.416 90.614 175.779 90.4013 176.094C90.196 176.402 89.921 176.64 89.5763 176.809C89.9943 176.963 90.3243 177.216 90.5663 177.568C90.8083 177.913 90.9293 178.32 90.9293 178.789C90.9293 179.266 90.8083 179.687 90.5663 180.054C90.3243 180.421 89.987 180.703 89.5543 180.901C89.1216 181.099 88.6303 181.198 88.0803 181.198C87.5303 181.198 87.039 181.099 86.6063 180.901C86.181 180.703 85.8473 180.421 85.6053 180.054C85.3633 179.687 85.2423 179.266 85.2423 178.789C85.2423 178.312 85.3633 177.902 85.6053 177.557C85.8473 177.212 86.1736 176.963 86.5843 176.809ZM89.5213 175.159C89.5213 174.748 89.393 174.433 89.1363 174.213C88.8796 173.993 88.5276 173.883 88.0803 173.883C87.6403 173.883 87.292 173.993 87.0353 174.213C86.7786 174.433 86.6503 174.752 86.6503 175.17C86.6503 175.537 86.7823 175.837 87.0463 176.072C87.3176 176.299 87.6623 176.413 88.0803 176.413C88.4983 176.413 88.843 176.296 89.1143 176.061C89.3856 175.826 89.5213 175.526 89.5213 175.159ZM88.0803 177.359C87.5963 177.359 87.2003 177.48 86.8923 177.722C86.5916 177.957 86.4413 178.298 86.4413 178.745C86.4413 179.163 86.588 179.504 86.8813 179.768C87.1746 180.025 87.5743 180.153 88.0803 180.153C88.579 180.153 88.9713 180.021 89.2573 179.757C89.5506 179.493 89.6973 179.156 89.6973 178.745C89.6973 178.305 89.547 177.964 89.2463 177.722C88.953 177.48 88.5643 177.359 88.0803 177.359ZM97.6909 174.059H94.0059V176.248C94.1599 176.043 94.3873 175.87 94.6879 175.731C94.9959 175.592 95.3223 175.522 95.6669 175.522C96.2829 175.522 96.7816 175.654 97.1629 175.918C97.5516 176.182 97.8266 176.516 97.9879 176.919C98.1566 177.322 98.2409 177.748 98.2409 178.195C98.2409 178.738 98.1346 179.222 97.9219 179.647C97.7166 180.065 97.4049 180.395 96.9869 180.637C96.5763 180.879 96.0703 181 95.4689 181C94.6696 181 94.0279 180.802 93.5439 180.406C93.0599 180.01 92.7703 179.486 92.6749 178.833H93.8959C93.9766 179.178 94.1563 179.453 94.4349 179.658C94.7136 179.856 95.0619 179.955 95.4799 179.955C96.0006 179.955 96.3893 179.797 96.6459 179.482C96.9099 179.167 97.0419 178.749 97.0419 178.228C97.0419 177.7 96.9099 177.297 96.6459 177.018C96.3819 176.732 95.9933 176.589 95.4799 176.589C95.1206 176.589 94.8163 176.681 94.5669 176.864C94.3249 177.04 94.1489 177.282 94.0389 177.59H92.8509V172.959H97.6909V174.059ZM99.5683 177.942C99.5683 177.333 99.693 176.794 99.9423 176.325C100.199 175.856 100.544 175.493 100.976 175.236C101.416 174.972 101.9 174.84 102.428 174.84C102.905 174.84 103.319 174.935 103.671 175.126C104.031 175.309 104.317 175.54 104.529 175.819V174.939H105.794V181H104.529V180.098C104.317 180.384 104.027 180.622 103.66 180.813C103.294 181.004 102.876 181.099 102.406 181.099C101.886 181.099 101.409 180.967 100.976 180.703C100.544 180.432 100.199 180.058 99.9423 179.581C99.693 179.097 99.5683 178.551 99.5683 177.942ZM104.529 177.964C104.529 177.546 104.441 177.183 104.265 176.875C104.097 176.567 103.873 176.332 103.594 176.171C103.316 176.01 103.015 175.929 102.692 175.929C102.37 175.929 102.069 176.01 101.79 176.171C101.512 176.325 101.284 176.556 101.108 176.864C100.94 177.165 100.855 177.524 100.855 177.942C100.855 178.36 100.94 178.727 101.108 179.042C101.284 179.357 101.512 179.599 101.79 179.768C102.076 179.929 102.377 180.01 102.692 180.01C103.015 180.01 103.316 179.929 103.594 179.768C103.873 179.607 104.097 179.372 104.265 179.064C104.441 178.749 104.529 178.382 104.529 177.964ZM107.298 177.942C107.298 177.333 107.423 176.794 107.672 176.325C107.929 175.856 108.274 175.493 108.706 175.236C109.146 174.972 109.634 174.84 110.169 174.84C110.565 174.84 110.954 174.928 111.335 175.104C111.724 175.273 112.032 175.5 112.259 175.786V172.86H113.524V181H112.259V180.087C112.054 180.38 111.768 180.622 111.401 180.813C111.042 181.004 110.628 181.099 110.158 181.099C109.63 181.099 109.146 180.967 108.706 180.703C108.274 180.432 107.929 180.058 107.672 179.581C107.423 179.097 107.298 178.551 107.298 177.942ZM112.259 177.964C112.259 177.546 112.171 177.183 111.995 176.875C111.827 176.567 111.603 176.332 111.324 176.171C111.046 176.01 110.745 175.929 110.422 175.929C110.1 175.929 109.799 176.01 109.52 176.171C109.242 176.325 109.014 176.556 108.838 176.864C108.67 177.165 108.585 177.524 108.585 177.942C108.585 178.36 108.67 178.727 108.838 179.042C109.014 179.357 109.242 179.599 109.52 179.768C109.806 179.929 110.107 180.01 110.422 180.01C110.745 180.01 111.046 179.929 111.324 179.768C111.603 179.607 111.827 179.372 111.995 179.064C112.171 178.749 112.259 178.382 112.259 177.964ZM121.001 177.821C121.001 178.048 120.987 178.254 120.957 178.437H116.326C116.363 178.921 116.543 179.31 116.865 179.603C117.188 179.896 117.584 180.043 118.053 180.043C118.728 180.043 119.205 179.761 119.483 179.196H120.836C120.653 179.753 120.319 180.212 119.835 180.571C119.359 180.923 118.765 181.099 118.053 181.099C117.474 181.099 116.953 180.971 116.491 180.714C116.037 180.45 115.677 180.083 115.413 179.614C115.157 179.137 115.028 178.587 115.028 177.964C115.028 177.341 115.153 176.794 115.402 176.325C115.659 175.848 116.015 175.482 116.469 175.225C116.931 174.968 117.459 174.84 118.053 174.84C118.625 174.84 119.135 174.965 119.582 175.214C120.03 175.463 120.378 175.815 120.627 176.27C120.877 176.717 121.001 177.234 121.001 177.821ZM119.692 177.425C119.685 176.963 119.52 176.593 119.197 176.314C118.875 176.035 118.475 175.896 117.998 175.896C117.566 175.896 117.195 176.035 116.887 176.314C116.579 176.585 116.396 176.956 116.337 177.425H119.692ZM123.765 175.841C123.977 175.548 124.267 175.309 124.634 175.126C125.008 174.935 125.422 174.84 125.877 174.84C126.412 174.84 126.896 174.968 127.329 175.225C127.761 175.482 128.102 175.848 128.352 176.325C128.601 176.794 128.726 177.333 128.726 177.942C128.726 178.551 128.601 179.097 128.352 179.581C128.102 180.058 127.758 180.432 127.318 180.703C126.885 180.967 126.405 181.099 125.877 181.099C125.407 181.099 124.989 181.007 124.623 180.824C124.263 180.641 123.977 180.406 123.765 180.12V181H122.511V172.86H123.765V175.841ZM127.45 177.942C127.45 177.524 127.362 177.165 127.186 176.864C127.017 176.556 126.79 176.325 126.504 176.171C126.225 176.01 125.924 175.929 125.602 175.929C125.286 175.929 124.986 176.01 124.7 176.171C124.421 176.332 124.194 176.567 124.018 176.875C123.849 177.183 123.765 177.546 123.765 177.964C123.765 178.382 123.849 178.749 124.018 179.064C124.194 179.372 124.421 179.607 124.7 179.768C124.986 179.929 125.286 180.01 125.602 180.01C125.924 180.01 126.225 179.929 126.504 179.768C126.79 179.599 127.017 179.357 127.186 179.042C127.362 178.727 127.45 178.36 127.45 177.942ZM129.823 177.964C129.823 177.341 129.947 176.794 130.197 176.325C130.453 175.848 130.805 175.482 131.253 175.225C131.7 174.968 132.213 174.84 132.793 174.84C133.526 174.84 134.131 175.016 134.608 175.368C135.092 175.713 135.418 176.208 135.587 176.853H134.234C134.124 176.552 133.948 176.318 133.706 176.149C133.464 175.98 133.159 175.896 132.793 175.896C132.279 175.896 131.869 176.079 131.561 176.446C131.26 176.805 131.11 177.311 131.11 177.964C131.11 178.617 131.26 179.126 131.561 179.493C131.869 179.86 132.279 180.043 132.793 180.043C133.519 180.043 133.999 179.724 134.234 179.086H135.587C135.411 179.702 135.081 180.193 134.597 180.56C134.113 180.919 133.511 181.099 132.793 181.099C132.213 181.099 131.7 180.971 131.253 180.714C130.805 180.45 130.453 180.083 130.197 179.614C129.947 179.137 129.823 178.587 129.823 177.964ZM138.365 175.841C138.578 175.548 138.868 175.309 139.234 175.126C139.608 174.935 140.023 174.84 140.477 174.84C141.013 174.84 141.497 174.968 141.929 175.225C142.362 175.482 142.703 175.848 142.952 176.325C143.202 176.794 143.326 177.333 143.326 177.942C143.326 178.551 143.202 179.097 142.952 179.581C142.703 180.058 142.358 180.432 141.918 180.703C141.486 180.967 141.005 181.099 140.477 181.099C140.008 181.099 139.59 181.007 139.223 180.824C138.864 180.641 138.578 180.406 138.365 180.12V181H137.111V172.86H138.365V175.841ZM142.05 177.942C142.05 177.524 141.962 177.165 141.786 176.864C141.618 176.556 141.39 176.325 141.104 176.171C140.826 176.01 140.525 175.929 140.202 175.929C139.887 175.929 139.586 176.01 139.3 176.171C139.022 176.332 138.794 176.567 138.618 176.875C138.45 177.183 138.365 177.546 138.365 177.964C138.365 178.382 138.45 178.749 138.618 179.064C138.794 179.372 139.022 179.607 139.3 179.768C139.586 179.929 139.887 180.01 140.202 180.01C140.525 180.01 140.826 179.929 141.104 179.768C141.39 179.599 141.618 179.357 141.786 179.042C141.962 178.727 142.05 178.36 142.05 177.942ZM147.382 175.962H146.26V181H144.995V175.962H144.28V174.939H144.995V174.51C144.995 173.813 145.179 173.307 145.545 172.992C145.919 172.669 146.502 172.508 147.294 172.508V173.553C146.913 173.553 146.645 173.626 146.491 173.773C146.337 173.912 146.26 174.158 146.26 174.51V174.939H147.382V175.962ZM148.351 177.964C148.351 177.341 148.475 176.794 148.725 176.325C148.981 175.848 149.333 175.482 149.781 175.225C150.228 174.968 150.741 174.84 151.321 174.84C152.054 174.84 152.659 175.016 153.136 175.368C153.62 175.713 153.946 176.208 154.115 176.853H152.762C152.652 176.552 152.476 176.318 152.234 176.149C151.992 175.98 151.687 175.896 151.321 175.896C150.807 175.896 150.397 176.079 150.089 176.446C149.788 176.805 149.638 177.311 149.638 177.964C149.638 178.617 149.788 179.126 150.089 179.493C150.397 179.86 150.807 180.043 151.321 180.043C152.047 180.043 152.527 179.724 152.762 179.086H154.115C153.939 179.702 153.609 180.193 153.125 180.56C152.641 180.919 152.039 181.099 151.321 181.099C150.741 181.099 150.228 180.971 149.781 180.714C149.333 180.45 148.981 180.083 148.725 179.614C148.475 179.137 148.351 178.587 148.351 177.964ZM155.474 176.886C155.474 175.617 155.687 174.627 156.112 173.916C156.545 173.197 157.286 172.838 158.334 172.838C159.383 172.838 160.12 173.197 160.545 173.916C160.978 174.627 161.194 175.617 161.194 176.886C161.194 178.169 160.978 179.174 160.545 179.9C160.12 180.619 159.383 180.978 158.334 180.978C157.286 180.978 156.545 180.619 156.112 179.9C155.687 179.174 155.474 178.169 155.474 176.886ZM159.962 176.886C159.962 176.292 159.922 175.79 159.841 175.379C159.768 174.968 159.614 174.635 159.379 174.378C159.145 174.114 158.796 173.982 158.334 173.982C157.872 173.982 157.524 174.114 157.289 174.378C157.055 174.635 156.897 174.968 156.816 175.379C156.743 175.79 156.706 176.292 156.706 176.886C156.706 177.502 156.743 178.019 156.816 178.437C156.89 178.855 157.044 179.192 157.278 179.449C157.52 179.706 157.872 179.834 158.334 179.834C158.796 179.834 159.145 179.706 159.379 179.449C159.621 179.192 159.779 178.855 159.852 178.437C159.926 178.019 159.962 177.502 159.962 176.886ZM162.631 174.125V172.981H164.919V181H163.654V174.125H162.631ZM166.664 177.942C166.664 177.333 166.789 176.794 167.038 176.325C167.295 175.856 167.639 175.493 168.072 175.236C168.512 174.972 168.996 174.84 169.524 174.84C170.001 174.84 170.415 174.935 170.767 175.126C171.126 175.309 171.412 175.54 171.625 175.819V174.939H172.89V181H171.625V180.098C171.412 180.384 171.123 180.622 170.756 180.813C170.389 181.004 169.971 181.099 169.502 181.099C168.981 181.099 168.505 180.967 168.072 180.703C167.639 180.432 167.295 180.058 167.038 179.581C166.789 179.097 166.664 178.551 166.664 177.942ZM171.625 177.964C171.625 177.546 171.537 177.183 171.361 176.875C171.192 176.567 170.969 176.332 170.69 176.171C170.411 176.01 170.111 175.929 169.788 175.929C169.465 175.929 169.165 176.01 168.886 176.171C168.607 176.325 168.38 176.556 168.204 176.864C168.035 177.165 167.951 177.524 167.951 177.942C167.951 178.36 168.035 178.727 168.204 179.042C168.38 179.357 168.607 179.599 168.886 179.768C169.172 179.929 169.473 180.01 169.788 180.01C170.111 180.01 170.411 179.929 170.69 179.768C170.969 179.607 171.192 179.372 171.361 179.064C171.537 178.749 171.625 178.382 171.625 177.964ZM179.817 174.059H176.132V176.248C176.286 176.043 176.513 175.87 176.814 175.731C177.122 175.592 177.448 175.522 177.793 175.522C178.409 175.522 178.908 175.654 179.289 175.918C179.678 176.182 179.953 176.516 180.114 176.919C180.283 177.322 180.367 177.748 180.367 178.195C180.367 178.738 180.261 179.222 180.048 179.647C179.843 180.065 179.531 180.395 179.113 180.637C178.702 180.879 178.196 181 177.595 181C176.796 181 176.154 180.802 175.67 180.406C175.186 180.01 174.896 179.486 174.801 178.833H176.022C176.103 179.178 176.282 179.453 176.561 179.658C176.84 179.856 177.188 179.955 177.606 179.955C178.127 179.955 178.515 179.797 178.772 179.482C179.036 179.167 179.168 178.749 179.168 178.228C179.168 177.7 179.036 177.297 178.772 177.018C178.508 176.732 178.119 176.589 177.606 176.589C177.247 176.589 176.942 176.681 176.693 176.864C176.451 177.04 176.275 177.282 176.165 177.59H174.977V172.959H179.817V174.059ZM181.794 179.328V178.382L185.49 173.08H187.008V178.239H188.031V179.328H187.008V181H185.776V179.328H181.794ZM185.831 174.356L183.235 178.239H185.831V174.356ZM189.191 179.328V178.382L192.887 173.08H194.405V178.239H195.428V179.328H194.405V181H193.173V179.328H189.191ZM193.228 174.356L190.632 178.239H193.228V174.356ZM201.912 174.059H198.227V176.248C198.381 176.043 198.608 175.87 198.909 175.731C199.217 175.592 199.543 175.522 199.888 175.522C200.504 175.522 201.002 175.654 201.384 175.918C201.772 176.182 202.047 176.516 202.209 176.919C202.377 177.322 202.462 177.748 202.462 178.195C202.462 178.738 202.355 179.222 202.143 179.647C201.937 180.065 201.626 180.395 201.208 180.637C200.797 180.879 200.291 181 199.69 181C198.89 181 198.249 180.802 197.765 180.406C197.281 180.01 196.991 179.486 196.896 178.833H198.117C198.197 179.178 198.377 179.453 198.656 179.658C198.934 179.856 199.283 179.955 199.701 179.955C200.221 179.955 200.61 179.797 200.867 179.482C201.131 179.167 201.263 178.749 201.263 178.228C201.263 177.7 201.131 177.297 200.867 177.018C200.603 176.732 200.214 176.589 199.701 176.589C199.341 176.589 199.037 176.681 198.788 176.864C198.546 177.04 198.37 177.282 198.26 177.59H197.072V172.959H201.912V174.059ZM204.735 179.295C205.439 178.686 205.993 178.188 206.396 177.799C206.807 177.403 207.148 176.992 207.419 176.567C207.69 176.142 207.826 175.716 207.826 175.291C207.826 174.851 207.72 174.506 207.507 174.257C207.302 174.008 206.975 173.883 206.528 173.883C206.095 173.883 205.758 174.022 205.516 174.301C205.281 174.572 205.157 174.939 205.142 175.401H203.932C203.954 174.565 204.203 173.927 204.68 173.487C205.164 173.04 205.776 172.816 206.517 172.816C207.316 172.816 207.94 173.036 208.387 173.476C208.842 173.916 209.069 174.503 209.069 175.236C209.069 175.764 208.933 176.274 208.662 176.765C208.398 177.249 208.079 177.685 207.705 178.074C207.338 178.455 206.869 178.899 206.297 179.405L205.802 179.845H209.289V180.89H203.943V179.977L204.735 179.295ZM211.359 179.295C212.063 178.686 212.616 178.188 213.02 177.799C213.43 177.403 213.771 176.992 214.043 176.567C214.314 176.142 214.45 175.716 214.45 175.291C214.45 174.851 214.343 174.506 214.131 174.257C213.925 174.008 213.599 173.883 213.152 173.883C212.719 173.883 212.382 174.022 212.14 174.301C211.905 174.572 211.78 174.939 211.766 175.401H210.556C210.578 174.565 210.827 173.927 211.304 173.487C211.788 173.04 212.4 172.816 213.141 172.816C213.94 172.816 214.563 173.036 215.011 173.476C215.465 173.916 215.693 174.503 215.693 175.236C215.693 175.764 215.557 176.274 215.286 176.765C215.022 177.249 214.703 177.685 214.329 178.074C213.962 178.455 213.493 178.899 212.921 179.405L212.426 179.845H215.913V180.89H210.567V179.977L211.359 179.295ZM221.601 174.84C221.521 174.503 221.374 174.25 221.161 174.081C220.949 173.912 220.652 173.828 220.27 173.828C219.691 173.828 219.258 174.052 218.972 174.499C218.686 174.939 218.536 175.672 218.521 176.699C218.712 176.376 218.991 176.127 219.357 175.951C219.724 175.775 220.12 175.687 220.545 175.687C221.029 175.687 221.455 175.793 221.821 176.006C222.195 176.211 222.485 176.512 222.69 176.908C222.903 177.304 223.009 177.777 223.009 178.327C223.009 178.84 222.907 179.299 222.701 179.702C222.503 180.105 222.206 180.424 221.81 180.659C221.414 180.886 220.938 181 220.38 181C219.625 181 219.031 180.835 218.598 180.505C218.173 180.168 217.872 179.695 217.696 179.086C217.528 178.477 217.443 177.718 217.443 176.809C217.443 174.125 218.389 172.783 220.281 172.783C221.015 172.783 221.59 172.981 222.008 173.377C222.434 173.773 222.683 174.261 222.756 174.84H221.601ZM220.27 176.743C219.823 176.743 219.442 176.879 219.126 177.15C218.818 177.414 218.664 177.799 218.664 178.305C218.664 178.811 218.807 179.214 219.093 179.515C219.387 179.808 219.794 179.955 220.314 179.955C220.776 179.955 221.139 179.812 221.403 179.526C221.675 179.24 221.81 178.859 221.81 178.382C221.81 177.883 221.678 177.487 221.414 177.194C221.158 176.893 220.776 176.743 220.27 176.743ZM226.041 175.841C226.254 175.548 226.543 175.309 226.91 175.126C227.284 174.935 227.698 174.84 228.153 174.84C228.688 174.84 229.172 174.968 229.605 175.225C230.038 175.482 230.379 175.848 230.628 176.325C230.877 176.794 231.002 177.333 231.002 177.942C231.002 178.551 230.877 179.097 230.628 179.581C230.379 180.058 230.034 180.432 229.594 180.703C229.161 180.967 228.681 181.099 228.153 181.099C227.684 181.099 227.266 181.007 226.899 180.824C226.54 180.641 226.254 180.406 226.041 180.12V181H224.787V172.86H226.041V175.841ZM229.726 177.942C229.726 177.524 229.638 177.165 229.462 176.864C229.293 176.556 229.066 176.325 228.78 176.171C228.501 176.01 228.201 175.929 227.878 175.929C227.563 175.929 227.262 176.01 226.976 176.171C226.697 176.332 226.47 176.567 226.294 176.875C226.125 177.183 226.041 177.546 226.041 177.964C226.041 178.382 226.125 178.749 226.294 179.064C226.47 179.372 226.697 179.607 226.976 179.768C227.262 179.929 227.563 180.01 227.878 180.01C228.201 180.01 228.501 179.929 228.78 179.768C229.066 179.599 229.293 179.357 229.462 179.042C229.638 178.727 229.726 178.36 229.726 177.942ZM233.045 179.295C233.749 178.686 234.303 178.188 234.706 177.799C235.117 177.403 235.458 176.992 235.729 176.567C236 176.142 236.136 175.716 236.136 175.291C236.136 174.851 236.03 174.506 235.817 174.257C235.612 174.008 235.285 173.883 234.838 173.883C234.405 173.883 234.068 174.022 233.826 174.301C233.591 174.572 233.467 174.939 233.452 175.401H232.242C232.264 174.565 232.513 173.927 232.99 173.487C233.474 173.04 234.086 172.816 234.827 172.816C235.626 172.816 236.25 173.036 236.697 173.476C237.152 173.916 237.379 174.503 237.379 175.236C237.379 175.764 237.243 176.274 236.972 176.765C236.708 177.249 236.389 177.685 236.015 178.074C235.648 178.455 235.179 178.899 234.607 179.405L234.112 179.845H237.599V180.89H232.253V179.977L233.045 179.295ZM238.723 177.964C238.723 177.341 238.847 176.794 239.097 176.325C239.353 175.848 239.705 175.482 240.153 175.225C240.6 174.968 241.113 174.84 241.693 174.84C242.426 174.84 243.031 175.016 243.508 175.368C243.992 175.713 244.318 176.208 244.487 176.853H243.134C243.024 176.552 242.848 176.318 242.606 176.149C242.364 175.98 242.059 175.896 241.693 175.896C241.179 175.896 240.769 176.079 240.461 176.446C240.16 176.805 240.01 177.311 240.01 177.964C240.01 178.617 240.16 179.126 240.461 179.493C240.769 179.86 241.179 180.043 241.693 180.043C242.419 180.043 242.899 179.724 243.134 179.086H244.487C244.311 179.702 243.981 180.193 243.497 180.56C243.013 180.919 242.411 181.099 241.693 181.099C241.113 181.099 240.6 180.971 240.153 180.714C239.705 180.45 239.353 180.083 239.097 179.614C238.847 179.137 238.723 178.587 238.723 177.964Z" fill="#40444F"/>
<line x1="4" y1="132.5" x2="270" y2="132.5" stroke="#E6E6E6"/>
<line x1="89" y1="132.25" x2="189" y2="132.25" stroke="#00D1FF" stroke-width="1.5"/>
<path d="M5 11C5 7.68629 7.68629 5 11 5H257C260.314 5 263 7.68629 263 11V53H5V11Z" fill="#EFF1F3"/>
<rect x="89" y="17" width="120" height="25" rx="12.5" stroke="#E6E6E6"/>
<circle cx="99" cy="30" r="4" fill="#00D1FF"/>
<path d="M112.952 32.128V33H108.752V27.4H112.84V28.272H109.792V29.728H112.496V30.584H109.792V32.128H112.952ZM116.705 32.768C116.588 32.864 116.444 32.936 116.273 32.984C116.108 33.032 115.932 33.056 115.745 33.056C115.276 33.056 114.913 32.9333 114.657 32.688C114.401 32.4427 114.273 32.0853 114.273 31.616V29.56H113.569V28.76H114.273V27.784H115.273V28.76H116.417V29.56H115.273V31.592C115.273 31.8 115.324 31.96 115.425 32.072C115.527 32.1787 115.673 32.232 115.865 32.232C116.089 32.232 116.276 32.1733 116.425 32.056L116.705 32.768ZM120.152 28.68C120.691 28.68 121.123 28.8373 121.448 29.152C121.773 29.4667 121.936 29.9333 121.936 30.552V33H120.936V30.68C120.936 30.3067 120.848 30.0267 120.672 29.84C120.496 29.648 120.245 29.552 119.92 29.552C119.552 29.552 119.261 29.664 119.048 29.888C118.835 30.1067 118.728 30.424 118.728 30.84V33H117.728V27.064H118.728V29.224C118.893 29.048 119.096 28.9147 119.336 28.824C119.581 28.728 119.853 28.68 120.152 28.68ZM127.46 30.888C127.46 30.9573 127.454 31.056 127.444 31.184H124.092C124.15 31.4987 124.302 31.7493 124.548 31.936C124.798 32.1173 125.108 32.208 125.476 32.208C125.945 32.208 126.332 32.0533 126.636 31.744L127.172 32.36C126.98 32.5893 126.737 32.7627 126.444 32.88C126.15 32.9973 125.82 33.056 125.452 33.056C124.982 33.056 124.569 32.9627 124.212 32.776C123.854 32.5893 123.577 32.3307 123.38 32C123.188 31.664 123.092 31.2853 123.092 30.864C123.092 30.448 123.185 30.0747 123.372 29.744C123.564 29.408 123.828 29.1467 124.164 28.96C124.5 28.7733 124.878 28.68 125.3 28.68C125.716 28.68 126.086 28.7733 126.412 28.96C126.742 29.1413 126.998 29.4 127.18 29.736C127.366 30.0667 127.46 30.4507 127.46 30.888ZM125.3 29.48C124.98 29.48 124.708 29.576 124.484 29.768C124.265 29.9547 124.132 30.2053 124.084 30.52H126.508C126.465 30.2107 126.334 29.96 126.116 29.768C125.897 29.576 125.625 29.48 125.3 29.48ZM129.572 29.352C129.86 28.904 130.367 28.68 131.092 28.68V29.632C131.007 29.616 130.929 29.608 130.86 29.608C130.471 29.608 130.167 29.7227 129.948 29.952C129.729 30.176 129.62 30.5013 129.62 30.928V33H128.62V28.728H129.572V29.352ZM136.117 30.888C136.117 30.9573 136.112 31.056 136.101 31.184H132.749C132.808 31.4987 132.96 31.7493 133.205 31.936C133.456 32.1173 133.765 32.208 134.133 32.208C134.603 32.208 134.989 32.0533 135.293 31.744L135.829 32.36C135.637 32.5893 135.395 32.7627 135.101 32.88C134.808 32.9973 134.477 33.056 134.109 33.056C133.64 33.056 133.227 32.9627 132.869 32.776C132.512 32.5893 132.235 32.3307 132.037 32C131.845 31.664 131.749 31.2853 131.749 30.864C131.749 30.448 131.843 30.0747 132.029 29.744C132.221 29.408 132.485 29.1467 132.821 28.96C133.157 28.7733 133.536 28.68 133.957 28.68C134.373 28.68 134.744 28.7733 135.069 28.96C135.4 29.1413 135.656 29.4 135.837 29.736C136.024 30.0667 136.117 30.4507 136.117 30.888ZM133.957 29.48C133.637 29.48 133.365 29.576 133.141 29.768C132.923 29.9547 132.789 30.2053 132.741 30.52H135.165C135.123 30.2107 134.992 29.96 134.773 29.768C134.555 29.576 134.283 29.48 133.957 29.48ZM141.414 28.728V33H140.462V32.456C140.302 32.648 140.102 32.7973 139.862 32.904C139.622 33.0053 139.363 33.056 139.086 33.056C138.515 33.056 138.065 32.8987 137.734 32.584C137.409 32.264 137.246 31.792 137.246 31.168V28.728H138.246V31.032C138.246 31.416 138.331 31.704 138.502 31.896C138.678 32.0827 138.926 32.176 139.246 32.176C139.603 32.176 139.886 32.0667 140.094 31.848C140.307 31.624 140.414 31.304 140.414 30.888V28.728H141.414ZM148.315 28.68C148.854 28.68 149.281 28.8373 149.595 29.152C149.91 29.4613 150.067 29.928 150.067 30.552V33H149.067V30.68C149.067 30.3067 148.985 30.0267 148.819 29.84C148.654 29.648 148.417 29.552 148.107 29.552C147.771 29.552 147.502 29.664 147.299 29.888C147.097 30.1067 146.995 30.4213 146.995 30.832V33H145.995V30.68C145.995 30.3067 145.913 30.0267 145.747 29.84C145.582 29.648 145.345 29.552 145.035 29.552C144.694 29.552 144.422 29.6613 144.219 29.88C144.022 30.0987 143.923 30.416 143.923 30.832V33H142.923V28.728H143.875V29.272C144.035 29.08 144.235 28.9333 144.475 28.832C144.715 28.7307 144.982 28.68 145.275 28.68C145.595 28.68 145.878 28.7413 146.123 28.864C146.374 28.9813 146.571 29.1573 146.715 29.392C146.891 29.168 147.118 28.9947 147.395 28.872C147.673 28.744 147.979 28.68 148.315 28.68ZM159.196 33L159.188 29.288L157.348 32.36H156.884L155.044 29.336V33H154.052V27.4H154.908L157.132 31.112L159.316 27.4H160.172L160.18 33H159.196ZM163.429 28.68C164.058 28.68 164.538 28.832 164.869 29.136C165.205 29.4347 165.373 29.888 165.373 30.496V33H164.429V32.48C164.306 32.6667 164.13 32.8107 163.901 32.912C163.677 33.008 163.405 33.056 163.085 33.056C162.765 33.056 162.485 33.0027 162.245 32.896C162.005 32.784 161.818 32.632 161.685 32.44C161.557 32.2427 161.493 32.0213 161.493 31.776C161.493 31.392 161.634 31.0853 161.917 30.856C162.205 30.6213 162.655 30.504 163.269 30.504H164.373V30.44C164.373 30.1413 164.282 29.912 164.101 29.752C163.925 29.592 163.661 29.512 163.309 29.512C163.069 29.512 162.831 29.5493 162.597 29.624C162.367 29.6987 162.173 29.8027 162.013 29.936L161.621 29.208C161.845 29.0373 162.114 28.9067 162.429 28.816C162.743 28.7253 163.077 28.68 163.429 28.68ZM163.293 32.328C163.543 32.328 163.765 32.272 163.957 32.16C164.154 32.0427 164.293 31.8773 164.373 31.664V31.168H163.341C162.765 31.168 162.477 31.3573 162.477 31.736C162.477 31.9173 162.549 32.0613 162.693 32.168C162.837 32.2747 163.037 32.328 163.293 32.328ZM166.856 28.728H167.856V33H166.856V28.728ZM167.36 28.024C167.179 28.024 167.027 27.968 166.904 27.856C166.781 27.7387 166.72 27.5947 166.72 27.424C166.72 27.2533 166.781 27.112 166.904 27C167.027 26.8827 167.179 26.824 167.36 26.824C167.541 26.824 167.693 26.88 167.816 26.992C167.939 27.0987 168 27.2347 168 27.4C168 27.576 167.939 27.7253 167.816 27.848C167.699 27.9653 167.547 28.024 167.36 28.024ZM171.793 28.68C172.331 28.68 172.763 28.8373 173.089 29.152C173.414 29.4667 173.577 29.9333 173.577 30.552V33H172.577V30.68C172.577 30.3067 172.489 30.0267 172.313 29.84C172.137 29.648 171.886 29.552 171.561 29.552C171.193 29.552 170.902 29.664 170.689 29.888C170.475 30.1067 170.369 30.424 170.369 30.84V33H169.369V28.728H170.321V29.28C170.486 29.0827 170.694 28.9333 170.945 28.832C171.195 28.7307 171.478 28.68 171.793 28.68ZM177.469 28.68C178.008 28.68 178.44 28.8373 178.765 29.152C179.09 29.4667 179.253 29.9333 179.253 30.552V33H178.253V30.68C178.253 30.3067 178.165 30.0267 177.989 29.84C177.813 29.648 177.562 29.552 177.237 29.552C176.869 29.552 176.578 29.664 176.365 29.888C176.152 30.1067 176.045 30.424 176.045 30.84V33H175.045V28.728H175.997V29.28C176.162 29.0827 176.37 28.9333 176.621 28.832C176.872 28.7307 177.154 28.68 177.469 28.68ZM184.777 30.888C184.777 30.9573 184.771 31.056 184.761 31.184H181.409C181.467 31.4987 181.619 31.7493 181.865 31.936C182.115 32.1173 182.425 32.208 182.793 32.208C183.262 32.208 183.649 32.0533 183.953 31.744L184.489 32.36C184.297 32.5893 184.054 32.7627 183.761 32.88C183.467 32.9973 183.137 33.056 182.769 33.056C182.299 33.056 181.886 32.9627 181.529 32.776C181.171 32.5893 180.894 32.3307 180.697 32C180.505 31.664 180.409 31.2853 180.409 30.864C180.409 30.448 180.502 30.0747 180.689 29.744C180.881 29.408 181.145 29.1467 181.481 28.96C181.817 28.7733 182.195 28.68 182.617 28.68C183.033 28.68 183.403 28.7733 183.729 28.96C184.059 29.1413 184.315 29.4 184.497 29.736C184.683 30.0667 184.777 30.4507 184.777 30.888ZM182.617 29.48C182.297 29.48 182.025 29.576 181.801 29.768C181.582 29.9547 181.449 30.2053 181.401 30.52H183.825C183.782 30.2107 183.651 29.96 183.433 29.768C183.214 29.576 182.942 29.48 182.617 29.48ZM188.505 32.768C188.388 32.864 188.244 32.936 188.073 32.984C187.908 33.032 187.732 33.056 187.545 33.056C187.076 33.056 186.713 32.9333 186.457 32.688C186.201 32.4427 186.073 32.0853 186.073 31.616V29.56H185.369V28.76H186.073V27.784H187.073V28.76H188.217V29.56H187.073V31.592C187.073 31.8 187.124 31.96 187.225 32.072C187.327 32.1787 187.473 32.232 187.665 32.232C187.889 32.232 188.076 32.1733 188.225 32.056L188.505 32.768Z" fill="#9A9A9A"/>
<path fill-rule="evenodd" clip-rule="evenodd" d="M197.078 32.1722L200.266 28.1877C200.438 27.972 200.753 27.9371 200.969 28.1096C201.184 28.2821 201.219 28.5967 201.047 28.8124L197.671 33.0315C197.526 33.2128 197.281 33.2664 197.078 33.1763C196.875 33.2664 196.63 33.2128 196.485 33.0315L193.11 28.8124C192.937 28.5967 192.972 28.2821 193.188 28.1096C193.403 27.9371 193.718 27.972 193.89 28.1877L197.078 32.1722Z" fill="#9A9A9A"/>
<circle cx="242" cy="29" r="13" fill="#7D7E80"/>
<circle cx="242" cy="29" r="14.5" stroke="#00D1FF"/>
<path d="M43.8154 18L34.4463 24.9586L36.1789 20.8531L43.8154 18Z" fill="#E2761B" stroke="#E2761B" stroke-linecap="round" stroke-linejoin="round"/>
<path d="M22.1865 18L31.4803 25.0245L29.8325 20.8531L22.1865 18Z" fill="#E4761B" stroke="#E4761B" stroke-linecap="round" stroke-linejoin="round"/>
<path d="M40.4445 34.1299L37.9492 37.9529L43.2882 39.4218L44.8231 34.2146L40.4445 34.1299Z" fill="#E4761B" stroke="#E4761B" stroke-linecap="round" stroke-linejoin="round"/>
<path d="M21.1978 34.2146L22.7232 39.4218L28.0622 37.9529L25.5669 34.1299L21.1978 34.2146Z" fill="#E4761B" stroke="#E4761B" stroke-linecap="round" stroke-linejoin="round"/>
<path d="M27.7612 27.6704L26.2734 29.9209L31.5748 30.1563L31.3864 24.4595L27.7612 27.6704Z" fill="#E4761B" stroke="#E4761B" stroke-linecap="round" stroke-linejoin="round"/>
<path d="M38.241 27.6704L34.5687 24.3936L34.4463 30.1563L39.7382 29.9209L38.241 27.6704Z" fill="#E4761B" stroke="#E4761B" stroke-linecap="round" stroke-linejoin="round"/>
<path d="M28.0625 37.9529L31.2452 36.3992L28.4956 34.2523L28.0625 37.9529Z" fill="#E4761B" stroke="#E4761B" stroke-linecap="round" stroke-linejoin="round"/>
<path d="M34.7573 36.3992L37.9494 37.9529L37.5068 34.2523L34.7573 36.3992Z" fill="#E4761B" stroke="#E4761B" stroke-linecap="round" stroke-linejoin="round"/>
<path d="M37.9494 37.9528L34.7573 36.3992L35.0116 38.4801L34.9833 39.3559L37.9494 37.9528Z" fill="#D7C1B3" stroke="#D7C1B3" stroke-linecap="round" stroke-linejoin="round"/>
<path d="M28.0625 37.9528L31.0286 39.3559L31.0098 38.4801L31.2452 36.3992L28.0625 37.9528Z" fill="#D7C1B3" stroke="#D7C1B3" stroke-linecap="round" stroke-linejoin="round"/>
<path d="M31.0753 32.8776L28.4199 32.096L30.2937 31.2391L31.0753 32.8776Z" fill="#233447" stroke="#233447" stroke-linecap="round" stroke-linejoin="round"/>
<path d="M34.9268 32.8776L35.7083 31.2391L37.5915 32.096L34.9268 32.8776Z" fill="#233447" stroke="#233447" stroke-linecap="round" stroke-linejoin="round"/>
<path d="M28.0622 37.9529L28.5142 34.1299L25.5669 34.2146L28.0622 37.9529Z" fill="#CD6116" stroke="#CD6116" stroke-linecap="round" stroke-linejoin="round"/>
<path d="M37.4976 34.1299L37.9495 37.9529L40.4448 34.2146L37.4976 34.1299Z" fill="#CD6116" stroke="#CD6116" stroke-linecap="round" stroke-linejoin="round"/>
<path d="M39.7382 29.9209L34.4463 30.1563L34.9359 32.8776L35.7175 31.2392L37.6007 32.096L39.7382 29.9209Z" fill="#CD6116" stroke="#CD6116" stroke-linecap="round" stroke-linejoin="round"/>
<path d="M28.4203 32.096L30.3036 31.2392L31.0757 32.8776L31.5748 30.1563L26.2734 29.9209L28.4203 32.096Z" fill="#CD6116" stroke="#CD6116" stroke-linecap="round" stroke-linejoin="round"/>
<path d="M26.2734 29.9209L28.4957 34.2523L28.4203 32.096L26.2734 29.9209Z" fill="#E4751F" stroke="#E4751F" stroke-linecap="round" stroke-linejoin="round"/>
<path d="M37.601 32.096L37.5068 34.2523L39.7385 29.9209L37.601 32.096Z" fill="#E4751F" stroke="#E4751F" stroke-linecap="round" stroke-linejoin="round"/>
<path d="M31.5747 30.1562L31.0757 32.8775L31.6972 36.0885L31.8384 31.8606L31.5747 30.1562Z" fill="#E4751F" stroke="#E4751F" stroke-linecap="round" stroke-linejoin="round"/>
<path d="M34.4466 30.1562L34.1924 31.8512L34.3054 36.0885L34.9363 32.8775L34.4466 30.1562Z" fill="#E4751F" stroke="#E4751F" stroke-linecap="round" stroke-linejoin="round"/>
<path d="M34.9361 32.8776L34.3052 36.0885L34.7572 36.3993L37.5067 34.2524L37.6009 32.0961L34.9361 32.8776Z" fill="#F6851B" stroke="#F6851B" stroke-linecap="round" stroke-linejoin="round"/>
<path d="M28.4199 32.0961L28.4953 34.2524L31.2448 36.3993L31.6968 36.0885L31.0753 32.8776L28.4199 32.0961Z" fill="#F6851B" stroke="#F6851B" stroke-linecap="round" stroke-linejoin="round"/>
<path d="M34.9834 39.3559L35.0117 38.4802L34.7762 38.273H31.2263L31.0098 38.4802L31.0286 39.3559L28.0625 37.9529L29.0983 38.8003L31.1981 40.2598H34.8045L36.9137 38.8003L37.9495 37.9529L34.9834 39.3559Z" fill="#C0AD9E" stroke="#C0AD9E" stroke-linecap="round" stroke-linejoin="round"/>
<path d="M34.7574 36.3992L34.3054 36.0885H31.6971L31.2452 36.3992L31.0098 38.4802L31.2263 38.2731H34.7762L35.0116 38.4802L34.7574 36.3992Z" fill="#161616" stroke="#161616" stroke-linecap="round" stroke-linejoin="round"/>
<path d="M44.2112 25.4105L45.0116 21.5687L43.8157 18L34.7573 24.7232L38.2413 27.6704L43.166 29.1111L44.2583 27.8399L43.7874 27.5009L44.5407 26.8136L43.9569 26.3616L44.7102 25.7872L44.2112 25.4105Z" fill="#763D16" stroke="#763D16" stroke-linecap="round" stroke-linejoin="round"/>
<path d="M21 21.5687L21.8004 25.4105L21.2919 25.7872L22.0452 26.3616L21.4708 26.8136L22.2241 27.5009L21.7533 27.8399L22.8362 29.1111L27.7608 27.6704L31.2448 24.7232L22.1864 18L21 21.5687Z" fill="#763D16" stroke="#763D16" stroke-linecap="round" stroke-linejoin="round"/>
<path d="M43.166 29.1111L38.2413 27.6704L39.7385 29.9209L37.5068 34.2523L40.4447 34.2147H44.8232L43.166 29.1111Z" fill="#F6851B" stroke="#F6851B" stroke-linecap="round" stroke-linejoin="round"/>
<path d="M27.7608 27.6704L22.8362 29.1111L21.1978 34.2147H25.5669L28.4953 34.2523L26.2731 29.9209L27.7608 27.6704Z" fill="#F6851B" stroke="#F6851B" stroke-linecap="round" stroke-linejoin="round"/>
<path d="M34.4465 30.1562L34.7572 24.7231L36.1885 20.853H29.8325L31.2449 24.7231L31.5745 30.1562L31.6875 31.87L31.6969 36.0884H34.3052L34.324 31.87L34.4465 30.1562Z" fill="#F6851B" stroke="#F6851B" stroke-linecap="round" stroke-linejoin="round"/>
<path d="M14.888 148.28H13.032V147.4H17.784V148.28H15.928V153H14.888V148.28ZM20.151 153.056C19.719 153.056 19.3297 152.963 18.983 152.776C18.6363 152.589 18.3643 152.331 18.167 152C17.975 151.664 17.879 151.285 17.879 150.864C17.879 150.443 17.975 150.067 18.167 149.736C18.3643 149.405 18.6363 149.147 18.983 148.96C19.3297 148.773 19.719 148.68 20.151 148.68C20.5883 148.68 20.9803 148.773 21.327 148.96C21.6737 149.147 21.943 149.405 22.135 149.736C22.3323 150.067 22.431 150.443 22.431 150.864C22.431 151.285 22.3323 151.664 22.135 152C21.943 152.331 21.6737 152.589 21.327 152.776C20.9803 152.963 20.5883 153.056 20.151 153.056ZM20.151 152.2C20.519 152.2 20.823 152.077 21.063 151.832C21.303 151.587 21.423 151.264 21.423 150.864C21.423 150.464 21.303 150.141 21.063 149.896C20.823 149.651 20.519 149.528 20.151 149.528C19.783 149.528 19.479 149.651 19.239 149.896C19.0043 150.141 18.887 150.464 18.887 150.864C18.887 151.264 19.0043 151.587 19.239 151.832C19.479 152.077 19.783 152.2 20.151 152.2ZM25.3312 151.168L24.5872 151.872V153H23.5872V147.064H24.5872V150.648L26.6592 148.728H27.8593L26.0752 150.52L28.0272 153H26.8112L25.3312 151.168ZM32.7095 150.888C32.7095 150.957 32.7042 151.056 32.6935 151.184H29.3415C29.4002 151.499 29.5522 151.749 29.7975 151.936C30.0482 152.117 30.3575 152.208 30.7255 152.208C31.1948 152.208 31.5815 152.053 31.8855 151.744L32.4215 152.36C32.2295 152.589 31.9868 152.763 31.6935 152.88C31.4002 152.997 31.0695 153.056 30.7015 153.056C30.2322 153.056 29.8188 152.963 29.4615 152.776C29.1042 152.589 28.8268 152.331 28.6295 152C28.4375 151.664 28.3415 151.285 28.3415 150.864C28.3415 150.448 28.4348 150.075 28.6215 149.744C28.8135 149.408 29.0775 149.147 29.4135 148.96C29.7495 148.773 30.1282 148.68 30.5495 148.68C30.9655 148.68 31.3362 148.773 31.6615 148.96C31.9922 149.141 32.2482 149.4 32.4295 149.736C32.6162 150.067 32.7095 150.451 32.7095 150.888ZM30.5495 149.48C30.2295 149.48 29.9575 149.576 29.7335 149.768C29.5148 149.955 29.3815 150.205 29.3335 150.52H31.7575C31.7148 150.211 31.5842 149.96 31.3655 149.768C31.1468 149.576 30.8748 149.48 30.5495 149.48ZM36.2941 148.68C36.8327 148.68 37.2647 148.837 37.5901 149.152C37.9154 149.467 38.0781 149.933 38.0781 150.552V153H37.0781V150.68C37.0781 150.307 36.9901 150.027 36.8141 149.84C36.6381 149.648 36.3874 149.552 36.0621 149.552C35.6941 149.552 35.4034 149.664 35.1901 149.888C34.9767 150.107 34.8701 150.424 34.8701 150.84V153H33.8701V148.728H34.8221V149.28C34.9874 149.083 35.1954 148.933 35.4461 148.832C35.6967 148.731 35.9794 148.68 36.2941 148.68ZM44.6456 153.08C44.0802 153.08 43.5682 152.957 43.1096 152.712C42.6562 152.461 42.2989 152.117 42.0376 151.68C41.7816 151.243 41.6536 150.749 41.6536 150.2C41.6536 149.651 41.7842 149.157 42.0456 148.72C42.3069 148.283 42.6642 147.941 43.1176 147.696C43.5762 147.445 44.0882 147.32 44.6536 147.32C45.1122 147.32 45.5309 147.4 45.9096 147.56C46.2882 147.72 46.6082 147.952 46.8696 148.256L46.1976 148.888C45.7922 148.451 45.2936 148.232 44.7016 148.232C44.3176 148.232 43.9736 148.317 43.6696 148.488C43.3656 148.653 43.1282 148.885 42.9576 149.184C42.7869 149.483 42.7016 149.821 42.7016 150.2C42.7016 150.579 42.7869 150.917 42.9576 151.216C43.1282 151.515 43.3656 151.749 43.6696 151.92C43.9736 152.085 44.3176 152.168 44.7016 152.168C45.2936 152.168 45.7922 151.947 46.1976 151.504L46.8696 152.144C46.6082 152.448 46.2856 152.68 45.9016 152.84C45.5229 153 45.1042 153.08 44.6456 153.08ZM49.7338 153.056C49.3018 153.056 48.9125 152.963 48.5658 152.776C48.2191 152.589 47.9471 152.331 47.7498 152C47.5578 151.664 47.4618 151.285 47.4618 150.864C47.4618 150.443 47.5578 150.067 47.7498 149.736C47.9471 149.405 48.2191 149.147 48.5658 148.96C48.9125 148.773 49.3018 148.68 49.7338 148.68C50.1711 148.68 50.5631 148.773 50.9098 148.96C51.2565 149.147 51.5258 149.405 51.7178 149.736C51.9151 150.067 52.0138 150.443 52.0138 150.864C52.0138 151.285 51.9151 151.664 51.7178 152C51.5258 152.331 51.2565 152.589 50.9098 152.776C50.5631 152.963 50.1711 153.056 49.7338 153.056ZM49.7338 152.2C50.1018 152.2 50.4058 152.077 50.6458 151.832C50.8858 151.587 51.0058 151.264 51.0058 150.864C51.0058 150.464 50.8858 150.141 50.6458 149.896C50.4058 149.651 50.1018 149.528 49.7338 149.528C49.3658 149.528 49.0618 149.651 48.8218 149.896C48.5871 150.141 48.4698 150.464 48.4698 150.864C48.4698 151.264 48.5871 151.587 48.8218 151.832C49.0618 152.077 49.3658 152.2 49.7338 152.2ZM55.5941 148.68C56.1327 148.68 56.5647 148.837 56.8901 149.152C57.2154 149.467 57.3781 149.933 57.3781 150.552V153H56.3781V150.68C56.3781 150.307 56.2901 150.027 56.1141 149.84C55.9381 149.648 55.6874 149.552 55.3621 149.552C54.9941 149.552 54.7034 149.664 54.4901 149.888C54.2767 150.107 54.1701 150.424 54.1701 150.84V153H53.1701V148.728H54.1221V149.28C54.2874 149.083 54.4954 148.933 54.7461 148.832C54.9967 148.731 55.2794 148.68 55.5941 148.68ZM61.4146 152.768C61.2973 152.864 61.1533 152.936 60.9826 152.984C60.8173 153.032 60.6413 153.056 60.4546 153.056C59.9853 153.056 59.6226 152.933 59.3666 152.688C59.1106 152.443 58.9826 152.085 58.9826 151.616V149.56H58.2786V148.76H58.9826V147.784H59.9826V148.76H61.1266V149.56H59.9826V151.592C59.9826 151.8 60.0333 151.96 60.1346 152.072C60.236 152.179 60.3826 152.232 60.5746 152.232C60.7986 152.232 60.9853 152.173 61.1346 152.056L61.4146 152.768ZM63.3893 149.352C63.6773 148.904 64.1839 148.68 64.9093 148.68V149.632C64.8239 149.616 64.7466 149.608 64.6773 149.608C64.2879 149.608 63.9839 149.723 63.7653 149.952C63.5466 150.176 63.4373 150.501 63.4373 150.928V153H62.4373V148.728H63.3893V149.352ZM67.5661 148.68C68.1955 148.68 68.6755 148.832 69.0061 149.136C69.3421 149.435 69.5101 149.888 69.5101 150.496V153H68.5661V152.48C68.4435 152.667 68.2675 152.811 68.0381 152.912C67.8141 153.008 67.5421 153.056 67.2221 153.056C66.9021 153.056 66.6221 153.003 66.3821 152.896C66.1421 152.784 65.9555 152.632 65.8221 152.44C65.6941 152.243 65.6301 152.021 65.6301 151.776C65.6301 151.392 65.7715 151.085 66.0541 150.856C66.3421 150.621 66.7928 150.504 67.4061 150.504H68.5101V150.44C68.5101 150.141 68.4195 149.912 68.2381 149.752C68.0621 149.592 67.7981 149.512 67.4461 149.512C67.2061 149.512 66.9688 149.549 66.7341 149.624C66.5048 149.699 66.3101 149.803 66.1501 149.936L65.7581 149.208C65.9821 149.037 66.2515 148.907 66.5661 148.816C66.8808 148.725 67.2141 148.68 67.5661 148.68ZM67.4301 152.328C67.6808 152.328 67.9021 152.272 68.0941 152.16C68.2915 152.043 68.4301 151.877 68.5101 151.664V151.168H67.4781C66.9021 151.168 66.6141 151.357 66.6141 151.736C66.6141 151.917 66.6861 152.061 66.8301 152.168C66.9741 152.275 67.1741 152.328 67.4301 152.328ZM72.9926 153.056C72.5499 153.056 72.1526 152.963 71.8006 152.776C71.4486 152.589 71.1739 152.331 70.9766 152C70.7792 151.664 70.6806 151.285 70.6806 150.864C70.6806 150.443 70.7792 150.067 70.9766 149.736C71.1739 149.405 71.4459 149.147 71.7926 148.96C72.1446 148.773 72.5446 148.68 72.9926 148.68C73.4139 148.68 73.7819 148.765 74.0966 148.936C74.4166 149.107 74.6566 149.352 74.8166 149.672L74.0486 150.12C73.9259 149.923 73.7712 149.776 73.5846 149.68C73.4032 149.579 73.2032 149.528 72.9846 149.528C72.6112 149.528 72.3019 149.651 72.0566 149.896C71.8112 150.136 71.6886 150.459 71.6886 150.864C71.6886 151.269 71.8086 151.595 72.0486 151.84C72.2939 152.08 72.6059 152.2 72.9846 152.2C73.2032 152.2 73.4032 152.152 73.5846 152.056C73.7712 151.955 73.9259 151.805 74.0486 151.608L74.8166 152.056C74.6512 152.376 74.4086 152.624 74.0886 152.8C73.7739 152.971 73.4086 153.056 72.9926 153.056ZM78.5037 152.768C78.3864 152.864 78.2424 152.936 78.0717 152.984C77.9064 153.032 77.7304 153.056 77.5437 153.056C77.0744 153.056 76.7117 152.933 76.4557 152.688C76.1997 152.443 76.0717 152.085 76.0717 151.616V149.56H75.3677V148.76H76.0717V147.784H77.0717V148.76H78.2157V149.56H77.0717V151.592C77.0717 151.8 77.1224 151.96 77.2237 152.072C77.325 152.179 77.4717 152.232 77.6637 152.232C77.8877 152.232 78.0744 152.173 78.2237 152.056L78.5037 152.768ZM85.6653 151.704H82.8653L82.3133 153H81.2412L83.7613 147.4H84.7853L87.3133 153H86.2253L85.6653 151.704ZM85.3212 150.888L84.2653 148.44L83.2173 150.888H85.3212ZM92.2744 147.064V153H91.3144V152.448C91.149 152.651 90.9437 152.803 90.6984 152.904C90.4584 153.005 90.1917 153.056 89.8984 153.056C89.4877 153.056 89.117 152.965 88.7864 152.784C88.461 152.603 88.205 152.347 88.0184 152.016C87.8317 151.68 87.7384 151.296 87.7384 150.864C87.7384 150.432 87.8317 150.051 88.0184 149.72C88.205 149.389 88.461 149.133 88.7864 148.952C89.117 148.771 89.4877 148.68 89.8984 148.68C90.181 148.68 90.4397 148.728 90.6744 148.824C90.909 148.92 91.109 149.064 91.2744 149.256V147.064H92.2744ZM90.0184 152.2C90.2584 152.2 90.4744 152.147 90.6664 152.04C90.8584 151.928 91.0104 151.771 91.1224 151.568C91.2344 151.365 91.2904 151.131 91.2904 150.864C91.2904 150.597 91.2344 150.363 91.1224 150.16C91.0104 149.957 90.8584 149.803 90.6664 149.696C90.4744 149.584 90.2584 149.528 90.0184 149.528C89.7784 149.528 89.5624 149.584 89.3704 149.696C89.1784 149.803 89.0264 149.957 88.9144 150.16C88.8024 150.363 88.7464 150.597 88.7464 150.864C88.7464 151.131 88.8024 151.365 88.9144 151.568C89.0264 151.771 89.1784 151.928 89.3704 152.04C89.5624 152.147 89.7784 152.2 90.0184 152.2ZM97.9666 147.064V153H97.0066V152.448C96.8412 152.651 96.6359 152.803 96.3906 152.904C96.1506 153.005 95.8839 153.056 95.5906 153.056C95.1799 153.056 94.8092 152.965 94.4786 152.784C94.1532 152.603 93.8972 152.347 93.7106 152.016C93.5239 151.68 93.4306 151.296 93.4306 150.864C93.4306 150.432 93.5239 150.051 93.7106 149.72C93.8972 149.389 94.1532 149.133 94.4786 148.952C94.8092 148.771 95.1799 148.68 95.5906 148.68C95.8732 148.68 96.1319 148.728 96.3666 148.824C96.6012 148.92 96.8012 149.064 96.9666 149.256V147.064H97.9666ZM95.7106 152.2C95.9506 152.2 96.1666 152.147 96.3586 152.04C96.5506 151.928 96.7026 151.771 96.8146 151.568C96.9266 151.365 96.9826 151.131 96.9826 150.864C96.9826 150.597 96.9266 150.363 96.8146 150.16C96.7026 149.957 96.5506 149.803 96.3586 149.696C96.1666 149.584 95.9506 149.528 95.7106 149.528C95.4706 149.528 95.2546 149.584 95.0626 149.696C94.8706 149.803 94.7186 149.957 94.6066 150.16C94.4946 150.363 94.4386 150.597 94.4386 150.864C94.4386 151.131 94.4946 151.365 94.6066 151.568C94.7186 151.771 94.8706 151.928 95.0626 152.04C95.2546 152.147 95.4706 152.2 95.7106 152.2ZM100.427 149.352C100.715 148.904 101.221 148.68 101.947 148.68V149.632C101.861 149.616 101.784 149.608 101.715 149.608C101.325 149.608 101.021 149.723 100.803 149.952C100.584 150.176 100.475 150.501 100.475 150.928V153H99.4747V148.728H100.427V149.352ZM106.972 150.888C106.972 150.957 106.967 151.056 106.956 151.184H103.604C103.663 151.499 103.815 151.749 104.06 151.936C104.311 152.117 104.62 152.208 104.988 152.208C105.457 152.208 105.844 152.053 106.148 151.744L106.684 152.36C106.492 152.589 106.249 152.763 105.956 152.88C105.663 152.997 105.332 153.056 104.964 153.056C104.495 153.056 104.081 152.963 103.724 152.776C103.367 152.589 103.089 152.331 102.892 152C102.7 151.664 102.604 151.285 102.604 150.864C102.604 150.448 102.697 150.075 102.884 149.744C103.076 149.408 103.34 149.147 103.676 148.96C104.012 148.773 104.391 148.68 104.812 148.68C105.228 148.68 105.599 148.773 105.924 148.96C106.255 149.141 106.511 149.4 106.692 149.736C106.879 150.067 106.972 150.451 106.972 150.888ZM104.812 149.48C104.492 149.48 104.22 149.576 103.996 149.768C103.777 149.955 103.644 150.205 103.596 150.52H106.02C105.977 150.211 105.847 149.96 105.628 149.768C105.409 149.576 105.137 149.48 104.812 149.48ZM109.453 153.056C109.106 153.056 108.767 153.011 108.437 152.92C108.106 152.829 107.842 152.715 107.645 152.576L108.029 151.816C108.221 151.944 108.45 152.048 108.717 152.128C108.989 152.203 109.255 152.24 109.517 152.24C110.114 152.24 110.413 152.083 110.413 151.768C110.413 151.619 110.335 151.515 110.181 151.456C110.031 151.397 109.789 151.341 109.453 151.288C109.101 151.235 108.813 151.173 108.589 151.104C108.37 151.035 108.178 150.915 108.013 150.744C107.853 150.568 107.773 150.325 107.773 150.016C107.773 149.611 107.941 149.288 108.277 149.048C108.618 148.803 109.077 148.68 109.653 148.68C109.946 148.68 110.239 148.715 110.533 148.784C110.826 148.848 111.066 148.936 111.253 149.048L110.869 149.808C110.506 149.595 110.098 149.488 109.645 149.488C109.351 149.488 109.127 149.533 108.973 149.624C108.823 149.709 108.749 149.824 108.749 149.968C108.749 150.128 108.829 150.243 108.989 150.312C109.154 150.376 109.407 150.437 109.749 150.496C110.09 150.549 110.37 150.611 110.589 150.68C110.807 150.749 110.994 150.867 111.149 151.032C111.309 151.197 111.389 151.432 111.389 151.736C111.389 152.136 111.215 152.456 110.869 152.696C110.522 152.936 110.05 153.056 109.453 153.056ZM113.77 153.056C113.423 153.056 113.084 153.011 112.754 152.92C112.423 152.829 112.159 152.715 111.962 152.576L112.346 151.816C112.538 151.944 112.767 152.048 113.034 152.128C113.306 152.203 113.572 152.24 113.834 152.24C114.431 152.24 114.73 152.083 114.73 151.768C114.73 151.619 114.652 151.515 114.498 151.456C114.348 151.397 114.106 151.341 113.77 151.288C113.418 151.235 113.13 151.173 112.906 151.104C112.687 151.035 112.495 150.915 112.33 150.744C112.17 150.568 112.09 150.325 112.09 150.016C112.09 149.611 112.258 149.288 112.594 149.048C112.935 148.803 113.394 148.68 113.97 148.68C114.263 148.68 114.556 148.715 114.85 148.784C115.143 148.848 115.383 148.936 115.57 149.048L115.186 149.808C114.823 149.595 114.415 149.488 113.962 149.488C113.668 149.488 113.444 149.533 113.29 149.624C113.14 149.709 113.066 149.824 113.066 149.968C113.066 150.128 113.146 150.243 113.306 150.312C113.471 150.376 113.724 150.437 114.066 150.496C114.407 150.549 114.687 150.611 114.906 150.68C115.124 150.749 115.311 150.867 115.466 151.032C115.626 151.197 115.706 151.432 115.706 151.736C115.706 152.136 115.532 152.456 115.186 152.696C114.839 152.936 114.367 153.056 113.77 153.056Z" fill="#9A9A9A"/>
<rect x="13.5" y="160.5" width="242" height="34" rx="5.5" stroke="#00D1FF"/>
<line x1="245.15" y1="169.15" x2="245.15" y2="185.85" stroke="#40444F" stroke-width="0.3" stroke-linecap="round"/>
</svg>
