<?xml version="1.0" encoding="utf-8"?>
<!-- Generator: Adobe Illustrator 25.4.1, SVG Export Plug-In . SVG Version: 6.00 Build 0)  -->
<svg version="1.1" id="Capa_1" xmlns="http://www.w3.org/2000/svg" xmlns:xlink="http://www.w3.org/1999/xlink" x="0px" y="0px"
	 viewBox="0 0 1586.7 500" style="enable-background:new 0 0 1586.7 500;" xml:space="preserve">
<style type="text/css">
	.st0{fill:#E7E6E8;}
</style>
<g>
	<g>
		<path class="st0" d="M113.7,274.4c0,0,0.6-4.7-7.1-1.2c0,0-10.6,11.2-24.7-5.3c-5.3-5.9-8.2-14.1-7.1-22.4
			c0.6-2.9,1.2-5.3,2.4-6.5c4.7-4.7,10-8.2,10-8.2s5.3-3.5,6.5-8.2c0.6-2.4,2.4-3.5,4.7-3.5h7.7l0.6-1.2c0.6-1.8,2.4-2.9,4.1-2.9
			h9.4c1.8,0,3.5,1.2,4.1,2.9c1.2,4.1,5.3,11.2,18.3,8.8c0,0,22.4-2.9,25.3,14.1l15.3,24.7c0,0-0.6,2.4,3.5,2.4c0,0,6.5-1.2,2.9,4.1
			c0,0-18.8,17.7-14.7,29.4c0,0,1.2,5.9-7.1,14.1c-1.2,1.2-2.4,2.9-2.4,5.3v2.4c0,1.8-1.2,3.5-2.4,5.3c-3.5,4.1-11.8,12.4-23.6,11.8
			l0,0c-1.8-1.2-2.4-2.4-2.4-4.7c0-4.1-0.6-12.4-6.5-17.7c0,0-2.4-5.9,2.4-11.2c0,0,2.9-3.5-1.2-5.3l-1.2-8.8c0,0-7.7-2.4-6.5-10
			l-1.2-7.7L113.7,274.4z"/>
		<path class="st0" d="M189.7,304.5c-2.9,2.4-10,8.8-10,18.3l0,0c2.4,0,4.1-1.2,5.9-2.9c2.4-3.5,6.5-9.4,5.9-14.7
			C190.9,303.9,190.3,303.9,189.7,304.5z"/>
		<path class="st0" d="M75.4,166.7c-4.1,2.9-13.5,10-20.6,18.8c-1.8,2.4-4.7,3.5-7.7,2.4c-2.4-1.2-4.1-2.9-3.5-7.7
			c0-1.8,1.2-4.1,2.9-5.3c6.5-4.7,23.6-17.7,29.4-12.4C77.2,163.7,76.6,165.5,75.4,166.7z"/>
		<path class="st0" d="M28.3,197.3c0,0-15.9,18.8-16.5,39.5c0,3.5,3.5,5.9,6.5,4.1c4.1-2.4,8.8-8.2,10-24.7c0,0,2.9-5.9,8.2-8.2
			c1.8-0.6,2.9-2.9,2.4-4.7C37.1,200.2,34.2,196.7,28.3,197.3z"/>
		<path class="st0" d="M18.3,283.3c4.7,2.4,13,8.2,20,20c1.8,2.4,4.1,4.1,7.1,4.7c4.7,0.6,11.2,2.9,8.8,11.2c0,0-1.8,12.4-10.6,12.4
			c-2.4,0-4.1-1.2-5.9-2.9c-4.1-5.3-15.9-21.2-21.8-43.6C15.3,283.9,17.1,282.1,18.3,283.3z"/>
		<path class="st0" d="M91.9,206.7c0-2.9,1.8-5.9,5.3-7.1c3.5-1.2,8.2-4.1,8.2-7.1c0,0-0.6-5.3,4.1-6.5c0,0,8.2-0.6,11.8-6.5
			c0,0,3.5-2.4,5.3,0c0,0,5.9,10.6,13.5,1.8c0,0,4.1-12.4-6.5-9.4c0,0-1.2,6.5-6.5,2.4c0,0,0-3.5-4.7-3.5c-2.4,0-4.7-2.4-2.9-4.7
			c1.2-1.8,2.4-2.4,4.7-3.5h5.3c0,0,17.1-5.3,30-1.8c0,0,4.1,1.2,5.3,6.5c0,0,44.2-5.9,56,82.5c0,0.6-1.2,1.2-1.2,0.6
			c-3.5-5.3-10.6-15.3-19.4-14.1c0,0-4.1-2.4-3.5-5.3c0,0-10-0.6-5.9,5.3c0,0,3.5,5.9,12.4,8.8c0,0,0.6,12.4-16.5,12.4
			c0,0-4.1-0.6-4.1-5.9l-12.4-20c0,0-2.4-0.6-1.8-4.7c0,0,4.1-10-2.9-9.4c0,0-4.1,4.1-9.4-2.4c0,0-2.9-10.6,8.8-9.4l10.6,0.6
			c0,0,6.5-4.7-4.7-7.1c0,0,1.8-8.2-7.1-4.7c0,0-5.9,4.7-8.8,4.7c0,0,3.5,8.2-7.1,10c0,0-9.4-0.6-10.6-8.2c0,0-7.7-10-8.8-0.6
			l-3.5,1.2c0,0-4.7-4.7-11.8,1.8l-8.8,7.7c-1.2,1.2-3.5,1.8-5.3,1.8H96C93.7,211.4,91.9,209.1,91.9,206.7L91.9,206.7z"/>
		<path class="st0" d="M90.1,182.6h14.1V182c0.6-1.8,0-3.5-1.8-4.7l0,0c0,0-5.3-5.3-6.5,0C94.9,182.6,88.4,175.5,90.1,182.6z"/>
	</g>
	<g>
		<path class="st0" d="M375.2,262.7c0,22.4-16.5,37.7-35.3,37.7c-19.4,0-35.3-15.9-35.3-37.7c0-22.4,15.9-38.3,35.3-38.3
			C358.7,225,375.2,240.9,375.2,262.7z M314.5,262.7c0,15.3,11.2,27.1,24.7,27.1c13.5,0,24.7-11.8,24.7-27.1s-11.2-27.1-24.7-27.1
			C325.7,235.6,314.5,247.4,314.5,262.7z"/>
		<path class="st0" d="M399.9,228.5c5.3-2.4,13.5-3.5,20-3.5c22.4,0,33.6,17.1,33.6,37.7c0,21.8-12.4,37.7-32.4,37.7
			c-6.5,0-14.1-1.8-20-5.9v34.2c-2.9,1.8-6.5,2.4-10.6,2.4v-87.2C389.9,235.6,393.5,231.5,399.9,228.5z M401.1,279.2
			c0,4.1,2.4,6.5,5.3,7.7c3.5,1.8,9.4,2.9,13.5,2.9c14.1,0,23-10.6,23-27.1c0-17.1-9.4-27.1-24.1-27.1c-4.1,0-8.8,0.6-12.4,2.4
			c-4.1,1.8-5.9,4.7-5.9,9.4L401.1,279.2L401.1,279.2z"/>
		<path class="st0" d="M501.8,300.9c-22.4,0-37.1-15.3-37.1-37.7s13.5-37.7,34.7-37.7c17.7,0,30.6,11.2,30.6,28.3
			c0,10.6-5.3,14.1-15.3,14.1h-38.9c1.8,14.7,11.8,23,26.5,23c5.9,0,12.4-1.2,17.7-2.9c1.2,2.9,1.8,6.5,1.8,10
			C515.4,299.2,508.3,300.9,501.8,300.9z M511.8,257.4c6.5,0,7.7-2.4,7.7-6.5c0-10-9.4-15.9-20-15.9c-12.4,0-21.8,8.2-23.6,22.4
			C475.9,257.4,511.8,257.4,511.8,257.4z"/>
		<path class="st0" d="M602.5,298.6c-2.9,1.8-6.5,2.4-10.6,2.4v-42.4c0-13.5-6.5-23-19.4-23c-3.5,0-8.2,0.6-12.4,2.4
			c-4.7,1.8-5.9,4.7-5.9,9.4v51.2c-2.9,1.8-6.5,2.4-10.6,2.4v-56.5c0-8.2,3.5-12.4,10-15.3c5.3-2.4,13.5-3.5,19.4-3.5
			c18.3,0,29.4,13,29.4,32.4C602.5,258,602.5,298.6,602.5,298.6z"/>
		<path class="st0" d="M690.9,300.9c-22.4,0-37.1-15.3-37.1-37.7s13.5-37.7,34.7-37.7c17.7,0,30.6,11.2,30.6,28.3
			c0,10.6-5.3,14.1-15.3,14.1H665c1.8,14.7,11.8,23,26.5,23c5.9,0,12.4-1.2,17.7-2.9c1.2,2.9,1.8,6.5,1.8,10
			C705,299.2,697.9,300.9,690.9,300.9z M700.9,257.4c6.5,0,7.7-2.4,7.7-6.5c0-10-9.4-15.9-20-15.9c-12.4,0-21.8,8.2-23.6,22.4
			C665,257.4,700.9,257.4,700.9,257.4z"/>
		<path class="st0" d="M763.3,262.1l27.1,36.5c-3.5,1.8-7.1,2.4-11.8,2.4l-21.8-30l-21.8,30c-4.1,0-8.2-0.6-11.2-2.4l26.5-35.3
			L725,227.9c3.5-1.8,7.1-2.4,11.8-2.4l20.6,28.9l21.2-28.9c4.1,0,8.2,0.6,11.2,2.4L763.3,262.1z"/>
		<path class="st0" d="M794.5,262.7c0-22.4,14.7-38.3,37.1-38.3c6.5,0,13.5,1.2,19.4,3.5c0,3.5-0.6,7.1-1.8,10
			c-4.7-1.8-11.8-2.9-17.1-2.9c-16.5,0-27.1,11.2-27.1,27.1c0,16.5,10.6,27.1,26.5,27.1c5.9,0,12.4-1.2,17.7-2.9
			c1.2,2.9,1.8,6.5,1.8,10.6c-5.9,2.4-13,3.5-20,3.5C808.7,300.9,794.5,285,794.5,262.7z"/>
		<path class="st0" d="M882.3,230.9c5.9-4.1,13.5-5.9,20-5.9c18.3,0,28.9,13,28.9,31.8v41.8c-2.9,1.8-6.5,2.4-10.6,2.4v-43
			c0-13.5-7.1-22.4-19.4-22.4c-4.1,0-10,1.2-13.5,2.9c-2.9,1.2-5.3,3.5-5.3,7.7v52.4c-2.9,1.8-6.5,2.4-10.6,2.4V192.6
			c2.9-1.8,6.5-2.4,10.6-2.4L882.3,230.9L882.3,230.9z"/>
		<path class="st0" d="M1076,298.6c-2.9,1.8-6.5,2.4-10.6,2.4v-42.4c0-13.5-6.5-23-19.4-23c-3.5,0-8.2,0.6-12.4,2.4
			c-4.7,1.8-5.9,4.7-5.9,9.4v51.2c-2.9,1.8-6.5,2.4-10.6,2.4v-56.5c0-8.2,3.5-12.4,10-15.3c5.3-2.4,13.5-3.5,19.4-3.5
			c18.3,0,29.4,13,29.4,32.4V298.6L1076,298.6z"/>
		<path class="st0" d="M1121.4,331.6c-8.2,0-15.9-1.2-23-4.1c0-4.1,0.6-7.1,1.8-10.6c5.9,2.4,14.1,3.5,21.2,3.5
			c12.4,0,21.2-4.7,21.2-20v-8.2c-5.9,4.1-13.5,5.9-20,5.9c-20,0-32.4-15.3-32.4-36.5c0-20.6,11.8-37.1,33.6-37.1
			c6.5,0,14.7,1.2,20,3.5c6.5,2.9,10,7.1,10,15.3v56C1154.4,323.3,1141.4,331.6,1121.4,331.6z M1143.2,247.4c0-4.7-1.8-7.7-5.9-9.4
			c-3.5-1.8-8.2-2.4-12.4-2.4c-14.1,0-24.1,9.4-24.1,26.5c0,16.5,8.8,25.3,23,25.3c4.7,0,10-1.2,13.5-2.9c2.9-1.2,5.3-3.5,5.3-7.7
			v-29.4H1143.2z"/>
		<path class="st0" d="M1206.2,300.9c-22.4,0-37.1-15.3-37.1-37.7s13.5-37.7,34.7-37.7c17.7,0,30.6,11.2,30.6,28.3
			c0,10.6-5.3,14.1-15.3,14.1h-38.9c1.8,14.7,11.8,23,26.5,23c5.9,0,12.4-1.2,17.7-2.9c1.2,2.9,1.8,6.5,1.8,10
			C1219.8,299.2,1212.7,300.9,1206.2,300.9z M1216.2,257.4c6.5,0,7.7-2.4,7.7-6.5c0-10-9.4-15.9-20-15.9c-12.4,0-21.8,8.2-23.6,22.4
			C1180.3,257.4,1216.2,257.4,1216.2,257.4z"/>
		<path class="st0" d="M1323.4,226.2c0,4.1-0.6,7.1-1.8,10c-2.4,0-5.3-0.6-7.7-0.6c-4.1,0-8.8,1.2-12.4,2.4
			c-4.1,1.8-5.9,5.3-5.9,11.2V298c-2.9,1.8-6.5,2.4-10.6,2.4v-56.5c0-8.2,2.9-12.4,10-15.3c5.3-2.4,12.4-3.5,18.8-3.5
			C1316.9,225,1320.5,225,1323.4,226.2z"/>
		<path class="st0" d="M1351.1,235.6c-5.3,0-11.2,1.2-17.7,2.9c-1.2-2.9-1.2-5.9-1.2-10c6.5-2.9,13.5-4.1,20-4.1
			c15.9,0,24.1,7.1,24.1,25.9v31.2c0,7.7-2.4,12.4-8.2,15.3c-4.7,2.4-11.8,3.5-17.7,3.5c-11.8,0-23.6-4.1-23.6-21.8
			c0-18.3,12.4-23,25.9-23c3.5,0,8.8,0.6,14.1,1.2v-5.3C1367.6,240.3,1363.5,235.6,1351.1,235.6z M1367.6,266.8
			c-3.5-0.6-8.8-1.2-14.1-1.2c-12.4,0-17.7,3.5-17.7,13s5.9,11.8,13.5,11.8c2.9,0,9.4-0.6,13.5-2.4c3.5-1.8,4.7-4.7,4.7-9.4
			L1367.6,266.8L1367.6,266.8z"/>
		<path class="st0" d="M973,235.6c-5.3,0-11.2,1.2-17.7,2.9c-1.2-2.9-1.2-5.9-1.2-10c6.5-2.9,13.5-4.1,20-4.1
			c15.9,0,24.1,7.1,24.1,25.9v31.2c0,7.7-2.4,12.4-8.2,15.3c-4.7,2.4-11.8,3.5-17.7,3.5c-11.8,0-23.6-4.1-23.6-21.8
			c0-18.3,12.4-23,25.9-23c3.5,0,8.8,0.6,14.1,1.2v-5.3C990.1,240.3,985.4,235.6,973,235.6z M990.1,266.8c-3.5-0.6-8.8-1.2-14.1-1.2
			c-12.4,0-17.7,3.5-17.7,13s5.9,11.8,13.5,11.8c2.9,0,9.4-0.6,13.5-2.4c3.5-1.8,4.7-4.7,4.7-9.4L990.1,266.8L990.1,266.8z"/>
		<path class="st0" d="M1414.1,236.8v38.9c0,12.4,5.9,14.1,18.8,14.1c0,4.1-0.6,7.1-1.8,10c-1.2,0-2.4,0.6-4.1,0.6
			c-6.5,0-17.1-1.8-21.8-11.8c-1.8-4.7-2.4-9.4-2.4-15.9v-36.5h-13c0-4.1,0.6-7.7,1.8-10.6h10.6v-20.6c2.9-1.8,6.5-2.4,10.6-2.4
			v23.6h19.4c0,4.1-0.6,7.7-1.8,10.6H1414.1z"/>
		<path class="st0" d="M1483.6,300.9c-22.4,0-37.1-15.3-37.1-37.7s13.5-37.7,34.7-37.7c17.7,0,30.6,11.2,30.6,28.3
			c0,10.6-5.3,14.1-15.3,14.1h-38.9c1.8,14.7,11.8,23,26.5,23c5.9,0,12.4-1.2,17.7-2.9c1.2,2.9,1.8,6.5,1.8,10
			C1497.7,299.2,1490.1,300.9,1483.6,300.9z M1493.6,257.4c6.5,0,7.7-2.4,7.7-6.5c0-10-9.4-15.9-20-15.9c-12.4,0-21.8,8.2-23.6,22.4
			C1457.7,257.4,1493.6,257.4,1493.6,257.4z"/>
		<path class="st0" d="M1574.9,279.2c0,16.5-12.4,21.2-27.7,21.2c-8.2,0-16.5-1.2-24.1-4.1c0-4.1,0.6-7.7,1.8-10.6
			c7.7,2.4,15.3,4.1,23,4.1c8.8,0,15.9-2.4,15.9-10.6c0-8.8-7.7-10-17.1-11.8c-13-2.4-26.5-4.7-26.5-21.8
			c0-15.9,12.4-21.2,27.1-21.2c8.2,0,15.9,1.8,22.4,3.5c0,3.5-0.6,7.1-1.8,10c-5.9-1.8-13.5-2.9-20.6-2.9c-8.8,0-15.9,2.4-15.9,10
			c0,8.2,7.7,10,17.1,11.2C1561.3,259.1,1574.9,262.1,1574.9,279.2z"/>
	</g>
</g>
</svg>
