<svg width="270" height="219" viewBox="0 0 270 219" fill="none" xmlns="http://www.w3.org/2000/svg">
<path d="M0 213C0 216.314 2.68629 219 6 219H262C265.314 219 268 216.314 268 213V6C268 2.68629 265.314 0 262 0H6C2.68629 0 0 2.68629 0 6V213Z" fill="#E6E6E6"/>
<path d="M5 208C5 211.314 7.68629 214 11 214H257C260.314 214 263 211.314 263 208V11C263 7.6863 260.314 5 257 5H11C7.68629 5 5 7.68629 5 11V208Z" fill="white"/>
<path d="M30.918 83.85H24.222L22.836 87H20.982L26.688 74.4H28.47L34.194 87H32.304L30.918 83.85ZM30.288 82.41L27.57 76.236L24.852 82.41H30.288ZM45.1837 73.644V87H43.5277V85.488C43.1437 86.016 42.6577 86.418 42.0697 86.694C41.4817 86.97 40.8337 87.108 40.1257 87.108C39.2017 87.108 38.3737 86.904 37.6417 86.496C36.9097 86.088 36.3337 85.518 35.9137 84.786C35.5057 84.042 35.3017 83.19 35.3017 82.23C35.3017 81.27 35.5057 80.424 35.9137 79.692C36.3337 78.96 36.9097 78.39 37.6417 77.982C38.3737 77.574 39.2017 77.37 40.1257 77.37C40.8097 77.37 41.4397 77.502 42.0157 77.766C42.5917 78.018 43.0717 78.396 43.4557 78.9V73.644H45.1837ZM40.2697 85.596C40.8697 85.596 41.4157 85.458 41.9077 85.182C42.3997 84.894 42.7837 84.498 43.0597 83.994C43.3357 83.478 43.4737 82.89 43.4737 82.23C43.4737 81.57 43.3357 80.988 43.0597 80.484C42.7837 79.968 42.3997 79.572 41.9077 79.296C41.4157 79.02 40.8697 78.882 40.2697 78.882C39.6577 78.882 39.1057 79.02 38.6137 79.296C38.1337 79.572 37.7497 79.968 37.4617 80.484C37.1857 80.988 37.0477 81.57 37.0477 82.23C37.0477 82.89 37.1857 83.478 37.4617 83.994C37.7497 84.498 38.1337 84.894 38.6137 85.182C39.1057 85.458 39.6577 85.596 40.2697 85.596ZM57.9032 73.644V87H56.2472V85.488C55.8632 86.016 55.3772 86.418 54.7892 86.694C54.2012 86.97 53.5532 87.108 52.8452 87.108C51.9212 87.108 51.0932 86.904 50.3612 86.496C49.6292 86.088 49.0532 85.518 48.6332 84.786C48.2252 84.042 48.0212 83.19 48.0212 82.23C48.0212 81.27 48.2252 80.424 48.6332 79.692C49.0532 78.96 49.6292 78.39 50.3612 77.982C51.0932 77.574 51.9212 77.37 52.8452 77.37C53.5292 77.37 54.1592 77.502 54.7352 77.766C55.3112 78.018 55.7912 78.396 56.1752 78.9V73.644H57.9032ZM52.9892 85.596C53.5892 85.596 54.1352 85.458 54.6272 85.182C55.1192 84.894 55.5032 84.498 55.7792 83.994C56.0552 83.478 56.1932 82.89 56.1932 82.23C56.1932 81.57 56.0552 80.988 55.7792 80.484C55.5032 79.968 55.1192 79.572 54.6272 79.296C54.1352 79.02 53.5892 78.882 52.9892 78.882C52.3772 78.882 51.8252 79.02 51.3332 79.296C50.8532 79.572 50.4692 79.968 50.1812 80.484C49.9052 80.988 49.7672 81.57 49.7672 82.23C49.7672 82.89 49.9052 83.478 50.1812 83.994C50.4692 84.498 50.8532 84.894 51.3332 85.182C51.8252 85.458 52.3772 85.596 52.9892 85.596ZM69.6607 75.966H65.3407V74.4H75.7627V75.966H71.4427V87H69.6607V75.966ZM81.0228 87.108C80.0748 87.108 79.2228 86.898 78.4668 86.478C77.7108 86.058 77.1168 85.482 76.6848 84.75C76.2648 84.006 76.0548 83.166 76.0548 82.23C76.0548 81.294 76.2648 80.46 76.6848 79.728C77.1168 78.984 77.7108 78.408 78.4668 78C79.2228 77.58 80.0748 77.37 81.0228 77.37C81.9708 77.37 82.8168 77.58 83.5608 78C84.3168 78.408 84.9048 78.984 85.3248 79.728C85.7568 80.46 85.9728 81.294 85.9728 82.23C85.9728 83.166 85.7568 84.006 85.3248 84.75C84.9048 85.482 84.3168 86.058 83.5608 86.478C82.8168 86.898 81.9708 87.108 81.0228 87.108ZM81.0228 85.596C81.6348 85.596 82.1808 85.458 82.6608 85.182C83.1528 84.894 83.5368 84.498 83.8128 83.994C84.0888 83.478 84.2268 82.89 84.2268 82.23C84.2268 81.57 84.0888 80.988 83.8128 80.484C83.5368 79.968 83.1528 79.572 82.6608 79.296C82.1808 79.02 81.6348 78.882 81.0228 78.882C80.4108 78.882 79.8588 79.02 79.3668 79.296C78.8868 79.572 78.5028 79.968 78.2148 80.484C77.9388 80.988 77.8008 81.57 77.8008 82.23C77.8008 82.89 77.9388 83.478 78.2148 83.994C78.5028 84.498 78.8868 84.894 79.3668 85.182C79.8588 85.458 80.4108 85.596 81.0228 85.596ZM92.5206 82.554L90.5406 84.39V87H88.8126V73.644H90.5406V82.212L95.7426 77.46H97.8306L93.8166 81.402L98.2266 87H96.1026L92.5206 82.554ZM108.572 82.284C108.572 82.416 108.56 82.59 108.536 82.806H100.796C100.904 83.646 101.27 84.324 101.894 84.84C102.53 85.344 103.316 85.596 104.252 85.596C105.392 85.596 106.31 85.212 107.006 84.444L107.96 85.56C107.528 86.064 106.988 86.448 106.34 86.712C105.704 86.976 104.99 87.108 104.198 87.108C103.19 87.108 102.296 86.904 101.516 86.496C100.736 86.076 100.13 85.494 99.6981 84.75C99.2781 84.006 99.0681 83.166 99.0681 82.23C99.0681 81.306 99.2721 80.472 99.6801 79.728C100.1 78.984 100.67 78.408 101.39 78C102.122 77.58 102.944 77.37 103.856 77.37C104.768 77.37 105.578 77.58 106.286 78C107.006 78.408 107.564 78.984 107.96 79.728C108.368 80.472 108.572 81.324 108.572 82.284ZM103.856 78.828C103.028 78.828 102.332 79.08 101.768 79.584C101.216 80.088 100.892 80.748 100.796 81.564H106.916C106.82 80.76 106.49 80.106 105.926 79.602C105.374 79.086 104.684 78.828 103.856 78.828ZM116.516 77.37C117.728 77.37 118.688 77.724 119.396 78.432C120.116 79.128 120.476 80.154 120.476 81.51V87H118.748V81.708C118.748 80.784 118.526 80.088 118.082 79.62C117.638 79.152 117.002 78.918 116.174 78.918C115.238 78.918 114.5 79.194 113.96 79.746C113.42 80.286 113.15 81.066 113.15 82.086V87H111.422V77.46H113.078V78.9C113.426 78.408 113.894 78.03 114.482 77.766C115.082 77.502 115.76 77.37 116.516 77.37ZM126.86 87.108C126.08 87.108 125.33 87.006 124.61 86.802C123.89 86.586 123.326 86.316 122.918 85.992L123.638 84.624C124.058 84.924 124.568 85.164 125.168 85.344C125.768 85.524 126.374 85.614 126.986 85.614C128.498 85.614 129.254 85.182 129.254 84.318C129.254 84.03 129.152 83.802 128.948 83.634C128.744 83.466 128.486 83.346 128.174 83.274C127.874 83.19 127.442 83.1 126.878 83.004C126.11 82.884 125.48 82.746 124.988 82.59C124.508 82.434 124.094 82.17 123.746 81.798C123.398 81.426 123.224 80.904 123.224 80.232C123.224 79.368 123.584 78.678 124.304 78.162C125.024 77.634 125.99 77.37 127.202 77.37C127.838 77.37 128.474 77.448 129.11 77.604C129.746 77.76 130.268 77.97 130.676 78.234L129.938 79.602C129.158 79.098 128.24 78.846 127.184 78.846C126.452 78.846 125.894 78.966 125.51 79.206C125.126 79.446 124.934 79.764 124.934 80.16C124.934 80.472 125.042 80.718 125.258 80.898C125.474 81.078 125.738 81.21 126.05 81.294C126.374 81.378 126.824 81.474 127.4 81.582C128.168 81.714 128.786 81.858 129.254 82.014C129.734 82.158 130.142 82.41 130.478 82.77C130.814 83.13 130.982 83.634 130.982 84.282C130.982 85.146 130.61 85.836 129.866 86.352C129.134 86.856 128.132 87.108 126.86 87.108Z" fill="#40444F"/>
<path d="M24.732 123.12C24.084 123.12 23.456 123.028 22.848 122.844C22.248 122.66 21.772 122.416 21.42 122.112L21.96 120.9C22.304 121.172 22.724 121.396 23.22 121.572C23.724 121.74 24.228 121.824 24.732 121.824C25.356 121.824 25.82 121.724 26.124 121.524C26.436 121.324 26.592 121.06 26.592 120.732C26.592 120.492 26.504 120.296 26.328 120.144C26.16 119.984 25.944 119.86 25.68 119.772C25.416 119.684 25.056 119.584 24.6 119.472C23.96 119.32 23.44 119.168 23.04 119.016C22.648 118.864 22.308 118.628 22.02 118.308C21.74 117.98 21.6 117.54 21.6 116.988C21.6 116.524 21.724 116.104 21.972 115.728C22.228 115.344 22.608 115.04 23.112 114.816C23.624 114.592 24.248 114.48 24.984 114.48C25.496 114.48 26 114.544 26.496 114.672C26.992 114.8 27.42 114.984 27.78 115.224L27.288 116.436C26.92 116.22 26.536 116.056 26.136 115.944C25.736 115.832 25.348 115.776 24.972 115.776C24.356 115.776 23.896 115.88 23.592 116.088C23.296 116.296 23.148 116.572 23.148 116.916C23.148 117.156 23.232 117.352 23.4 117.504C23.576 117.656 23.796 117.776 24.06 117.864C24.324 117.952 24.684 118.052 25.14 118.164C25.764 118.308 26.276 118.46 26.676 118.62C27.076 118.772 27.416 119.008 27.696 119.328C27.984 119.648 28.128 120.08 28.128 120.624C28.128 121.088 28 121.508 27.744 121.884C27.496 122.26 27.116 122.56 26.604 122.784C26.092 123.008 25.468 123.12 24.732 123.12ZM35.8549 119.832C35.8549 119.936 35.8469 120.084 35.8309 120.276H30.8029C30.8909 120.748 31.1189 121.124 31.4869 121.404C31.8629 121.676 32.3269 121.812 32.8789 121.812C33.5829 121.812 34.1629 121.58 34.6189 121.116L35.4229 122.04C35.1349 122.384 34.7709 122.644 34.3309 122.82C33.8909 122.996 33.3949 123.084 32.8429 123.084C32.1389 123.084 31.5189 122.944 30.9829 122.664C30.4469 122.384 30.0309 121.996 29.7349 121.5C29.4469 120.996 29.3029 120.428 29.3029 119.796C29.3029 119.172 29.4429 118.612 29.7229 118.116C30.0109 117.612 30.4069 117.22 30.9109 116.94C31.4149 116.66 31.9829 116.52 32.6149 116.52C33.2389 116.52 33.7949 116.66 34.2829 116.94C34.7789 117.212 35.1629 117.6 35.4349 118.104C35.7149 118.6 35.8549 119.176 35.8549 119.832ZM32.6149 117.72C32.1349 117.72 31.7269 117.864 31.3909 118.152C31.0629 118.432 30.8629 118.808 30.7909 119.28H34.4269C34.3629 118.816 34.1669 118.44 33.8389 118.152C33.5109 117.864 33.1029 117.72 32.6149 117.72ZM39.8679 116.52C40.8119 116.52 41.5319 116.748 42.0279 117.204C42.5319 117.652 42.7839 118.332 42.7839 119.244V123H41.3679V122.22C41.1839 122.5 40.9199 122.716 40.5759 122.868C40.2399 123.012 39.8319 123.084 39.3519 123.084C38.8719 123.084 38.4519 123.004 38.0919 122.844C37.7319 122.676 37.4519 122.448 37.2519 122.16C37.0599 121.864 36.9639 121.532 36.9639 121.164C36.9639 120.588 37.1759 120.128 37.5999 119.784C38.0319 119.432 38.7079 119.256 39.6279 119.256H41.2839V119.16C41.2839 118.712 41.1479 118.368 40.8759 118.128C40.6119 117.888 40.2159 117.768 39.6879 117.768C39.3279 117.768 38.9719 117.824 38.6199 117.936C38.2759 118.048 37.9839 118.204 37.7439 118.404L37.1559 117.312C37.4919 117.056 37.8959 116.86 38.3679 116.724C38.8399 116.588 39.3399 116.52 39.8679 116.52ZM39.6639 121.992C40.0399 121.992 40.3719 121.908 40.6599 121.74C40.9559 121.564 41.1639 121.316 41.2839 120.996V120.252H39.7359C38.8719 120.252 38.4399 120.536 38.4399 121.104C38.4399 121.376 38.5479 121.592 38.7639 121.752C38.9799 121.912 39.2799 121.992 39.6639 121.992ZM46.437 117.528C46.869 116.856 47.629 116.52 48.717 116.52V117.948C48.589 117.924 48.473 117.912 48.369 117.912C47.785 117.912 47.329 118.084 47.001 118.428C46.673 118.764 46.509 119.252 46.509 119.892V123H45.009V116.592H46.437V117.528ZM53.1709 123.084C52.5069 123.084 51.9109 122.944 51.3829 122.664C50.8549 122.384 50.4429 121.996 50.1469 121.5C49.8509 120.996 49.7029 120.428 49.7029 119.796C49.7029 119.164 49.8509 118.6 50.1469 118.104C50.4429 117.608 50.8509 117.22 51.3709 116.94C51.8989 116.66 52.4989 116.52 53.1709 116.52C53.8029 116.52 54.3549 116.648 54.8269 116.904C55.3069 117.16 55.6669 117.528 55.9069 118.008L54.7549 118.68C54.5709 118.384 54.3389 118.164 54.0589 118.02C53.7869 117.868 53.4869 117.792 53.1589 117.792C52.5989 117.792 52.1349 117.976 51.7669 118.344C51.3989 118.704 51.2149 119.188 51.2149 119.796C51.2149 120.404 51.3949 120.892 51.7549 121.26C52.1229 121.62 52.5909 121.8 53.1589 121.8C53.4869 121.8 53.7869 121.728 54.0589 121.584C54.3389 121.432 54.5709 121.208 54.7549 120.912L55.9069 121.584C55.6589 122.064 55.2949 122.436 54.8149 122.7C54.3429 122.956 53.7949 123.084 53.1709 123.084ZM61.0809 116.52C61.8889 116.52 62.5369 116.756 63.0249 117.228C63.5129 117.7 63.7569 118.4 63.7569 119.328V123H62.2569V119.52C62.2569 118.96 62.1249 118.54 61.8609 118.26C61.5969 117.972 61.2209 117.828 60.7329 117.828C60.1809 117.828 59.7449 117.996 59.4249 118.332C59.1049 118.66 58.9449 119.136 58.9449 119.76V123H57.4449V114.096H58.9449V117.336C59.1929 117.072 59.4969 116.872 59.8569 116.736C60.2249 116.592 60.6329 116.52 61.0809 116.52Z" fill="#9A9A9A"/>
<path d="M97.016 123.12C96.168 123.12 95.4 122.936 94.712 122.568C94.032 122.192 93.496 121.676 93.104 121.02C92.72 120.364 92.528 119.624 92.528 118.8C92.528 117.976 92.724 117.236 93.116 116.58C93.508 115.924 94.044 115.412 94.724 115.044C95.412 114.668 96.18 114.48 97.028 114.48C97.716 114.48 98.344 114.6 98.912 114.84C99.48 115.08 99.96 115.428 100.352 115.884L99.344 116.832C98.736 116.176 97.988 115.848 97.1 115.848C96.524 115.848 96.008 115.976 95.552 116.232C95.096 116.48 94.74 116.828 94.484 117.276C94.228 117.724 94.1 118.232 94.1 118.8C94.1 119.368 94.228 119.876 94.484 120.324C94.74 120.772 95.096 121.124 95.552 121.38C96.008 121.628 96.524 121.752 97.1 121.752C97.988 121.752 98.736 121.42 99.344 120.756L100.352 121.716C99.96 122.172 99.476 122.52 98.9 122.76C98.332 123 97.704 123.12 97.016 123.12ZM108.031 116.592V123H106.603V122.184C106.363 122.472 106.063 122.696 105.703 122.856C105.343 123.008 104.955 123.084 104.539 123.084C103.683 123.084 103.007 122.848 102.511 122.376C102.023 121.896 101.779 121.188 101.779 120.252V116.592H103.279V120.048C103.279 120.624 103.407 121.056 103.663 121.344C103.927 121.624 104.299 121.764 104.779 121.764C105.315 121.764 105.739 121.6 106.051 121.272C106.371 120.936 106.531 120.456 106.531 119.832V116.592H108.031ZM112.275 123.084C111.755 123.084 111.247 123.016 110.751 122.88C110.255 122.744 109.859 122.572 109.563 122.364L110.139 121.224C110.427 121.416 110.771 121.572 111.171 121.692C111.579 121.804 111.979 121.86 112.371 121.86C113.267 121.86 113.715 121.624 113.715 121.152C113.715 120.928 113.599 120.772 113.367 120.684C113.143 120.596 112.779 120.512 112.275 120.432C111.747 120.352 111.315 120.26 110.979 120.156C110.651 120.052 110.363 119.872 110.115 119.616C109.875 119.352 109.755 118.988 109.755 118.524C109.755 117.916 110.007 117.432 110.511 117.072C111.023 116.704 111.711 116.52 112.575 116.52C113.015 116.52 113.455 116.572 113.895 116.676C114.335 116.772 114.695 116.904 114.975 117.072L114.399 118.212C113.855 117.892 113.243 117.732 112.563 117.732C112.123 117.732 111.787 117.8 111.555 117.936C111.331 118.064 111.219 118.236 111.219 118.452C111.219 118.692 111.339 118.864 111.579 118.968C111.827 119.064 112.207 119.156 112.719 119.244C113.231 119.324 113.651 119.416 113.979 119.52C114.307 119.624 114.587 119.8 114.819 120.048C115.059 120.296 115.179 120.648 115.179 121.104C115.179 121.704 114.919 122.184 114.399 122.544C113.879 122.904 113.171 123.084 112.275 123.084ZM120.623 122.652C120.447 122.796 120.231 122.904 119.975 122.976C119.727 123.048 119.463 123.084 119.183 123.084C118.479 123.084 117.935 122.9 117.551 122.532C117.167 122.164 116.975 121.628 116.975 120.924V117.84H115.919V116.64H116.975V115.176H118.475V116.64H120.191V117.84H118.475V120.888C118.475 121.2 118.551 121.44 118.703 121.608C118.855 121.768 119.075 121.848 119.363 121.848C119.699 121.848 119.979 121.76 120.203 121.584L120.623 122.652ZM124.826 123.084C124.178 123.084 123.594 122.944 123.074 122.664C122.554 122.384 122.146 121.996 121.85 121.5C121.562 120.996 121.418 120.428 121.418 119.796C121.418 119.164 121.562 118.6 121.85 118.104C122.146 117.608 122.554 117.22 123.074 116.94C123.594 116.66 124.178 116.52 124.826 116.52C125.482 116.52 126.07 116.66 126.59 116.94C127.11 117.22 127.514 117.608 127.802 118.104C128.098 118.6 128.246 119.164 128.246 119.796C128.246 120.428 128.098 120.996 127.802 121.5C127.514 121.996 127.11 122.384 126.59 122.664C126.07 122.944 125.482 123.084 124.826 123.084ZM124.826 121.8C125.378 121.8 125.834 121.616 126.194 121.248C126.554 120.88 126.734 120.396 126.734 119.796C126.734 119.196 126.554 118.712 126.194 118.344C125.834 117.976 125.378 117.792 124.826 117.792C124.274 117.792 123.818 117.976 123.458 118.344C123.106 118.712 122.93 119.196 122.93 119.796C122.93 120.396 123.106 120.88 123.458 121.248C123.818 121.616 124.274 121.8 124.826 121.8ZM138.068 116.52C138.876 116.52 139.516 116.756 139.988 117.228C140.46 117.692 140.696 118.392 140.696 119.328V123H139.196V119.52C139.196 118.96 139.072 118.54 138.824 118.26C138.576 117.972 138.22 117.828 137.756 117.828C137.252 117.828 136.848 117.996 136.544 118.332C136.24 118.66 136.088 119.132 136.088 119.748V123H134.588V119.52C134.588 118.96 134.464 118.54 134.216 118.26C133.968 117.972 133.612 117.828 133.148 117.828C132.636 117.828 132.228 117.992 131.924 118.32C131.628 118.648 131.48 119.124 131.48 119.748V123H129.98V116.592H131.408V117.408C131.648 117.12 131.948 116.9 132.308 116.748C132.668 116.596 133.068 116.52 133.508 116.52C133.988 116.52 134.412 116.612 134.78 116.796C135.156 116.972 135.452 117.236 135.668 117.588C135.932 117.252 136.272 116.992 136.688 116.808C137.104 116.616 137.564 116.52 138.068 116.52ZM148.377 115.92H145.593V114.6H152.721V115.92H149.937V123H148.377V115.92ZM156.272 123.084C155.624 123.084 155.04 122.944 154.52 122.664C154 122.384 153.592 121.996 153.296 121.5C153.008 120.996 152.864 120.428 152.864 119.796C152.864 119.164 153.008 118.6 153.296 118.104C153.592 117.608 154 117.22 154.52 116.94C155.04 116.66 155.624 116.52 156.272 116.52C156.928 116.52 157.516 116.66 158.036 116.94C158.556 117.22 158.96 117.608 159.248 118.104C159.544 118.6 159.692 119.164 159.692 119.796C159.692 120.428 159.544 120.996 159.248 121.5C158.96 121.996 158.556 122.384 158.036 122.664C157.516 122.944 156.928 123.084 156.272 123.084ZM156.272 121.8C156.824 121.8 157.28 121.616 157.64 121.248C158 120.88 158.18 120.396 158.18 119.796C158.18 119.196 158 118.712 157.64 118.344C157.28 117.976 156.824 117.792 156.272 117.792C155.72 117.792 155.264 117.976 154.904 118.344C154.552 118.712 154.376 119.196 154.376 119.796C154.376 120.396 154.552 120.88 154.904 121.248C155.264 121.616 155.72 121.8 156.272 121.8ZM164.042 120.252L162.926 121.308V123H161.426V114.096H162.926V119.472L166.034 116.592H167.834L165.158 119.28L168.086 123H166.262L164.042 120.252ZM175.11 119.832C175.11 119.936 175.102 120.084 175.086 120.276H170.058C170.146 120.748 170.374 121.124 170.742 121.404C171.118 121.676 171.582 121.812 172.134 121.812C172.838 121.812 173.418 121.58 173.874 121.116L174.678 122.04C174.39 122.384 174.026 122.644 173.586 122.82C173.146 122.996 172.65 123.084 172.098 123.084C171.394 123.084 170.774 122.944 170.238 122.664C169.702 122.384 169.286 121.996 168.99 121.5C168.702 120.996 168.558 120.428 168.558 119.796C168.558 119.172 168.698 118.612 168.978 118.116C169.266 117.612 169.662 117.22 170.166 116.94C170.67 116.66 171.238 116.52 171.87 116.52C172.494 116.52 173.05 116.66 173.538 116.94C174.034 117.212 174.418 117.6 174.69 118.104C174.97 118.6 175.11 119.176 175.11 119.832ZM171.87 117.72C171.39 117.72 170.982 117.864 170.646 118.152C170.318 118.432 170.118 118.808 170.046 119.28H173.682C173.618 118.816 173.422 118.44 173.094 118.152C172.766 117.864 172.358 117.72 171.87 117.72ZM180.486 116.52C181.294 116.52 181.942 116.756 182.43 117.228C182.918 117.7 183.162 118.4 183.162 119.328V123H181.662V119.52C181.662 118.96 181.53 118.54 181.266 118.26C181.002 117.972 180.626 117.828 180.138 117.828C179.586 117.828 179.15 117.996 178.83 118.332C178.51 118.66 178.35 119.136 178.35 119.76V123H176.85V116.592H178.278V117.42C178.526 117.124 178.838 116.9 179.214 116.748C179.59 116.596 180.014 116.52 180.486 116.52Z" fill="#40444F"/>
<path d="M23.366 175.962H22.244V181H20.979V175.962H20.264V174.939H20.979V174.51C20.979 173.813 21.1623 173.307 21.529 172.992C21.903 172.669 22.486 172.508 23.278 172.508V173.553C22.8967 173.553 22.629 173.626 22.475 173.773C22.321 173.912 22.244 174.158 22.244 174.51V174.939H23.366V175.962ZM24.3343 177.964C24.3343 177.341 24.459 176.794 24.7083 176.325C24.965 175.848 25.317 175.482 25.7643 175.225C26.2117 174.968 26.725 174.84 27.3043 174.84C28.0377 174.84 28.6427 175.016 29.1193 175.368C29.6033 175.713 29.9297 176.208 30.0983 176.853H28.7453C28.6353 176.552 28.4593 176.318 28.2173 176.149C27.9753 175.98 27.671 175.896 27.3043 175.896C26.791 175.896 26.3803 176.079 26.0723 176.446C25.7717 176.805 25.6213 177.311 25.6213 177.964C25.6213 178.617 25.7717 179.126 26.0723 179.493C26.3803 179.86 26.791 180.043 27.3043 180.043C28.0303 180.043 28.5107 179.724 28.7453 179.086H30.0983C29.9223 179.702 29.5923 180.193 29.1083 180.56C28.6243 180.919 28.023 181.099 27.3043 181.099C26.725 181.099 26.2117 180.971 25.7643 180.714C25.317 180.45 24.965 180.083 24.7083 179.614C24.459 179.137 24.3343 178.587 24.3343 177.964ZM35.77 174.84C35.6894 174.503 35.5427 174.25 35.33 174.081C35.1174 173.912 34.8204 173.828 34.439 173.828C33.8597 173.828 33.427 174.052 33.141 174.499C32.855 174.939 32.7047 175.672 32.69 176.699C32.8807 176.376 33.1594 176.127 33.526 175.951C33.8927 175.775 34.2887 175.687 34.714 175.687C35.198 175.687 35.6234 175.793 35.99 176.006C36.364 176.211 36.6537 176.512 36.859 176.908C37.0717 177.304 37.178 177.777 37.178 178.327C37.178 178.84 37.0754 179.299 36.87 179.702C36.672 180.105 36.375 180.424 35.979 180.659C35.583 180.886 35.1064 181 34.549 181C33.7937 181 33.1997 180.835 32.767 180.505C32.3417 180.168 32.041 179.695 31.865 179.086C31.6964 178.477 31.612 177.718 31.612 176.809C31.612 174.125 32.558 172.783 34.45 172.783C35.1834 172.783 35.759 172.981 36.177 173.377C36.6024 173.773 36.8517 174.261 36.925 174.84H35.77ZM34.439 176.743C33.9917 176.743 33.6104 176.879 33.295 177.15C32.987 177.414 32.833 177.799 32.833 178.305C32.833 178.811 32.976 179.214 33.262 179.515C33.5554 179.808 33.9624 179.955 34.483 179.955C34.945 179.955 35.308 179.812 35.572 179.526C35.8434 179.24 35.979 178.859 35.979 178.382C35.979 177.883 35.847 177.487 35.583 177.194C35.3264 176.893 34.945 176.743 34.439 176.743ZM43.9607 174.059H40.2757V176.248C40.4297 176.043 40.657 175.87 40.9577 175.731C41.2657 175.592 41.592 175.522 41.9367 175.522C42.5527 175.522 43.0513 175.654 43.4327 175.918C43.8213 176.182 44.0963 176.516 44.2577 176.919C44.4263 177.322 44.5107 177.748 44.5107 178.195C44.5107 178.738 44.4043 179.222 44.1917 179.647C43.9863 180.065 43.6747 180.395 43.2567 180.637C42.846 180.879 42.34 181 41.7387 181C40.9393 181 40.2977 180.802 39.8137 180.406C39.3297 180.01 39.04 179.486 38.9447 178.833H40.1657C40.2463 179.178 40.426 179.453 40.7047 179.658C40.9833 179.856 41.3317 179.955 41.7497 179.955C42.2703 179.955 42.659 179.797 42.9157 179.482C43.1797 179.167 43.3117 178.749 43.3117 178.228C43.3117 177.7 43.1797 177.297 42.9157 177.018C42.6517 176.732 42.263 176.589 41.7497 176.589C41.3903 176.589 41.086 176.681 40.8367 176.864C40.5947 177.04 40.4187 177.282 40.3087 177.59H39.1207V172.959H43.9607V174.059ZM46.7841 179.295C47.4881 178.686 48.0417 178.188 48.4451 177.799C48.8557 177.403 49.1967 176.992 49.4681 176.567C49.7394 176.142 49.8751 175.716 49.8751 175.291C49.8751 174.851 49.7687 174.506 49.5561 174.257C49.3507 174.008 49.0244 173.883 48.5771 173.883C48.1444 173.883 47.8071 174.022 47.5651 174.301C47.3304 174.572 47.2057 174.939 47.1911 175.401H45.9811C46.0031 174.565 46.2524 173.927 46.7291 173.487C47.2131 173.04 47.8254 172.816 48.5661 172.816C49.3654 172.816 49.9887 173.036 50.4361 173.476C50.8907 173.916 51.1181 174.503 51.1181 175.236C51.1181 175.764 50.9824 176.274 50.7111 176.765C50.4471 177.249 50.1281 177.685 49.7541 178.074C49.3874 178.455 48.9181 178.899 48.3461 179.405L47.8511 179.845H51.3381V180.89H45.9921V179.977L46.7841 179.295ZM57.0267 174.84C56.946 174.503 56.7994 174.25 56.5867 174.081C56.374 173.912 56.077 173.828 55.6957 173.828C55.1164 173.828 54.6837 174.052 54.3977 174.499C54.1117 174.939 53.9614 175.672 53.9467 176.699C54.1374 176.376 54.416 176.127 54.7827 175.951C55.1494 175.775 55.5454 175.687 55.9707 175.687C56.4547 175.687 56.88 175.793 57.2467 176.006C57.6207 176.211 57.9104 176.512 58.1157 176.908C58.3284 177.304 58.4347 177.777 58.4347 178.327C58.4347 178.84 58.332 179.299 58.1267 179.702C57.9287 180.105 57.6317 180.424 57.2357 180.659C56.8397 180.886 56.363 181 55.8057 181C55.0504 181 54.4564 180.835 54.0237 180.505C53.5984 180.168 53.2977 179.695 53.1217 179.086C52.953 178.477 52.8687 177.718 52.8687 176.809C52.8687 174.125 53.8147 172.783 55.7067 172.783C56.44 172.783 57.0157 172.981 57.4337 173.377C57.859 173.773 58.1084 174.261 58.1817 174.84H57.0267ZM55.6957 176.743C55.2484 176.743 54.867 176.879 54.5517 177.15C54.2437 177.414 54.0897 177.799 54.0897 178.305C54.0897 178.811 54.2327 179.214 54.5187 179.515C54.812 179.808 55.219 179.955 55.7397 179.955C56.2017 179.955 56.5647 179.812 56.8287 179.526C57.1 179.24 57.2357 178.859 57.2357 178.382C57.2357 177.883 57.1037 177.487 56.8397 177.194C56.583 176.893 56.2017 176.743 55.6957 176.743ZM59.7943 177.942C59.7943 177.333 59.919 176.794 60.1683 176.325C60.425 175.856 60.7696 175.493 61.2023 175.236C61.6423 174.972 62.13 174.84 62.6653 174.84C63.0613 174.84 63.45 174.928 63.8313 175.104C64.22 175.273 64.528 175.5 64.7553 175.786V172.86H66.0203V181H64.7553V180.087C64.55 180.38 64.264 180.622 63.8973 180.813C63.538 181.004 63.1236 181.099 62.6543 181.099C62.1263 181.099 61.6423 180.967 61.2023 180.703C60.7696 180.432 60.425 180.058 60.1683 179.581C59.919 179.097 59.7943 178.551 59.7943 177.942ZM64.7553 177.964C64.7553 177.546 64.6673 177.183 64.4913 176.875C64.3226 176.567 64.099 176.332 63.8203 176.171C63.5416 176.01 63.241 175.929 62.9183 175.929C62.5956 175.929 62.295 176.01 62.0163 176.171C61.7376 176.325 61.5103 176.556 61.3343 176.864C61.1656 177.165 61.0813 177.524 61.0813 177.942C61.0813 178.36 61.1656 178.727 61.3343 179.042C61.5103 179.357 61.7376 179.599 62.0163 179.768C62.3023 179.929 62.603 180.01 62.9183 180.01C63.241 180.01 63.5416 179.929 63.8203 179.768C64.099 179.607 64.3226 179.372 64.4913 179.064C64.6673 178.749 64.7553 178.382 64.7553 177.964ZM70.4834 175.962H69.3614V181H68.0964V175.962H67.3814V174.939H68.0964V174.51C68.0964 173.813 68.2797 173.307 68.6464 172.992C69.0204 172.669 69.6034 172.508 70.3954 172.508V173.553C70.014 173.553 69.7464 173.626 69.5924 173.773C69.4384 173.912 69.3614 174.158 69.3614 174.51V174.939H70.4834V175.962ZM76.0167 174.84C75.9361 174.503 75.7894 174.25 75.5767 174.081C75.3641 173.912 75.0671 173.828 74.6857 173.828C74.1064 173.828 73.6737 174.052 73.3877 174.499C73.1017 174.939 72.9514 175.672 72.9367 176.699C73.1274 176.376 73.4061 176.127 73.7727 175.951C74.1394 175.775 74.5354 175.687 74.9607 175.687C75.4447 175.687 75.8701 175.793 76.2367 176.006C76.6107 176.211 76.9004 176.512 77.1057 176.908C77.3184 177.304 77.4247 177.777 77.4247 178.327C77.4247 178.84 77.3221 179.299 77.1167 179.702C76.9187 180.105 76.6217 180.424 76.2257 180.659C75.8297 180.886 75.3531 181 74.7957 181C74.0404 181 73.4464 180.835 73.0137 180.505C72.5884 180.168 72.2877 179.695 72.1117 179.086C71.9431 178.477 71.8587 177.718 71.8587 176.809C71.8587 174.125 72.8047 172.783 74.6967 172.783C75.4301 172.783 76.0057 172.981 76.4237 173.377C76.8491 173.773 77.0984 174.261 77.1717 174.84H76.0167ZM74.6857 176.743C74.2384 176.743 73.8571 176.879 73.5417 177.15C73.2337 177.414 73.0797 177.799 73.0797 178.305C73.0797 178.811 73.2227 179.214 73.5087 179.515C73.8021 179.808 74.2091 179.955 74.7297 179.955C75.1917 179.955 75.5547 179.812 75.8187 179.526C76.0901 179.24 76.2257 178.859 76.2257 178.382C76.2257 177.883 76.0937 177.487 75.8297 177.194C75.5731 176.893 75.1917 176.743 74.6857 176.743ZM79.0373 176.886C79.0373 175.617 79.25 174.627 79.6753 173.916C80.108 173.197 80.8487 172.838 81.8973 172.838C82.946 172.838 83.683 173.197 84.1083 173.916C84.541 174.627 84.7573 175.617 84.7573 176.886C84.7573 178.169 84.541 179.174 84.1083 179.9C83.683 180.619 82.946 180.978 81.8973 180.978C80.8487 180.978 80.108 180.619 79.6753 179.9C79.25 179.174 79.0373 178.169 79.0373 176.886ZM83.5253 176.886C83.5253 176.292 83.485 175.79 83.4043 175.379C83.331 174.968 83.177 174.635 82.9423 174.378C82.7077 174.114 82.3593 173.982 81.8973 173.982C81.4353 173.982 81.087 174.114 80.8523 174.378C80.6177 174.635 80.46 174.968 80.3793 175.379C80.306 175.79 80.2693 176.292 80.2693 176.886C80.2693 177.502 80.306 178.019 80.3793 178.437C80.4527 178.855 80.6067 179.192 80.8413 179.449C81.0833 179.706 81.4353 179.834 81.8973 179.834C82.3593 179.834 82.7077 179.706 82.9423 179.449C83.1843 179.192 83.342 178.855 83.4153 178.437C83.4887 178.019 83.5253 177.502 83.5253 176.886ZM86.3592 176.886C86.3592 175.617 86.5719 174.627 86.9972 173.916C87.4299 173.197 88.1706 172.838 89.2192 172.838C90.2679 172.838 91.0049 173.197 91.4302 173.916C91.8629 174.627 92.0792 175.617 92.0792 176.886C92.0792 178.169 91.8629 179.174 91.4302 179.9C91.0049 180.619 90.2679 180.978 89.2192 180.978C88.1706 180.978 87.4299 180.619 86.9972 179.9C86.5719 179.174 86.3592 178.169 86.3592 176.886ZM90.8472 176.886C90.8472 176.292 90.8069 175.79 90.7262 175.379C90.6529 174.968 90.4989 174.635 90.2642 174.378C90.0296 174.114 89.6812 173.982 89.2192 173.982C88.7572 173.982 88.4089 174.114 88.1742 174.378C87.9396 174.635 87.7819 174.968 87.7012 175.379C87.6279 175.79 87.5912 176.292 87.5912 176.886C87.5912 177.502 87.6279 178.019 87.7012 178.437C87.7746 178.855 87.9286 179.192 88.1632 179.449C88.4052 179.706 88.7572 179.834 89.2192 179.834C89.6812 179.834 90.0296 179.706 90.2642 179.449C90.5062 179.192 90.6639 178.855 90.7372 178.437C90.8106 178.019 90.8472 177.502 90.8472 176.886ZM94.3741 179.295C95.0781 178.686 95.6318 178.188 96.0351 177.799C96.4458 177.403 96.7868 176.992 97.0581 176.567C97.3294 176.142 97.4651 175.716 97.4651 175.291C97.4651 174.851 97.3588 174.506 97.1461 174.257C96.9408 174.008 96.6144 173.883 96.1671 173.883C95.7344 173.883 95.3971 174.022 95.1551 174.301C94.9204 174.572 94.7958 174.939 94.7811 175.401H93.5711C93.5931 174.565 93.8424 173.927 94.3191 173.487C94.8031 173.04 95.4154 172.816 96.1561 172.816C96.9554 172.816 97.5788 173.036 98.0261 173.476C98.4808 173.916 98.7081 174.503 98.7081 175.236C98.7081 175.764 98.5724 176.274 98.3011 176.765C98.0371 177.249 97.7181 177.685 97.3441 178.074C96.9774 178.455 96.5081 178.899 95.9361 179.405L95.4411 179.845H98.9281V180.89H93.5821V179.977L94.3741 179.295ZM100.14 174.125V172.981H102.428V181H101.163V174.125H100.14ZM104.271 179.328V178.382L107.967 173.08H109.485V178.239H110.508V179.328H109.485V181H108.253V179.328H104.271ZM108.308 174.356L105.712 178.239H108.308V174.356ZM111.569 177.964C111.569 177.341 111.694 176.794 111.943 176.325C112.2 175.848 112.552 175.482 112.999 175.225C113.447 174.968 113.96 174.84 114.539 174.84C115.273 174.84 115.878 175.016 116.354 175.368C116.838 175.713 117.165 176.208 117.333 176.853H115.98C115.87 176.552 115.694 176.318 115.452 176.149C115.21 175.98 114.906 175.896 114.539 175.896C114.026 175.896 113.615 176.079 113.307 176.446C113.007 176.805 112.856 177.311 112.856 177.964C112.856 178.617 113.007 179.126 113.307 179.493C113.615 179.86 114.026 180.043 114.539 180.043C115.265 180.043 115.746 179.724 115.98 179.086H117.333C117.157 179.702 116.827 180.193 116.343 180.56C115.859 180.919 115.258 181.099 114.539 181.099C113.96 181.099 113.447 180.971 112.999 180.714C112.552 180.45 112.2 180.083 111.943 179.614C111.694 179.137 111.569 178.587 111.569 177.964ZM118.44 177.942C118.44 177.333 118.565 176.794 118.814 176.325C119.071 175.856 119.416 175.493 119.848 175.236C120.288 174.972 120.772 174.84 121.3 174.84C121.777 174.84 122.191 174.935 122.543 175.126C122.903 175.309 123.189 175.54 123.401 175.819V174.939H124.666V181H123.401V180.098C123.189 180.384 122.899 180.622 122.532 180.813C122.166 181.004 121.748 181.099 121.278 181.099C120.758 181.099 120.281 180.967 119.848 180.703C119.416 180.432 119.071 180.058 118.814 179.581C118.565 179.097 118.44 178.551 118.44 177.942ZM123.401 177.964C123.401 177.546 123.313 177.183 123.137 176.875C122.969 176.567 122.745 176.332 122.466 176.171C122.188 176.01 121.887 175.929 121.564 175.929C121.242 175.929 120.941 176.01 120.662 176.171C120.384 176.325 120.156 176.556 119.98 176.864C119.812 177.165 119.727 177.524 119.727 177.942C119.727 178.36 119.812 178.727 119.98 179.042C120.156 179.357 120.384 179.599 120.662 179.768C120.948 179.929 121.249 180.01 121.564 180.01C121.887 180.01 122.188 179.929 122.466 179.768C122.745 179.607 122.969 179.372 123.137 179.064C123.313 178.749 123.401 178.382 123.401 177.964ZM126.258 174.125V172.981H128.546V181H127.281V174.125H126.258ZM131.897 176.809C131.134 176.428 130.753 175.826 130.753 175.005C130.753 174.609 130.852 174.246 131.05 173.916C131.248 173.586 131.545 173.326 131.941 173.135C132.337 172.937 132.821 172.838 133.393 172.838C133.958 172.838 134.438 172.937 134.834 173.135C135.237 173.326 135.538 173.586 135.736 173.916C135.934 174.246 136.033 174.609 136.033 175.005C136.033 175.416 135.927 175.779 135.714 176.094C135.509 176.402 135.234 176.64 134.889 176.809C135.307 176.963 135.637 177.216 135.879 177.568C136.121 177.913 136.242 178.32 136.242 178.789C136.242 179.266 136.121 179.687 135.879 180.054C135.637 180.421 135.3 180.703 134.867 180.901C134.434 181.099 133.943 181.198 133.393 181.198C132.843 181.198 132.352 181.099 131.919 180.901C131.494 180.703 131.16 180.421 130.918 180.054C130.676 179.687 130.555 179.266 130.555 178.789C130.555 178.312 130.676 177.902 130.918 177.557C131.16 177.212 131.486 176.963 131.897 176.809ZM134.834 175.159C134.834 174.748 134.706 174.433 134.449 174.213C134.192 173.993 133.84 173.883 133.393 173.883C132.953 173.883 132.605 173.993 132.348 174.213C132.091 174.433 131.963 174.752 131.963 175.17C131.963 175.537 132.095 175.837 132.359 176.072C132.63 176.299 132.975 176.413 133.393 176.413C133.811 176.413 134.156 176.296 134.427 176.061C134.698 175.826 134.834 175.526 134.834 175.159ZM133.393 177.359C132.909 177.359 132.513 177.48 132.205 177.722C131.904 177.957 131.754 178.298 131.754 178.745C131.754 179.163 131.901 179.504 132.194 179.768C132.487 180.025 132.887 180.153 133.393 180.153C133.892 180.153 134.284 180.021 134.57 179.757C134.863 179.493 135.01 179.156 135.01 178.745C135.01 178.305 134.86 177.964 134.559 177.722C134.266 177.48 133.877 177.359 133.393 177.359ZM137.581 177.942C137.581 177.333 137.705 176.794 137.955 176.325C138.211 175.856 138.556 175.493 138.989 175.236C139.429 174.972 139.916 174.84 140.452 174.84C140.848 174.84 141.236 174.928 141.618 175.104C142.006 175.273 142.314 175.5 142.542 175.786V172.86H143.807V181H142.542V180.087C142.336 180.38 142.05 180.622 141.684 180.813C141.324 181.004 140.91 181.099 140.441 181.099C139.913 181.099 139.429 180.967 138.989 180.703C138.556 180.432 138.211 180.058 137.955 179.581C137.705 179.097 137.581 178.551 137.581 177.942ZM142.542 177.964C142.542 177.546 142.454 177.183 142.278 176.875C142.109 176.567 141.885 176.332 141.607 176.171C141.328 176.01 141.027 175.929 140.705 175.929C140.382 175.929 140.081 176.01 139.803 176.171C139.524 176.325 139.297 176.556 139.121 176.864C138.952 177.165 138.868 177.524 138.868 177.942C138.868 178.36 138.952 178.727 139.121 179.042C139.297 179.357 139.524 179.599 139.803 179.768C140.089 179.929 140.389 180.01 140.705 180.01C141.027 180.01 141.328 179.929 141.607 179.768C141.885 179.607 142.109 179.372 142.278 179.064C142.454 178.749 142.542 178.382 142.542 177.964ZM145.311 177.964C145.311 177.341 145.435 176.794 145.685 176.325C145.941 175.848 146.293 175.482 146.741 175.225C147.188 174.968 147.701 174.84 148.281 174.84C149.014 174.84 149.619 175.016 150.096 175.368C150.58 175.713 150.906 176.208 151.075 176.853H149.722C149.612 176.552 149.436 176.318 149.194 176.149C148.952 175.98 148.647 175.896 148.281 175.896C147.767 175.896 147.357 176.079 147.049 176.446C146.748 176.805 146.598 177.311 146.598 177.964C146.598 178.617 146.748 179.126 147.049 179.493C147.357 179.86 147.767 180.043 148.281 180.043C149.007 180.043 149.487 179.724 149.722 179.086H151.075C150.899 179.702 150.569 180.193 150.085 180.56C149.601 180.919 148.999 181.099 148.281 181.099C147.701 181.099 147.188 180.971 146.741 180.714C146.293 180.45 145.941 180.083 145.685 179.614C145.435 179.137 145.311 178.587 145.311 177.964ZM153.127 179.295C153.831 178.686 154.385 178.188 154.788 177.799C155.199 177.403 155.54 176.992 155.811 176.567C156.083 176.142 156.218 175.716 156.218 175.291C156.218 174.851 156.112 174.506 155.899 174.257C155.694 174.008 155.368 173.883 154.92 173.883C154.488 173.883 154.15 174.022 153.908 174.301C153.674 174.572 153.549 174.939 153.534 175.401H152.324C152.346 174.565 152.596 173.927 153.072 173.487C153.556 173.04 154.169 172.816 154.909 172.816C155.709 172.816 156.332 173.036 156.779 173.476C157.234 173.916 157.461 174.503 157.461 175.236C157.461 175.764 157.326 176.274 157.054 176.765C156.79 177.249 156.471 177.685 156.097 178.074C155.731 178.455 155.261 178.899 154.689 179.405L154.194 179.845H157.681V180.89H152.335V179.977L153.127 179.295ZM164.778 177.821C164.778 178.048 164.763 178.254 164.734 178.437H160.103C160.14 178.921 160.319 179.31 160.642 179.603C160.965 179.896 161.361 180.043 161.83 180.043C162.505 180.043 162.981 179.761 163.26 179.196H164.613C164.43 179.753 164.096 180.212 163.612 180.571C163.135 180.923 162.541 181.099 161.83 181.099C161.251 181.099 160.73 180.971 160.268 180.714C159.813 180.45 159.454 180.083 159.19 179.614C158.933 179.137 158.805 178.587 158.805 177.964C158.805 177.341 158.93 176.794 159.179 176.325C159.436 175.848 159.791 175.482 160.246 175.225C160.708 174.968 161.236 174.84 161.83 174.84C162.402 174.84 162.912 174.965 163.359 175.214C163.806 175.463 164.155 175.815 164.404 176.27C164.653 176.717 164.778 177.234 164.778 177.821ZM163.469 177.425C163.462 176.963 163.297 176.593 162.974 176.314C162.651 176.035 162.252 175.896 161.775 175.896C161.342 175.896 160.972 176.035 160.664 176.314C160.356 176.585 160.173 176.956 160.114 177.425H163.469ZM171.842 177.821C171.842 178.048 171.827 178.254 171.798 178.437H167.167C167.204 178.921 167.383 179.31 167.706 179.603C168.029 179.896 168.425 180.043 168.894 180.043C169.569 180.043 170.045 179.761 170.324 179.196H171.677C171.494 179.753 171.16 180.212 170.676 180.571C170.199 180.923 169.605 181.099 168.894 181.099C168.315 181.099 167.794 180.971 167.332 180.714C166.877 180.45 166.518 180.083 166.254 179.614C165.997 179.137 165.869 178.587 165.869 177.964C165.869 177.341 165.994 176.794 166.243 176.325C166.5 175.848 166.855 175.482 167.31 175.225C167.772 174.968 168.3 174.84 168.894 174.84C169.466 174.84 169.976 174.965 170.423 175.214C170.87 175.463 171.219 175.815 171.468 176.27C171.717 176.717 171.842 177.234 171.842 177.821ZM170.533 177.425C170.526 176.963 170.361 176.593 170.038 176.314C169.715 176.035 169.316 175.896 168.839 175.896C168.406 175.896 168.036 176.035 167.728 176.314C167.42 176.585 167.237 176.956 167.178 177.425H170.533ZM173.032 179.328V178.382L176.728 173.08H178.246V178.239H179.269V179.328H178.246V181H177.014V179.328H173.032ZM177.069 174.356L174.473 178.239H177.069V174.356ZM181.936 176.809C181.174 176.428 180.792 175.826 180.792 175.005C180.792 174.609 180.891 174.246 181.089 173.916C181.287 173.586 181.584 173.326 181.98 173.135C182.376 172.937 182.86 172.838 183.432 172.838C183.997 172.838 184.477 172.937 184.873 173.135C185.277 173.326 185.577 173.586 185.775 173.916C185.973 174.246 186.072 174.609 186.072 175.005C186.072 175.416 185.966 175.779 185.753 176.094C185.548 176.402 185.273 176.64 184.928 176.809C185.346 176.963 185.676 177.216 185.918 177.568C186.16 177.913 186.281 178.32 186.281 178.789C186.281 179.266 186.16 179.687 185.918 180.054C185.676 180.421 185.339 180.703 184.906 180.901C184.474 181.099 183.982 181.198 183.432 181.198C182.882 181.198 182.391 181.099 181.958 180.901C181.533 180.703 181.199 180.421 180.957 180.054C180.715 179.687 180.594 179.266 180.594 178.789C180.594 178.312 180.715 177.902 180.957 177.557C181.199 177.212 181.526 176.963 181.936 176.809ZM184.873 175.159C184.873 174.748 184.745 174.433 184.488 174.213C184.232 173.993 183.88 173.883 183.432 173.883C182.992 173.883 182.644 173.993 182.387 174.213C182.131 174.433 182.002 174.752 182.002 175.17C182.002 175.537 182.134 175.837 182.398 176.072C182.67 176.299 183.014 176.413 183.432 176.413C183.85 176.413 184.195 176.296 184.466 176.061C184.738 175.826 184.873 175.526 184.873 175.159ZM183.432 177.359C182.948 177.359 182.552 177.48 182.244 177.722C181.944 177.957 181.793 178.298 181.793 178.745C181.793 179.163 181.94 179.504 182.233 179.768C182.527 180.025 182.926 180.153 183.432 180.153C183.931 180.153 184.323 180.021 184.609 179.757C184.903 179.493 185.049 179.156 185.049 178.745C185.049 178.305 184.899 177.964 184.598 177.722C184.305 177.48 183.916 177.359 183.432 177.359ZM189.435 178.822C189.508 179.189 189.666 179.467 189.908 179.658C190.15 179.849 190.476 179.944 190.887 179.944C191.408 179.944 191.789 179.739 192.031 179.328C192.273 178.917 192.394 178.217 192.394 177.227C192.218 177.476 191.969 177.671 191.646 177.81C191.331 177.942 190.986 178.008 190.612 178.008C190.135 178.008 189.703 177.913 189.314 177.722C188.925 177.524 188.617 177.234 188.39 176.853C188.17 176.464 188.06 175.995 188.06 175.445C188.06 174.638 188.295 173.997 188.764 173.52C189.241 173.036 189.893 172.794 190.722 172.794C191.719 172.794 192.427 173.128 192.845 173.795C193.27 174.455 193.483 175.471 193.483 176.842C193.483 177.788 193.402 178.562 193.241 179.163C193.087 179.764 192.816 180.219 192.427 180.527C192.038 180.835 191.499 180.989 190.81 180.989C190.025 180.989 189.42 180.784 188.995 180.373C188.57 179.962 188.331 179.445 188.28 178.822H189.435ZM190.832 176.952C191.272 176.952 191.617 176.816 191.866 176.545C192.123 176.266 192.251 175.9 192.251 175.445C192.251 174.939 192.115 174.547 191.844 174.268C191.58 173.982 191.217 173.839 190.755 173.839C190.293 173.839 189.926 173.986 189.655 174.279C189.391 174.565 189.259 174.943 189.259 175.412C189.259 175.859 189.387 176.23 189.644 176.523C189.908 176.809 190.304 176.952 190.832 176.952ZM200.3 174.059H196.615V176.248C196.769 176.043 196.997 175.87 197.297 175.731C197.605 175.592 197.932 175.522 198.276 175.522C198.892 175.522 199.391 175.654 199.772 175.918C200.161 176.182 200.436 176.516 200.597 176.919C200.766 177.322 200.85 177.748 200.85 178.195C200.85 178.738 200.744 179.222 200.531 179.647C200.326 180.065 200.014 180.395 199.596 180.637C199.186 180.879 198.68 181 198.078 181C197.279 181 196.637 180.802 196.153 180.406C195.669 180.01 195.38 179.486 195.284 178.833H196.505C196.586 179.178 196.766 179.453 197.044 179.658C197.323 179.856 197.671 179.955 198.089 179.955C198.61 179.955 198.999 179.797 199.255 179.482C199.519 179.167 199.651 178.749 199.651 178.228C199.651 177.7 199.519 177.297 199.255 177.018C198.991 176.732 198.603 176.589 198.089 176.589C197.73 176.589 197.426 176.681 197.176 176.864C196.934 177.04 196.758 177.282 196.648 177.59H195.46V172.959H200.3V174.059ZM202.178 177.964C202.178 177.341 202.302 176.794 202.552 176.325C202.808 175.848 203.16 175.482 203.608 175.225C204.055 174.968 204.568 174.84 205.148 174.84C205.881 174.84 206.486 175.016 206.963 175.368C207.447 175.713 207.773 176.208 207.942 176.853H206.589C206.479 176.552 206.303 176.318 206.061 176.149C205.819 175.98 205.514 175.896 205.148 175.896C204.634 175.896 204.224 176.079 203.916 176.446C203.615 176.805 203.465 177.311 203.465 177.964C203.465 178.617 203.615 179.126 203.916 179.493C204.224 179.86 204.634 180.043 205.148 180.043C205.874 180.043 206.354 179.724 206.589 179.086H207.942C207.766 179.702 207.436 180.193 206.952 180.56C206.468 180.919 205.866 181.099 205.148 181.099C204.568 181.099 204.055 180.971 203.608 180.714C203.16 180.45 202.808 180.083 202.552 179.614C202.302 179.137 202.178 178.587 202.178 177.964ZM213.613 174.84C213.533 174.503 213.386 174.25 213.173 174.081C212.961 173.912 212.664 173.828 212.282 173.828C211.703 173.828 211.27 174.052 210.984 174.499C210.698 174.939 210.548 175.672 210.533 176.699C210.724 176.376 211.003 176.127 211.369 175.951C211.736 175.775 212.132 175.687 212.557 175.687C213.041 175.687 213.467 175.793 213.833 176.006C214.207 176.211 214.497 176.512 214.702 176.908C214.915 177.304 215.021 177.777 215.021 178.327C215.021 178.84 214.919 179.299 214.713 179.702C214.515 180.105 214.218 180.424 213.822 180.659C213.426 180.886 212.95 181 212.392 181C211.637 181 211.043 180.835 210.61 180.505C210.185 180.168 209.884 179.695 209.708 179.086C209.54 178.477 209.455 177.718 209.455 176.809C209.455 174.125 210.401 172.783 212.293 172.783C213.027 172.783 213.602 172.981 214.02 173.377C214.446 173.773 214.695 174.261 214.768 174.84H213.613ZM212.282 176.743C211.835 176.743 211.454 176.879 211.138 177.15C210.83 177.414 210.676 177.799 210.676 178.305C210.676 178.811 210.819 179.214 211.105 179.515C211.399 179.808 211.806 179.955 212.326 179.955C212.788 179.955 213.151 179.812 213.415 179.526C213.687 179.24 213.822 178.859 213.822 178.382C213.822 177.883 213.69 177.487 213.426 177.194C213.17 176.893 212.788 176.743 212.282 176.743ZM219.34 175.962H218.218V181H216.953V175.962H216.238V174.939H216.953V174.51C216.953 173.813 217.136 173.307 217.503 172.992C217.877 172.669 218.46 172.508 219.252 172.508V173.553C218.871 173.553 218.603 173.626 218.449 173.773C218.295 173.912 218.218 174.158 218.218 174.51V174.939H219.34V175.962ZM225.643 173.949L222.585 181H221.32L224.411 174.081H220.341V173.014H225.643V173.949ZM228.411 175.841C228.623 175.548 228.913 175.309 229.28 175.126C229.654 174.935 230.068 174.84 230.523 174.84C231.058 174.84 231.542 174.968 231.975 175.225C232.407 175.482 232.748 175.848 232.998 176.325C233.247 176.794 233.372 177.333 233.372 177.942C233.372 178.551 233.247 179.097 232.998 179.581C232.748 180.058 232.404 180.432 231.964 180.703C231.531 180.967 231.051 181.099 230.523 181.099C230.053 181.099 229.635 181.007 229.269 180.824C228.909 180.641 228.623 180.406 228.411 180.12V181H227.157V172.86H228.411V175.841ZM232.096 177.942C232.096 177.524 232.008 177.165 231.832 176.864C231.663 176.556 231.436 176.325 231.15 176.171C230.871 176.01 230.57 175.929 230.248 175.929C229.932 175.929 229.632 176.01 229.346 176.171C229.067 176.332 228.84 176.567 228.664 176.875C228.495 177.183 228.411 177.546 228.411 177.964C228.411 178.382 228.495 178.749 228.664 179.064C228.84 179.372 229.067 179.607 229.346 179.768C229.632 179.929 229.932 180.01 230.248 180.01C230.57 180.01 230.871 179.929 231.15 179.768C231.436 179.599 231.663 179.357 231.832 179.042C232.008 178.727 232.096 178.36 232.096 177.942Z" fill="#40444F"/>
<line x1="4" y1="132.5" x2="270" y2="132.5" stroke="#E6E6E6"/>
<line x1="89" y1="132.25" x2="189" y2="132.25" stroke="#00D1FF" stroke-width="1.5"/>
<path d="M5 11C5 7.68629 7.68629 5 11 5H257C260.314 5 263 7.68629 263 11V53H5V11Z" fill="#EFF1F3"/>
<rect x="89" y="17" width="120" height="25" rx="12.5" stroke="#E6E6E6"/>
<circle cx="99" cy="30" r="4" fill="#CDCDCD"/>
<path d="M123.896 33L123.888 29.288L122.048 32.36H121.584L119.744 29.336V33H118.752V27.4H119.608L121.832 31.112L124.016 27.4H124.872L124.88 33H123.896ZM128.129 28.68C128.758 28.68 129.238 28.832 129.569 29.136C129.905 29.4347 130.073 29.888 130.073 30.496V33H129.129V32.48C129.006 32.6667 128.83 32.8107 128.601 32.912C128.377 33.008 128.105 33.056 127.785 33.056C127.465 33.056 127.185 33.0027 126.945 32.896C126.705 32.784 126.518 32.632 126.385 32.44C126.257 32.2427 126.193 32.0213 126.193 31.776C126.193 31.392 126.334 31.0853 126.617 30.856C126.905 30.6213 127.355 30.504 127.969 30.504H129.073V30.44C129.073 30.1413 128.982 29.912 128.801 29.752C128.625 29.592 128.361 29.512 128.009 29.512C127.769 29.512 127.531 29.5493 127.297 29.624C127.067 29.6987 126.873 29.8027 126.713 29.936L126.321 29.208C126.545 29.0373 126.814 28.9067 127.129 28.816C127.443 28.7253 127.777 28.68 128.129 28.68ZM127.993 32.328C128.243 32.328 128.465 32.272 128.657 32.16C128.854 32.0427 128.993 31.8773 129.073 31.664V31.168H128.041C127.465 31.168 127.177 31.3573 127.177 31.736C127.177 31.9173 127.249 32.0613 127.393 32.168C127.537 32.2747 127.737 32.328 127.993 32.328ZM134.124 32.768C134.007 32.864 133.863 32.936 133.692 32.984C133.527 33.032 133.351 33.056 133.164 33.056C132.695 33.056 132.332 32.9333 132.076 32.688C131.82 32.4427 131.692 32.0853 131.692 31.616V29.56H130.988V28.76H131.692V27.784H132.692V28.76H133.836V29.56H132.692V31.592C132.692 31.8 132.743 31.96 132.844 32.072C132.945 32.1787 133.092 32.232 133.284 32.232C133.508 32.232 133.695 32.1733 133.844 32.056L134.124 32.768ZM135.147 28.728H136.147V33H135.147V28.728ZM135.651 28.024C135.469 28.024 135.317 27.968 135.195 27.856C135.072 27.7387 135.011 27.5947 135.011 27.424C135.011 27.2533 135.072 27.112 135.195 27C135.317 26.8827 135.469 26.824 135.651 26.824C135.832 26.824 135.984 26.88 136.107 26.992C136.229 27.0987 136.291 27.2347 136.291 27.4C136.291 27.576 136.229 27.7253 136.107 27.848C135.989 27.9653 135.837 28.024 135.651 28.024ZM139.619 33.056C139.176 33.056 138.779 32.9627 138.427 32.776C138.075 32.5893 137.8 32.3307 137.603 32C137.406 31.664 137.307 31.2853 137.307 30.864C137.307 30.4427 137.406 30.0667 137.603 29.736C137.8 29.4053 138.072 29.1467 138.419 28.96C138.771 28.7733 139.171 28.68 139.619 28.68C140.04 28.68 140.408 28.7653 140.723 28.936C141.043 29.1067 141.283 29.352 141.443 29.672L140.675 30.12C140.552 29.9227 140.398 29.776 140.211 29.68C140.03 29.5787 139.83 29.528 139.611 29.528C139.238 29.528 138.928 29.6507 138.683 29.896C138.438 30.136 138.315 30.4587 138.315 30.864C138.315 31.2693 138.435 31.5947 138.675 31.84C138.92 32.08 139.232 32.2 139.611 32.2C139.83 32.2 140.03 32.152 140.211 32.056C140.398 31.9547 140.552 31.8053 140.675 31.608L141.443 32.056C141.278 32.376 141.035 32.624 140.715 32.8C140.4 32.9707 140.035 33.056 139.619 33.056ZM150.159 33L150.151 29.288L148.311 32.36H147.847L146.007 29.336V33H145.015V27.4H145.871L148.095 31.112L150.279 27.4H151.135L151.143 33H150.159ZM154.391 28.68C155.02 28.68 155.5 28.832 155.831 29.136C156.167 29.4347 156.335 29.888 156.335 30.496V33H155.391V32.48C155.268 32.6667 155.092 32.8107 154.863 32.912C154.639 33.008 154.367 33.056 154.047 33.056C153.727 33.056 153.447 33.0027 153.207 32.896C152.967 32.784 152.78 32.632 152.647 32.44C152.519 32.2427 152.455 32.0213 152.455 31.776C152.455 31.392 152.596 31.0853 152.879 30.856C153.167 30.6213 153.618 30.504 154.231 30.504H155.335V30.44C155.335 30.1413 155.244 29.912 155.063 29.752C154.887 29.592 154.623 29.512 154.271 29.512C154.031 29.512 153.794 29.5493 153.559 29.624C153.33 29.6987 153.135 29.8027 152.975 29.936L152.583 29.208C152.807 29.0373 153.076 28.9067 153.391 28.816C153.706 28.7253 154.039 28.68 154.391 28.68ZM154.255 32.328C154.506 32.328 154.727 32.272 154.919 32.16C155.116 32.0427 155.255 31.8773 155.335 31.664V31.168H154.303C153.727 31.168 153.439 31.3573 153.439 31.736C153.439 31.9173 153.511 32.0613 153.655 32.168C153.799 32.2747 153.999 32.328 154.255 32.328ZM157.818 28.728H158.818V33H157.818V28.728ZM158.322 28.024C158.141 28.024 157.989 27.968 157.866 27.856C157.744 27.7387 157.682 27.5947 157.682 27.424C157.682 27.2533 157.744 27.112 157.866 27C157.989 26.8827 158.141 26.824 158.322 26.824C158.504 26.824 158.656 26.88 158.778 26.992C158.901 27.0987 158.962 27.2347 158.962 27.4C158.962 27.576 158.901 27.7253 158.778 27.848C158.661 27.9653 158.509 28.024 158.322 28.024ZM162.755 28.68C163.294 28.68 163.726 28.8373 164.051 29.152C164.376 29.4667 164.539 29.9333 164.539 30.552V33H163.539V30.68C163.539 30.3067 163.451 30.0267 163.275 29.84C163.099 29.648 162.848 29.552 162.523 29.552C162.155 29.552 161.864 29.664 161.651 29.888C161.438 30.1067 161.331 30.424 161.331 30.84V33H160.331V28.728H161.283V29.28C161.448 29.0827 161.656 28.9333 161.907 28.832C162.158 28.7307 162.44 28.68 162.755 28.68ZM168.432 28.68C168.97 28.68 169.402 28.8373 169.728 29.152C170.053 29.4667 170.216 29.9333 170.216 30.552V33H169.216V30.68C169.216 30.3067 169.128 30.0267 168.952 29.84C168.776 29.648 168.525 29.552 168.2 29.552C167.832 29.552 167.541 29.664 167.328 29.888C167.114 30.1067 167.008 30.424 167.008 30.84V33H166.008V28.728H166.96V29.28C167.125 29.0827 167.333 28.9333 167.584 28.832C167.834 28.7307 168.117 28.68 168.432 28.68ZM175.739 30.888C175.739 30.9573 175.734 31.056 175.723 31.184H172.371C172.43 31.4987 172.582 31.7493 172.827 31.936C173.078 32.1173 173.387 32.208 173.755 32.208C174.225 32.208 174.611 32.0533 174.915 31.744L175.451 32.36C175.259 32.5893 175.017 32.7627 174.723 32.88C174.43 32.9973 174.099 33.056 173.731 33.056C173.262 33.056 172.849 32.9627 172.491 32.776C172.134 32.5893 171.857 32.3307 171.659 32C171.467 31.664 171.371 31.2853 171.371 30.864C171.371 30.448 171.465 30.0747 171.651 29.744C171.843 29.408 172.107 29.1467 172.443 28.96C172.779 28.7733 173.158 28.68 173.579 28.68C173.995 28.68 174.366 28.7733 174.691 28.96C175.022 29.1413 175.278 29.4 175.459 29.736C175.646 30.0667 175.739 30.4507 175.739 30.888ZM173.579 29.48C173.259 29.48 172.987 29.576 172.763 29.768C172.545 29.9547 172.411 30.2053 172.363 30.52H174.787C174.745 30.2107 174.614 29.96 174.395 29.768C174.177 29.576 173.905 29.48 173.579 29.48ZM179.468 32.768C179.35 32.864 179.206 32.936 179.036 32.984C178.87 33.032 178.694 33.056 178.508 33.056C178.038 33.056 177.676 32.9333 177.42 32.688C177.164 32.4427 177.036 32.0853 177.036 31.616V29.56H176.332V28.76H177.036V27.784H178.036V28.76H179.18V29.56H178.036V31.592C178.036 31.8 178.086 31.96 178.188 32.072C178.289 32.1787 178.436 32.232 178.628 32.232C178.852 32.232 179.038 32.1733 179.188 32.056L179.468 32.768Z" fill="#9A9A9A"/>
<path fill-rule="evenodd" clip-rule="evenodd" d="M197.078 32.1722L200.266 28.1877C200.438 27.972 200.753 27.9371 200.969 28.1096C201.184 28.2821 201.219 28.5967 201.047 28.8124L197.671 33.0315C197.526 33.2128 197.281 33.2664 197.078 33.1763C196.875 33.2664 196.63 33.2128 196.485 33.0315L193.11 28.8124C192.937 28.5967 192.972 28.2821 193.188 28.1096C193.403 27.9371 193.718 27.972 193.89 28.1877L197.078 32.1722Z" fill="#9A9A9A"/>
<circle cx="242" cy="29" r="13" fill="#7D7E80"/>
<circle cx="242" cy="29" r="14.5" stroke="#00D1FF"/>
<path d="M43.8154 18L34.4463 24.9586L36.1789 20.8531L43.8154 18Z" fill="#E2761B" stroke="#E2761B" stroke-linecap="round" stroke-linejoin="round"/>
<path d="M22.1865 18L31.4803 25.0245L29.8325 20.8531L22.1865 18Z" fill="#E4761B" stroke="#E4761B" stroke-linecap="round" stroke-linejoin="round"/>
<path d="M40.4445 34.1299L37.9492 37.9529L43.2882 39.4218L44.8231 34.2146L40.4445 34.1299Z" fill="#E4761B" stroke="#E4761B" stroke-linecap="round" stroke-linejoin="round"/>
<path d="M21.1978 34.2146L22.7232 39.4218L28.0622 37.9529L25.5669 34.1299L21.1978 34.2146Z" fill="#E4761B" stroke="#E4761B" stroke-linecap="round" stroke-linejoin="round"/>
<path d="M27.7612 27.6704L26.2734 29.9209L31.5748 30.1563L31.3864 24.4595L27.7612 27.6704Z" fill="#E4761B" stroke="#E4761B" stroke-linecap="round" stroke-linejoin="round"/>
<path d="M38.241 27.6704L34.5687 24.3936L34.4463 30.1563L39.7382 29.9209L38.241 27.6704Z" fill="#E4761B" stroke="#E4761B" stroke-linecap="round" stroke-linejoin="round"/>
<path d="M28.0625 37.9529L31.2452 36.3992L28.4956 34.2523L28.0625 37.9529Z" fill="#E4761B" stroke="#E4761B" stroke-linecap="round" stroke-linejoin="round"/>
<path d="M34.7573 36.3992L37.9494 37.9529L37.5068 34.2523L34.7573 36.3992Z" fill="#E4761B" stroke="#E4761B" stroke-linecap="round" stroke-linejoin="round"/>
<path d="M37.9494 37.9528L34.7573 36.3992L35.0116 38.4801L34.9833 39.3559L37.9494 37.9528Z" fill="#D7C1B3" stroke="#D7C1B3" stroke-linecap="round" stroke-linejoin="round"/>
<path d="M28.0625 37.9528L31.0286 39.3559L31.0098 38.4801L31.2452 36.3992L28.0625 37.9528Z" fill="#D7C1B3" stroke="#D7C1B3" stroke-linecap="round" stroke-linejoin="round"/>
<path d="M31.0753 32.8776L28.4199 32.096L30.2937 31.2391L31.0753 32.8776Z" fill="#233447" stroke="#233447" stroke-linecap="round" stroke-linejoin="round"/>
<path d="M34.9268 32.8776L35.7083 31.2391L37.5915 32.096L34.9268 32.8776Z" fill="#233447" stroke="#233447" stroke-linecap="round" stroke-linejoin="round"/>
<path d="M28.0622 37.9529L28.5142 34.1299L25.5669 34.2146L28.0622 37.9529Z" fill="#CD6116" stroke="#CD6116" stroke-linecap="round" stroke-linejoin="round"/>
<path d="M37.4976 34.1299L37.9495 37.9529L40.4448 34.2146L37.4976 34.1299Z" fill="#CD6116" stroke="#CD6116" stroke-linecap="round" stroke-linejoin="round"/>
<path d="M39.7382 29.9209L34.4463 30.1563L34.9359 32.8776L35.7175 31.2392L37.6007 32.096L39.7382 29.9209Z" fill="#CD6116" stroke="#CD6116" stroke-linecap="round" stroke-linejoin="round"/>
<path d="M28.4203 32.096L30.3036 31.2392L31.0757 32.8776L31.5748 30.1563L26.2734 29.9209L28.4203 32.096Z" fill="#CD6116" stroke="#CD6116" stroke-linecap="round" stroke-linejoin="round"/>
<path d="M26.2734 29.9209L28.4957 34.2523L28.4203 32.096L26.2734 29.9209Z" fill="#E4751F" stroke="#E4751F" stroke-linecap="round" stroke-linejoin="round"/>
<path d="M37.601 32.096L37.5068 34.2523L39.7385 29.9209L37.601 32.096Z" fill="#E4751F" stroke="#E4751F" stroke-linecap="round" stroke-linejoin="round"/>
<path d="M31.5747 30.1562L31.0757 32.8775L31.6972 36.0885L31.8384 31.8606L31.5747 30.1562Z" fill="#E4751F" stroke="#E4751F" stroke-linecap="round" stroke-linejoin="round"/>
<path d="M34.4466 30.1562L34.1924 31.8512L34.3054 36.0885L34.9363 32.8775L34.4466 30.1562Z" fill="#E4751F" stroke="#E4751F" stroke-linecap="round" stroke-linejoin="round"/>
<path d="M34.9361 32.8776L34.3052 36.0885L34.7572 36.3993L37.5067 34.2524L37.6009 32.0961L34.9361 32.8776Z" fill="#F6851B" stroke="#F6851B" stroke-linecap="round" stroke-linejoin="round"/>
<path d="M28.4199 32.0961L28.4953 34.2524L31.2448 36.3993L31.6968 36.0885L31.0753 32.8776L28.4199 32.0961Z" fill="#F6851B" stroke="#F6851B" stroke-linecap="round" stroke-linejoin="round"/>
<path d="M34.9834 39.3559L35.0117 38.4802L34.7762 38.273H31.2263L31.0098 38.4802L31.0286 39.3559L28.0625 37.9529L29.0983 38.8003L31.1981 40.2598H34.8045L36.9137 38.8003L37.9495 37.9529L34.9834 39.3559Z" fill="#C0AD9E" stroke="#C0AD9E" stroke-linecap="round" stroke-linejoin="round"/>
<path d="M34.7574 36.3992L34.3054 36.0885H31.6971L31.2452 36.3992L31.0098 38.4802L31.2263 38.2731H34.7762L35.0116 38.4802L34.7574 36.3992Z" fill="#161616" stroke="#161616" stroke-linecap="round" stroke-linejoin="round"/>
<path d="M44.2112 25.4105L45.0116 21.5687L43.8157 18L34.7573 24.7232L38.2413 27.6704L43.166 29.1111L44.2583 27.8399L43.7874 27.5009L44.5407 26.8136L43.9569 26.3616L44.7102 25.7872L44.2112 25.4105Z" fill="#763D16" stroke="#763D16" stroke-linecap="round" stroke-linejoin="round"/>
<path d="M21 21.5687L21.8004 25.4105L21.2919 25.7872L22.0452 26.3616L21.4708 26.8136L22.2241 27.5009L21.7533 27.8399L22.8362 29.1111L27.7608 27.6704L31.2448 24.7232L22.1864 18L21 21.5687Z" fill="#763D16" stroke="#763D16" stroke-linecap="round" stroke-linejoin="round"/>
<path d="M43.166 29.1111L38.2413 27.6704L39.7385 29.9209L37.5068 34.2523L40.4447 34.2147H44.8232L43.166 29.1111Z" fill="#F6851B" stroke="#F6851B" stroke-linecap="round" stroke-linejoin="round"/>
<path d="M27.7608 27.6704L22.8362 29.1111L21.1978 34.2147H25.5669L28.4953 34.2523L26.2731 29.9209L27.7608 27.6704Z" fill="#F6851B" stroke="#F6851B" stroke-linecap="round" stroke-linejoin="round"/>
<path d="M34.4465 30.1562L34.7572 24.7231L36.1885 20.853H29.8325L31.2449 24.7231L31.5745 30.1562L31.6875 31.87L31.6969 36.0884H34.3052L34.324 31.87L34.4465 30.1562Z" fill="#F6851B" stroke="#F6851B" stroke-linecap="round" stroke-linejoin="round"/>
<path d="M14.888 148.28H13.032V147.4H17.784V148.28H15.928V153H14.888V148.28ZM20.151 153.056C19.719 153.056 19.3297 152.963 18.983 152.776C18.6363 152.589 18.3643 152.331 18.167 152C17.975 151.664 17.879 151.285 17.879 150.864C17.879 150.443 17.975 150.067 18.167 149.736C18.3643 149.405 18.6363 149.147 18.983 148.96C19.3297 148.773 19.719 148.68 20.151 148.68C20.5883 148.68 20.9803 148.773 21.327 148.96C21.6737 149.147 21.943 149.405 22.135 149.736C22.3323 150.067 22.431 150.443 22.431 150.864C22.431 151.285 22.3323 151.664 22.135 152C21.943 152.331 21.6737 152.589 21.327 152.776C20.9803 152.963 20.5883 153.056 20.151 153.056ZM20.151 152.2C20.519 152.2 20.823 152.077 21.063 151.832C21.303 151.587 21.423 151.264 21.423 150.864C21.423 150.464 21.303 150.141 21.063 149.896C20.823 149.651 20.519 149.528 20.151 149.528C19.783 149.528 19.479 149.651 19.239 149.896C19.0043 150.141 18.887 150.464 18.887 150.864C18.887 151.264 19.0043 151.587 19.239 151.832C19.479 152.077 19.783 152.2 20.151 152.2ZM25.3312 151.168L24.5872 151.872V153H23.5872V147.064H24.5872V150.648L26.6592 148.728H27.8593L26.0752 150.52L28.0272 153H26.8112L25.3312 151.168ZM32.7095 150.888C32.7095 150.957 32.7042 151.056 32.6935 151.184H29.3415C29.4002 151.499 29.5522 151.749 29.7975 151.936C30.0482 152.117 30.3575 152.208 30.7255 152.208C31.1948 152.208 31.5815 152.053 31.8855 151.744L32.4215 152.36C32.2295 152.589 31.9868 152.763 31.6935 152.88C31.4002 152.997 31.0695 153.056 30.7015 153.056C30.2322 153.056 29.8188 152.963 29.4615 152.776C29.1042 152.589 28.8268 152.331 28.6295 152C28.4375 151.664 28.3415 151.285 28.3415 150.864C28.3415 150.448 28.4348 150.075 28.6215 149.744C28.8135 149.408 29.0775 149.147 29.4135 148.96C29.7495 148.773 30.1282 148.68 30.5495 148.68C30.9655 148.68 31.3362 148.773 31.6615 148.96C31.9922 149.141 32.2482 149.4 32.4295 149.736C32.6162 150.067 32.7095 150.451 32.7095 150.888ZM30.5495 149.48C30.2295 149.48 29.9575 149.576 29.7335 149.768C29.5148 149.955 29.3815 150.205 29.3335 150.52H31.7575C31.7148 150.211 31.5842 149.96 31.3655 149.768C31.1468 149.576 30.8748 149.48 30.5495 149.48ZM36.2941 148.68C36.8327 148.68 37.2647 148.837 37.5901 149.152C37.9154 149.467 38.0781 149.933 38.0781 150.552V153H37.0781V150.68C37.0781 150.307 36.9901 150.027 36.8141 149.84C36.6381 149.648 36.3874 149.552 36.0621 149.552C35.6941 149.552 35.4034 149.664 35.1901 149.888C34.9767 150.107 34.8701 150.424 34.8701 150.84V153H33.8701V148.728H34.8221V149.28C34.9874 149.083 35.1954 148.933 35.4461 148.832C35.6967 148.731 35.9794 148.68 36.2941 148.68ZM44.6456 153.08C44.0802 153.08 43.5682 152.957 43.1096 152.712C42.6562 152.461 42.2989 152.117 42.0376 151.68C41.7816 151.243 41.6536 150.749 41.6536 150.2C41.6536 149.651 41.7842 149.157 42.0456 148.72C42.3069 148.283 42.6642 147.941 43.1176 147.696C43.5762 147.445 44.0882 147.32 44.6536 147.32C45.1122 147.32 45.5309 147.4 45.9096 147.56C46.2882 147.72 46.6082 147.952 46.8696 148.256L46.1976 148.888C45.7922 148.451 45.2936 148.232 44.7016 148.232C44.3176 148.232 43.9736 148.317 43.6696 148.488C43.3656 148.653 43.1282 148.885 42.9576 149.184C42.7869 149.483 42.7016 149.821 42.7016 150.2C42.7016 150.579 42.7869 150.917 42.9576 151.216C43.1282 151.515 43.3656 151.749 43.6696 151.92C43.9736 152.085 44.3176 152.168 44.7016 152.168C45.2936 152.168 45.7922 151.947 46.1976 151.504L46.8696 152.144C46.6082 152.448 46.2856 152.68 45.9016 152.84C45.5229 153 45.1042 153.08 44.6456 153.08ZM49.7338 153.056C49.3018 153.056 48.9125 152.963 48.5658 152.776C48.2191 152.589 47.9471 152.331 47.7498 152C47.5578 151.664 47.4618 151.285 47.4618 150.864C47.4618 150.443 47.5578 150.067 47.7498 149.736C47.9471 149.405 48.2191 149.147 48.5658 148.96C48.9125 148.773 49.3018 148.68 49.7338 148.68C50.1711 148.68 50.5631 148.773 50.9098 148.96C51.2565 149.147 51.5258 149.405 51.7178 149.736C51.9151 150.067 52.0138 150.443 52.0138 150.864C52.0138 151.285 51.9151 151.664 51.7178 152C51.5258 152.331 51.2565 152.589 50.9098 152.776C50.5631 152.963 50.1711 153.056 49.7338 153.056ZM49.7338 152.2C50.1018 152.2 50.4058 152.077 50.6458 151.832C50.8858 151.587 51.0058 151.264 51.0058 150.864C51.0058 150.464 50.8858 150.141 50.6458 149.896C50.4058 149.651 50.1018 149.528 49.7338 149.528C49.3658 149.528 49.0618 149.651 48.8218 149.896C48.5871 150.141 48.4698 150.464 48.4698 150.864C48.4698 151.264 48.5871 151.587 48.8218 151.832C49.0618 152.077 49.3658 152.2 49.7338 152.2ZM55.5941 148.68C56.1327 148.68 56.5647 148.837 56.8901 149.152C57.2154 149.467 57.3781 149.933 57.3781 150.552V153H56.3781V150.68C56.3781 150.307 56.2901 150.027 56.1141 149.84C55.9381 149.648 55.6874 149.552 55.3621 149.552C54.9941 149.552 54.7034 149.664 54.4901 149.888C54.2767 150.107 54.1701 150.424 54.1701 150.84V153H53.1701V148.728H54.1221V149.28C54.2874 149.083 54.4954 148.933 54.7461 148.832C54.9967 148.731 55.2794 148.68 55.5941 148.68ZM61.4146 152.768C61.2973 152.864 61.1533 152.936 60.9826 152.984C60.8173 153.032 60.6413 153.056 60.4546 153.056C59.9853 153.056 59.6226 152.933 59.3666 152.688C59.1106 152.443 58.9826 152.085 58.9826 151.616V149.56H58.2786V148.76H58.9826V147.784H59.9826V148.76H61.1266V149.56H59.9826V151.592C59.9826 151.8 60.0333 151.96 60.1346 152.072C60.236 152.179 60.3826 152.232 60.5746 152.232C60.7986 152.232 60.9853 152.173 61.1346 152.056L61.4146 152.768ZM63.3893 149.352C63.6773 148.904 64.1839 148.68 64.9093 148.68V149.632C64.8239 149.616 64.7466 149.608 64.6773 149.608C64.2879 149.608 63.9839 149.723 63.7653 149.952C63.5466 150.176 63.4373 150.501 63.4373 150.928V153H62.4373V148.728H63.3893V149.352ZM67.5661 148.68C68.1955 148.68 68.6755 148.832 69.0061 149.136C69.3421 149.435 69.5101 149.888 69.5101 150.496V153H68.5661V152.48C68.4435 152.667 68.2675 152.811 68.0381 152.912C67.8141 153.008 67.5421 153.056 67.2221 153.056C66.9021 153.056 66.6221 153.003 66.3821 152.896C66.1421 152.784 65.9555 152.632 65.8221 152.44C65.6941 152.243 65.6301 152.021 65.6301 151.776C65.6301 151.392 65.7715 151.085 66.0541 150.856C66.3421 150.621 66.7928 150.504 67.4061 150.504H68.5101V150.44C68.5101 150.141 68.4195 149.912 68.2381 149.752C68.0621 149.592 67.7981 149.512 67.4461 149.512C67.2061 149.512 66.9688 149.549 66.7341 149.624C66.5048 149.699 66.3101 149.803 66.1501 149.936L65.7581 149.208C65.9821 149.037 66.2515 148.907 66.5661 148.816C66.8808 148.725 67.2141 148.68 67.5661 148.68ZM67.4301 152.328C67.6808 152.328 67.9021 152.272 68.0941 152.16C68.2915 152.043 68.4301 151.877 68.5101 151.664V151.168H67.4781C66.9021 151.168 66.6141 151.357 66.6141 151.736C66.6141 151.917 66.6861 152.061 66.8301 152.168C66.9741 152.275 67.1741 152.328 67.4301 152.328ZM72.9926 153.056C72.5499 153.056 72.1526 152.963 71.8006 152.776C71.4486 152.589 71.1739 152.331 70.9766 152C70.7792 151.664 70.6806 151.285 70.6806 150.864C70.6806 150.443 70.7792 150.067 70.9766 149.736C71.1739 149.405 71.4459 149.147 71.7926 148.96C72.1446 148.773 72.5446 148.68 72.9926 148.68C73.4139 148.68 73.7819 148.765 74.0966 148.936C74.4166 149.107 74.6566 149.352 74.8166 149.672L74.0486 150.12C73.9259 149.923 73.7712 149.776 73.5846 149.68C73.4032 149.579 73.2032 149.528 72.9846 149.528C72.6112 149.528 72.3019 149.651 72.0566 149.896C71.8112 150.136 71.6886 150.459 71.6886 150.864C71.6886 151.269 71.8086 151.595 72.0486 151.84C72.2939 152.08 72.6059 152.2 72.9846 152.2C73.2032 152.2 73.4032 152.152 73.5846 152.056C73.7712 151.955 73.9259 151.805 74.0486 151.608L74.8166 152.056C74.6512 152.376 74.4086 152.624 74.0886 152.8C73.7739 152.971 73.4086 153.056 72.9926 153.056ZM78.5037 152.768C78.3864 152.864 78.2424 152.936 78.0717 152.984C77.9064 153.032 77.7304 153.056 77.5437 153.056C77.0744 153.056 76.7117 152.933 76.4557 152.688C76.1997 152.443 76.0717 152.085 76.0717 151.616V149.56H75.3677V148.76H76.0717V147.784H77.0717V148.76H78.2157V149.56H77.0717V151.592C77.0717 151.8 77.1224 151.96 77.2237 152.072C77.325 152.179 77.4717 152.232 77.6637 152.232C77.8877 152.232 78.0744 152.173 78.2237 152.056L78.5037 152.768ZM85.6653 151.704H82.8653L82.3133 153H81.2412L83.7613 147.4H84.7853L87.3133 153H86.2253L85.6653 151.704ZM85.3212 150.888L84.2653 148.44L83.2173 150.888H85.3212ZM92.2744 147.064V153H91.3144V152.448C91.149 152.651 90.9437 152.803 90.6984 152.904C90.4584 153.005 90.1917 153.056 89.8984 153.056C89.4877 153.056 89.117 152.965 88.7864 152.784C88.461 152.603 88.205 152.347 88.0184 152.016C87.8317 151.68 87.7384 151.296 87.7384 150.864C87.7384 150.432 87.8317 150.051 88.0184 149.72C88.205 149.389 88.461 149.133 88.7864 148.952C89.117 148.771 89.4877 148.68 89.8984 148.68C90.181 148.68 90.4397 148.728 90.6744 148.824C90.909 148.92 91.109 149.064 91.2744 149.256V147.064H92.2744ZM90.0184 152.2C90.2584 152.2 90.4744 152.147 90.6664 152.04C90.8584 151.928 91.0104 151.771 91.1224 151.568C91.2344 151.365 91.2904 151.131 91.2904 150.864C91.2904 150.597 91.2344 150.363 91.1224 150.16C91.0104 149.957 90.8584 149.803 90.6664 149.696C90.4744 149.584 90.2584 149.528 90.0184 149.528C89.7784 149.528 89.5624 149.584 89.3704 149.696C89.1784 149.803 89.0264 149.957 88.9144 150.16C88.8024 150.363 88.7464 150.597 88.7464 150.864C88.7464 151.131 88.8024 151.365 88.9144 151.568C89.0264 151.771 89.1784 151.928 89.3704 152.04C89.5624 152.147 89.7784 152.2 90.0184 152.2ZM97.9666 147.064V153H97.0066V152.448C96.8412 152.651 96.6359 152.803 96.3906 152.904C96.1506 153.005 95.8839 153.056 95.5906 153.056C95.1799 153.056 94.8092 152.965 94.4786 152.784C94.1532 152.603 93.8972 152.347 93.7106 152.016C93.5239 151.68 93.4306 151.296 93.4306 150.864C93.4306 150.432 93.5239 150.051 93.7106 149.72C93.8972 149.389 94.1532 149.133 94.4786 148.952C94.8092 148.771 95.1799 148.68 95.5906 148.68C95.8732 148.68 96.1319 148.728 96.3666 148.824C96.6012 148.92 96.8012 149.064 96.9666 149.256V147.064H97.9666ZM95.7106 152.2C95.9506 152.2 96.1666 152.147 96.3586 152.04C96.5506 151.928 96.7026 151.771 96.8146 151.568C96.9266 151.365 96.9826 151.131 96.9826 150.864C96.9826 150.597 96.9266 150.363 96.8146 150.16C96.7026 149.957 96.5506 149.803 96.3586 149.696C96.1666 149.584 95.9506 149.528 95.7106 149.528C95.4706 149.528 95.2546 149.584 95.0626 149.696C94.8706 149.803 94.7186 149.957 94.6066 150.16C94.4946 150.363 94.4386 150.597 94.4386 150.864C94.4386 151.131 94.4946 151.365 94.6066 151.568C94.7186 151.771 94.8706 151.928 95.0626 152.04C95.2546 152.147 95.4706 152.2 95.7106 152.2ZM100.427 149.352C100.715 148.904 101.221 148.68 101.947 148.68V149.632C101.861 149.616 101.784 149.608 101.715 149.608C101.325 149.608 101.021 149.723 100.803 149.952C100.584 150.176 100.475 150.501 100.475 150.928V153H99.4747V148.728H100.427V149.352ZM106.972 150.888C106.972 150.957 106.967 151.056 106.956 151.184H103.604C103.663 151.499 103.815 151.749 104.06 151.936C104.311 152.117 104.62 152.208 104.988 152.208C105.457 152.208 105.844 152.053 106.148 151.744L106.684 152.36C106.492 152.589 106.249 152.763 105.956 152.88C105.663 152.997 105.332 153.056 104.964 153.056C104.495 153.056 104.081 152.963 103.724 152.776C103.367 152.589 103.089 152.331 102.892 152C102.7 151.664 102.604 151.285 102.604 150.864C102.604 150.448 102.697 150.075 102.884 149.744C103.076 149.408 103.34 149.147 103.676 148.96C104.012 148.773 104.391 148.68 104.812 148.68C105.228 148.68 105.599 148.773 105.924 148.96C106.255 149.141 106.511 149.4 106.692 149.736C106.879 150.067 106.972 150.451 106.972 150.888ZM104.812 149.48C104.492 149.48 104.22 149.576 103.996 149.768C103.777 149.955 103.644 150.205 103.596 150.52H106.02C105.977 150.211 105.847 149.96 105.628 149.768C105.409 149.576 105.137 149.48 104.812 149.48ZM109.453 153.056C109.106 153.056 108.767 153.011 108.437 152.92C108.106 152.829 107.842 152.715 107.645 152.576L108.029 151.816C108.221 151.944 108.45 152.048 108.717 152.128C108.989 152.203 109.255 152.24 109.517 152.24C110.114 152.24 110.413 152.083 110.413 151.768C110.413 151.619 110.335 151.515 110.181 151.456C110.031 151.397 109.789 151.341 109.453 151.288C109.101 151.235 108.813 151.173 108.589 151.104C108.37 151.035 108.178 150.915 108.013 150.744C107.853 150.568 107.773 150.325 107.773 150.016C107.773 149.611 107.941 149.288 108.277 149.048C108.618 148.803 109.077 148.68 109.653 148.68C109.946 148.68 110.239 148.715 110.533 148.784C110.826 148.848 111.066 148.936 111.253 149.048L110.869 149.808C110.506 149.595 110.098 149.488 109.645 149.488C109.351 149.488 109.127 149.533 108.973 149.624C108.823 149.709 108.749 149.824 108.749 149.968C108.749 150.128 108.829 150.243 108.989 150.312C109.154 150.376 109.407 150.437 109.749 150.496C110.09 150.549 110.37 150.611 110.589 150.68C110.807 150.749 110.994 150.867 111.149 151.032C111.309 151.197 111.389 151.432 111.389 151.736C111.389 152.136 111.215 152.456 110.869 152.696C110.522 152.936 110.05 153.056 109.453 153.056ZM113.77 153.056C113.423 153.056 113.084 153.011 112.754 152.92C112.423 152.829 112.159 152.715 111.962 152.576L112.346 151.816C112.538 151.944 112.767 152.048 113.034 152.128C113.306 152.203 113.572 152.24 113.834 152.24C114.431 152.24 114.73 152.083 114.73 151.768C114.73 151.619 114.652 151.515 114.498 151.456C114.348 151.397 114.106 151.341 113.77 151.288C113.418 151.235 113.13 151.173 112.906 151.104C112.687 151.035 112.495 150.915 112.33 150.744C112.17 150.568 112.09 150.325 112.09 150.016C112.09 149.611 112.258 149.288 112.594 149.048C112.935 148.803 113.394 148.68 113.97 148.68C114.263 148.68 114.556 148.715 114.85 148.784C115.143 148.848 115.383 148.936 115.57 149.048L115.186 149.808C114.823 149.595 114.415 149.488 113.962 149.488C113.668 149.488 113.444 149.533 113.29 149.624C113.14 149.709 113.066 149.824 113.066 149.968C113.066 150.128 113.146 150.243 113.306 150.312C113.471 150.376 113.724 150.437 114.066 150.496C114.407 150.549 114.687 150.611 114.906 150.68C115.124 150.749 115.311 150.867 115.466 151.032C115.626 151.197 115.706 151.432 115.706 151.736C115.706 152.136 115.532 152.456 115.186 152.696C114.839 152.936 114.367 153.056 113.77 153.056Z" fill="#9A9A9A"/>
<rect x="13.5" y="160.5" width="242" height="34" rx="5.5" stroke="#00D1FF"/>
<line x1="235.15" y1="169.15" x2="235.15" y2="185.85" stroke="#40444F" stroke-width="0.3" stroke-linecap="round"/>
</svg>
