<?xml version="1.0" encoding="utf-8"?>
<!-- Generator: Adobe Illustrator 25.4.1, SVG Export Plug-In . SVG Version: 6.00 Build 0)  -->
<svg version="1.1" id="Capa_1" xmlns="http://www.w3.org/2000/svg" xmlns:xlink="http://www.w3.org/1999/xlink" x="0px" y="0px"
	 viewBox="0 0 1586.7 500" style="enable-background:new 0 0 1586.7 500;" xml:space="preserve">
<style type="text/css">
	.st0{fill:#E7E6E8;}
</style>
<g>
	<g>
		<path class="st0" d="M514.2,354.7c6.5,4,12,9.5,15.5,17c4,7.5,6,16.5,6,26.4s-2,18.5-6.5,26c-4,7.5-10,13-17.5,16.5
			c-7.5,4-16.5,6-26,6c-5.5,0-10.5-1-15.5-3c-5-1.5-9.5-4.5-13-8v51.9h-29V350.7h25l2.5,11c11-9,23-13.5,35.5-13.5
			C499.7,348.2,507.7,350.2,514.2,354.7z M498.2,416.6c5-4.5,7.5-10.5,7.5-18s-2.5-13.5-7-18.5c-4.5-5-10.5-7-17-7
			c-5.5,0-10.5,1-14.5,3.5c-4,2-7,5.5-9.5,10v22.5c1.5,4.5,4.5,8,8,10.5c4,2.5,8.5,4,14,4C487.3,423.6,493.2,421.1,498.2,416.6z"/>
		<path class="st0" d="M552.6,372.2c4.5-7,10.5-13,18.5-17c8-4,17-6.5,27-6.5s19,2,27,6.5c7.5,4,13.5,10,18,17.5
			c4.5,7.5,6.5,15.5,6.5,25s-2,17.5-6.5,25s-10,13.5-18,17.5c-7.5,4-17,6.5-27,6.5s-19-2-27-6c-8-4-14-9.5-18.5-17
			c-4-7.5-6.5-16-6.5-26C546.2,388.1,548.7,379.6,552.6,372.2z M582.1,415.6c4,5,9.5,7,16,7c6.5,0,12-2.5,16-7c4-4.5,6-11,6-18
			c0-7.5-2-13.5-6-18c-4.5-5-9.5-7.5-16.5-7.5c-6.5,0-11.5,2.5-16,7c-4,5-6,11-6,18.5C575.6,404.6,577.6,410.6,582.1,415.6z"/>
		<path class="st0" d="M696.5,279.7v164.3h-28.9V279.7H696.5z"/>
		<path class="st0" d="M815.3,353.2L756.4,488h-28l22-48.4l-42-86.4h33l24,54l24-54L815.3,353.2L815.3,353.2z"/>
		<path class="st0" d="M926.2,353.2v90.9c0,8.5-2.5,16.5-7.5,23.5c-5,7-11.5,12.5-20,16.5c-8.5,4-17.5,6-27.5,6
			c-7.5,0-14-1-19.5-2.5c-5.5-2-10-4-13.5-6c-4-2.5-8-5.5-12.5-9.5l17-20c4,4,8.5,7,12.5,9c4,2,9.5,3.5,15.5,3.5
			c7.5,0,13.5-2,18.5-5.5c5-3.5,7.5-9,7.5-15.5v-13c-3,4.5-7,8.5-13,11.5s-13,4.5-21,4.5s-16-2-23-6.5c-7-4-12.5-10-17-17.5
			c-4-7.5-6.5-15.5-6.5-24.5c0-9,2-17.5,6.5-25c4.5-7.5,10-13.5,17.5-18c7-4.5,14.5-6.5,22.5-6.5c7.5,0,14,1,20,3s10.5,5,13.5,8.5
			l3-7L926.2,353.2L926.2,353.2z M896.7,409.1v-22.5c-2-4.5-5-8-9.5-10.5c-4.5-2.5-9.5-4-15.5-4c-7,0-13,2.5-18,7
			c-5,4.5-7.5,10.5-7.5,18c0,7,2.5,13.5,7.5,18.5c5,5,11,7.5,18,7.5C883.2,422.6,891.7,418.1,896.7,409.1z"/>
		<path class="st0" d="M950.2,372.2c4.5-7.5,10.5-13,18.5-17.5c8-4,17-6.5,27-6.5c10,0,19,2,27,6.5c7.5,4,13.5,10,18,17.5
			c4,7.5,6.5,15.5,6.5,25c0,9.5-2,17.5-6.5,25c-4,7.5-10,13.5-18,17.5c-7.5,4-17,6.5-27,6.5s-19-2-27-6c-8-4-14-9.5-18.5-17
			c-4.5-7.5-6.5-16-6.5-26.4C943.7,388.1,945.6,379.6,950.2,372.2z M979.1,415.6c4,5,9.5,7,16,7c6.5,0,12-2.5,16-7c4-4.5,6-11,6-18
			c0-7.5-2-13.5-6-18c-4-4.5-9.5-7-16-7c-6.5,0-11.5,2.5-16,7c-4.5,4.5-6.5,11-6.5,18C973.1,404.6,975.1,410.6,979.1,415.6z"/>
		<path class="st0" d="M1149.4,356.2c6,5,8.5,11.5,9,19.5v68.4h-29.5v-57.4c-0.5-9-5-13.5-13.5-13.5c-6.5,0-12,3-16,9.5
			c-4,6.5-6,14.5-6,24v37.4h-28.9v-90.9h26.4l2,14.5c3.5-6,8-10.5,14-14c6-3.5,13-5,21-5C1136.4,348.7,1143.9,351.2,1149.4,356.2z"
			/>
	</g>
	<path class="st0" d="M862.3,82.1c-5-3-11.5-3-17,0l-38.9,23l-26.4,15l-38.9,23c-5,3-11.5,3-17,0l-31-18c-5-3-8.5-8.5-8.5-14.5V75.1
		c0-6,3-11.5,8.5-14.5l30.5-17.5c5-3,11.5-3,17,0L771,60.6c5,3,8.5,8.5,8.5,14.5v23l26.4-15.5v-23c0-6-3-11.5-8.5-14.5l-56.5-32.9
		c-5-3-11.5-3-17,0l-57.4,32.9c-5.5,3-8.5,8.5-8.5,14.5v66.4c0,6,3,11.5,8.5,14.5l57.4,33c5,3,11.5,3,17,0l38.9-22.5l26.4-15.5
		l38.9-22.5c5-3,11.5-3,17,0l30.5,17.5c5,3,8.5,8.5,8.5,14.5v35.5c0,6-3,11.5-8.5,14.5l-30.5,18c-5,3-11.5,3-17,0l-30.5-17.5
		c-5-3-8.5-8.5-8.5-14.5v-23l-26.4,15.5v23c0,6,3,11.5,8.5,14.5l57.4,33c5,3,11.5,3,17,0l57.4-33c5-3,8.5-8.5,8.5-14.5v-66.5
		c0-6-3-11.5-8.5-14.5L862.3,82.1z"/>
</g>
</svg>
