<?xml version="1.0" encoding="utf-8"?>
<!-- Generator: Adobe Illustrator 25.4.1, SVG Export Plug-In . SVG Version: 6.00 Build 0)  -->
<svg version="1.1" id="Capa_1" xmlns="http://www.w3.org/2000/svg" xmlns:xlink="http://www.w3.org/1999/xlink" x="0px" y="0px"
	 viewBox="0 0 1586.7 500" style="enable-background:new 0 0 1586.7 500;" xml:space="preserve">
<style type="text/css">
	.st0{fill:#E7E6E8;}
</style>
<g>
	<path class="st0" d="M768.2,10c2.9,43.1-27.7,59.3-56.2,76.2c31.6,6.4,61.6,8.9,89,18.6c51,18.1,87.1,55.1,114.3,101.5
		c7,11.8,15,24.2,25.6,32.3c35,26.3,77.8,10.7,90.5-31.5c1-3.5,2.2-7,3.4-10.8c12.5,28.4,6.4,71.5-14.3,103
		C966,382.3,863.2,426.1,765.7,407.7c-42.2-8-67-39.5-86.9-72.4C611.7,224.5,641,94.3,747.1,20.9C753.5,16.4,761.1,13.6,768.2,10z"
		/>
	<path class="st0" d="M701.3,401.8c-20.5,13-40.6,23.9-58.4,37.6c-17.9,13.9-33.4,30.7-54.8,50.6c-23.5-28.9-49.7-56.3-70.4-87.5
		c-58.1-87.6-67.6-184.2-47.3-285.5c4.4-22,13.9-31.6,37.1-28.6c44,5.7,88.2,10,136.5,15.3C621,161,606,212.4,620.3,268.2
		C634,321.9,658.6,367.9,701.3,401.8z"/>
	<path class="st0" d="M906.9,426.3c126.9-55.1,187.6-153,191.1-292.2c7.5,24.4,17.4,48.4,22.1,73.3c14.2,75.2,2.8,147.4-31.6,215.8
		c-13.3,26.5-85.5,59.3-113.3,52c-2.1-0.5-4.3-1.2-6-2.5C948.9,457.7,928.6,442.5,906.9,426.3z"/>
</g>
</svg>
