<svg width="93" height="93" viewBox="0 0 93 93" fill="none" xmlns="http://www.w3.org/2000/svg">
<path d="M46.5 93C72.1812 93 93 72.1812 93 46.5C93 20.8188 72.1812 0 46.5 0C20.8188 0 0 20.8188 0 46.5C0 72.1812 20.8188 93 46.5 93Z" fill="white"/>
<path d="M69.1 27.6C68.9 27.1 68.7 26.9 68.4 26.8C67.7 26.5 66.4 26.9 66.4 26.9C66.4 26.9 23 42.6 20.5 44.3C20 44.7 19.8 44.9 19.7 45.1C19.3 46.3 20.6 46.9 20.6 46.9L31.8 50.5C31.8 50.5 32.2 50.6 32.4 50.5C34.9 48.9 58 34.3 59.4 33.8C59.6 33.7 59.8 33.8 59.7 34C59.2 35.9 39.1 53.7 39.1 53.7C39.1 53.7 39 53.8 39 53.9L38 65C38 65 37.6 68.4 41 65C43.4 62.6 45.7 60.6 46.9 59.6C50.8 62.3 54.9 65.2 56.7 66.7C57.6 67.5 58.4 67.6 59 67.6C60.7 67.5 61.2 65.7 61.2 65.7C61.2 65.7 69.1 33.8 69.4 29.6C69.4 29.2 69.5 28.9 69.5 28.6C69.2 28.2 69.2 27.8 69.1 27.6Z" fill="#9A00E4"/>
</svg>
