<svg width="90" height="90" viewBox="0 0 90 90" fill="none" xmlns="http://www.w3.org/2000/svg">
<path d="M45 90C69.8528 90 90 69.8528 90 45C90 20.1472 69.8528 0 45 0C20.1472 0 0 20.1472 0 45C0 69.8528 20.1472 90 45 90Z" fill="white"/>
<path d="M69.8999 29.5999C68.2999 30.2999 66.5999 30.6999 64.8999 30.9999C65.6999 30.8999 66.8999 29.3999 67.2999 28.7999C67.9999 27.8999 68.5999 26.8999 68.8999 25.7999C68.8999 25.6999 68.9999 25.5999 68.8999 25.4999C68.7999 25.4999 68.6999 25.4999 68.5999 25.4999C66.6999 26.4999 64.7999 27.1999 62.6999 27.7999C62.4999 27.7999 62.3999 27.7999 62.2999 27.6999C62.0999 27.4999 61.9999 27.2999 61.7999 27.1999C60.8999 26.4999 59.9999 25.8999 58.8999 25.4999C57.4999 24.8999 55.9999 24.6999 54.4999 24.7999C53.0999 24.8999 51.5999 25.2999 50.3999 25.9999C49.0999 26.6999 47.9999 27.5999 47.0999 28.6999C46.1999 29.8999 45.4999 31.1999 45.0999 32.6999C44.7999 34.0999 44.7999 35.4999 44.9999 36.8999C44.9999 37.0999 44.9999 37.1999 44.7999 37.0999C36.6999 35.8999 29.9999 32.9999 24.5999 26.7999C24.3999 26.4999 24.1999 26.4999 23.9999 26.7999C21.5999 30.3999 22.7999 36.0999 25.6999 38.8999C26.0999 39.2999 26.4999 39.6999 26.8999 39.9999C26.6999 39.9999 24.7999 39.7999 22.9999 38.8999C22.7999 38.7999 22.5999 38.7999 22.5999 39.0999C22.5999 39.4999 22.5999 39.7999 22.6999 40.2999C23.1999 43.8999 25.6999 47.2999 29.0999 48.5999C29.4999 48.7999 29.9999 48.8999 30.3999 48.9999C29.5999 49.1999 28.7999 49.2999 26.5999 49.0999C26.4999 49.0999 26.3999 49.1999 26.4999 49.4999C28.1999 54.0999 31.7999 55.4999 34.4999 56.1999C34.8999 56.2999 35.1999 56.2999 35.5999 56.2999C35.5999 56.2999 35.5999 56.2999 35.4999 56.3999C34.5999 57.7999 31.4999 58.7999 29.9999 59.2999C27.2999 60.1999 24.4999 60.5999 21.6999 60.3999C21.2999 60.2999 21.1999 60.2999 20.9999 60.3999C20.8999 60.4999 20.9999 60.5999 21.0999 60.6999C21.6999 61.0999 22.1999 61.3999 22.7999 61.6999C24.5999 62.5999 26.3999 63.3999 28.3999 63.8999C38.3999 66.6999 49.6999 64.5999 57.1999 57.1999C63.0999 51.2999 65.1999 43.1999 65.1999 35.0999C65.1999 34.7999 65.5999 34.5999 65.7999 34.3999C67.2999 33.1999 68.5999 31.8999 69.6999 30.2999C69.9999 29.9999 69.9999 29.5999 69.9999 29.4999C70.0999 29.4999 70.0999 29.4999 69.8999 29.5999Z" fill="#9A00E4"/>
</svg>
