<svg width="90" height="90" viewBox="0 0 90 90" fill="none" xmlns="http://www.w3.org/2000/svg">
<path d="M45 90C69.8528 90 90 69.8528 90 45C90 20.1472 69.8528 0 45 0C20.1472 0 0 20.1472 0 45C0 69.8528 20.1472 90 45 90Z" fill="white"/>
<path d="M69.0999 38.5C69.0999 32.5 64.2999 27.7 58.2999 27.7H30.6999C24.6999 27.7 19.8999 32.5 19.8999 38.5V51.4C19.8999 57.4 24.6999 62.1999 30.6999 62.1999H58.2999C64.2999 62.1999 69.0999 57.4 69.0999 51.4V38.5V38.5ZM52.7999 45.7999L40.4999 52C39.9999 52.3 38.3999 51.9 38.3999 51.4V38.7999C38.3999 38.1999 40.0999 37.9 40.5999 38.2L52.4999 44.7C52.7999 44.9 53.2999 45.5999 52.7999 45.7999Z" fill="#9A00E4"/>
</svg>
